Jura-Light.ufo
<glyph name="exclam" format="2">
  <advance width="207"/>
  <unicode hex="0021"/>
  <outline>
    <contour>
      <point x="104" y="161" type="curve" smooth="yes"/>
      <point x="118" y="161"/>
      <point x="125" y="168"/>
      <point x="125" y="182" type="curve" smooth="yes"/>
      <point x="125" y="670" type="line" smooth="yes"/>
      <point x="125" y="684"/>
      <point x="118" y="691"/>
      <point x="104" y="691" type="curve" smooth="yes"/>
      <point x="90" y="691"/>
      <point x="83" y="684"/>
      <point x="83" y="670" type="curve" smooth="yes"/>
      <point x="83" y="182" type="line" smooth="yes"/>
      <point x="83" y="168"/>
      <point x="90" y="161"/>
    </contour>
    <component base="period"/>
  </outline>
</glyph>
<glyph name="numbersign" format="2">
  <advance width="565"/>
  <unicode hex="0023"/>
  <outline>
    <contour>
      <point x="102" y="1" type="curve" smooth="yes"/>
      <point x="112" y="1"/>
      <point x="120" y="8"/>
      <point x="122" y="17" type="curve" smooth="yes"/>
      <point x="177" y="212" type="line"/>
      <point x="313" y="212" type="line"/>
      <point x="262" y="28" type="line" smooth="yes"/>
      <point x="261" y="26"/>
      <point x="261" y="24"/>
      <point x="261" y="22" type="curve" smooth="yes"/>
      <point x="261" y="10"/>
      <point x="270" y="1"/>
      <point x="282" y="1" type="curve" smooth="yes"/>
      <point x="292" y="1"/>
      <point x="300" y="8"/>
      <point x="302" y="17" type="curve" smooth="yes"/>
      <point x="357" y="212" type="line"/>
      <point x="478" y="212" type="line" smooth="yes"/>
      <point x="490" y="212"/>
      <point x="499" y="221"/>
      <point x="499" y="233" type="curve" smooth="yes"/>
      <point x="499" y="245"/>
      <point x="490" y="254"/>
      <point x="478" y="254" type="curve" smooth="yes"/>
      <point x="368" y="254" type="line"/>
      <point x="412" y="412" type="line"/>
      <point x="534" y="412" type="line" smooth="yes"/>
      <point x="546" y="412"/>
      <point x="555" y="421"/>
      <point x="555" y="433" type="curve" smooth="yes"/>
      <point x="555" y="445"/>
      <point x="546" y="454"/>
      <point x="534" y="454" type="curve" smooth="yes"/>
      <point x="424" y="454" type="line"/>
      <point x="472" y="627" type="line" smooth="yes"/>
      <point x="473" y="629"/>
      <point x="473" y="631"/>
      <point x="473" y="633" type="curve" smooth="yes"/>
      <point x="473" y="645"/>
      <point x="464" y="654"/>
      <point x="452" y="654" type="curve" smooth="yes"/>
      <point x="442" y="654"/>
      <point x="434" y="647"/>
      <point x="432" y="638" type="curve" smooth="yes"/>
      <point x="380" y="454" type="line"/>
      <point x="244" y="454" type="line"/>
      <point x="292" y="627" type="line" smooth="yes"/>
      <point x="293" y="629"/>
      <point x="293" y="631"/>
      <point x="293" y="633" type="curve" smooth="yes"/>
      <point x="293" y="645"/>
      <point x="284" y="654"/>
      <point x="272" y="654" type="curve" smooth="yes"/>
      <point x="262" y="654"/>
      <point x="254" y="647"/>
      <point x="252" y="638" type="curve" smooth="yes"/>
      <point x="200" y="454" type="line"/>
      <point x="107" y="454" type="line" smooth="yes"/>
      <point x="95" y="454"/>
      <point x="86" y="445"/>
      <point x="86" y="433" type="curve" smooth="yes"/>
      <point x="86" y="421"/>
      <point x="95" y="412"/>
      <point x="107" y="412" type="curve" smooth="yes"/>
      <point x="189" y="412" type="line"/>
      <point x="145" y="254" type="line"/>
      <point x="51" y="254" type="line" smooth="yes"/>
      <point x="39" y="254"/>
      <point x="30" y="245"/>
      <point x="30" y="233" type="curve" smooth="yes"/>
      <point x="30" y="221"/>
      <point x="39" y="212"/>
      <point x="51" y="212" type="curve" smooth="yes"/>
      <point x="133" y="212" type="line"/>
      <point x="82" y="28" type="line" smooth="yes"/>
      <point x="81" y="26"/>
      <point x="81" y="24"/>
      <point x="81" y="22" type="curve" smooth="yes"/>
      <point x="81" y="10"/>
      <point x="90" y="1"/>
    </contour>
    <contour>
      <point x="188" y="254" type="line"/>
      <point x="232" y="412" type="line"/>
      <point x="369" y="412" type="line"/>
      <point x="325" y="254" type="line"/>
    </contour>
  </outline>
</glyph>
<glyph name="dollar" format="2">
  <advance width="630"/>
  <unicode hex="0024"/>
  <outline>
    <contour>
      <point x="246" y="0" type="curve" smooth="yes"/>
      <point x="384" y="0" type="line" smooth="yes"/>
      <point x="499" y="0"/>
      <point x="550" y="51"/>
      <point x="550" y="166" type="curve" smooth="yes"/>
      <point x="550" y="281"/>
      <point x="499" y="332"/>
      <point x="384" y="332" type="curve" smooth="yes"/>
      <point x="261" y="332" type="line" smooth="yes"/>
      <point x="175" y="332"/>
      <point x="145" y="371"/>
      <point x="145" y="456" type="curve" smooth="yes"/>
      <point x="145" y="541"/>
      <point x="175" y="571"/>
      <point x="260" y="571" type="curve" smooth="yes"/>
      <point x="381" y="571" type="line" smooth="yes"/>
      <point x="466" y="571"/>
      <point x="496" y="541"/>
      <point x="496" y="457" type="curve" smooth="yes"/>
      <point x="496" y="443"/>
      <point x="503" y="436"/>
      <point x="517" y="436" type="curve" smooth="yes"/>
      <point x="531" y="436"/>
      <point x="538" y="443"/>
      <point x="538" y="457" type="curve" smooth="yes"/>
      <point x="538" y="565"/>
      <point x="490" y="613"/>
      <point x="381" y="613" type="curve" smooth="yes"/>
      <point x="260" y="613" type="line" smooth="yes"/>
      <point x="151" y="613"/>
      <point x="103" y="565"/>
      <point x="103" y="456" type="curve" smooth="yes"/>
      <point x="103" y="347"/>
      <point x="151" y="290"/>
      <point x="261" y="290" type="curve" smooth="yes"/>
      <point x="384" y="290" type="line" smooth="yes"/>
      <point x="476" y="290"/>
      <point x="508" y="258"/>
      <point x="508" y="166" type="curve" smooth="yes"/>
      <point x="508" y="74"/>
      <point x="476" y="42"/>
      <point x="384" y="42" type="curve" smooth="yes"/>
      <point x="246" y="42" type="line" smooth="yes"/>
      <point x="154" y="42"/>
      <point x="122" y="74"/>
      <point x="122" y="166" type="curve" smooth="yes"/>
      <point x="122" y="180"/>
      <point x="115" y="187"/>
      <point x="101" y="187" type="curve" smooth="yes"/>
      <point x="87" y="187"/>
      <point x="80" y="180"/>
      <point x="80" y="166" type="curve" smooth="yes"/>
      <point x="80" y="51"/>
      <point x="131" y="0"/>
    </contour>
    <contour>
      <point x="339" y="-75"/>
      <point x="339" y="-61" type="curve" smooth="yes"/>
      <point x="339" y="302" type="line"/>
      <point x="343" y="313" type="line"/>
      <point x="343" y="689" type="line" smooth="yes"/>
      <point x="343" y="703"/>
      <point x="336" y="710"/>
      <point x="322" y="710" type="curve" smooth="yes"/>
      <point x="308" y="710"/>
      <point x="301" y="703"/>
      <point x="301" y="689" type="curve" smooth="yes"/>
      <point x="301" y="317" type="line"/>
      <point x="297" y="308" type="line"/>
      <point x="297" y="-61" type="line" smooth="yes"/>
      <point x="297" y="-75"/>
      <point x="304" y="-82"/>
      <point x="318" y="-82" type="curve" smooth="yes"/>
      <point x="332" y="-82"/>
    </contour>
  </outline>
</glyph>
<glyph name="ampersand" format="2">
  <advance width="600"/>
  <unicode hex="0026"/>
  <outline>
    <contour>
      <point x="565" y="37"/>
      <point x="574" y="47" type="curve" smooth="yes"/>
      <point x="583" y="57"/>
      <point x="582" y="68"/>
      <point x="572" y="77" type="curve" smooth="yes"/>
      <point x="242" y="367" type="line" smooth="yes"/>
      <point x="185" y="416"/>
      <point x="172" y="440"/>
      <point x="172" y="488" type="curve" smooth="yes"/>
      <point x="172" y="565"/>
      <point x="198" y="591"/>
      <point x="274" y="591" type="curve" smooth="yes"/>
      <point x="299" y="591" type="line" smooth="yes"/>
      <point x="368" y="591"/>
      <point x="395" y="570"/>
      <point x="400" y="510" type="curve" smooth="yes"/>
      <point x="401" y="496"/>
      <point x="408" y="489"/>
      <point x="422" y="489" type="curve" smooth="yes"/>
      <point x="435" y="489"/>
      <point x="443" y="497"/>
      <point x="442" y="511" type="curve" smooth="yes"/>
      <point x="436" y="595"/>
      <point x="391" y="633"/>
      <point x="299" y="633" type="curve" smooth="yes"/>
      <point x="274" y="633" type="line" smooth="yes"/>
      <point x="175" y="633"/>
      <point x="130" y="588"/>
      <point x="130" y="488" type="curve" smooth="yes"/>
      <point x="130" y="427"/>
      <point x="149" y="392"/>
      <point x="214" y="335" type="curve" smooth="yes"/>
      <point x="544" y="45" type="line"/>
      <point x="555" y="36"/>
    </contour>
    <contour>
      <point x="262" y="0" type="curve" smooth="yes"/>
      <point x="294" y="0" type="line" smooth="yes"/>
      <point x="435" y="0"/>
      <point x="496" y="61"/>
      <point x="496" y="202" type="curve" smooth="yes"/>
      <point x="496" y="258" type="line" smooth="yes"/>
      <point x="496" y="272"/>
      <point x="489" y="279"/>
      <point x="475" y="279" type="curve" smooth="yes"/>
      <point x="461" y="279"/>
      <point x="454" y="272"/>
      <point x="454" y="258" type="curve" smooth="yes"/>
      <point x="454" y="202" type="line" smooth="yes"/>
      <point x="454" y="85"/>
      <point x="411" y="42"/>
      <point x="294" y="42" type="curve" smooth="yes"/>
      <point x="262" y="42" type="line" smooth="yes"/>
      <point x="144" y="42"/>
      <point x="102" y="84"/>
      <point x="102" y="202" type="curve" smooth="yes"/>
      <point x="102" y="292"/>
      <point x="128" y="337"/>
      <point x="193" y="355" type="curve" smooth="yes"/>
      <point x="206" y="359"/>
      <point x="212" y="364"/>
      <point x="209" y="380" type="curve" smooth="yes"/>
      <point x="206" y="394"/>
      <point x="197" y="400"/>
      <point x="184" y="396" type="curve" smooth="yes"/>
      <point x="98" y="373"/>
      <point x="60" y="312"/>
      <point x="60" y="202" type="curve" smooth="yes"/>
      <point x="60" y="60"/>
      <point x="120" y="0"/>
    </contour>
  </outline>
</glyph>
<glyph name="quotesingle" format="2">
  <advance width="182"/>
  <unicode hex="0027"/>
  <outline>
    <contour>
      <point x="91" y="463" type="curve" smooth="yes"/>
      <point x="103" y="463"/>
      <point x="112" y="472"/>
      <point x="112" y="484" type="curve" smooth="yes"/>
      <point x="112" y="688" type="line" smooth="yes"/>
      <point x="112" y="700"/>
      <point x="103" y="709"/>
      <point x="91" y="709" type="curve" smooth="yes"/>
      <point x="79" y="709"/>
      <point x="70" y="700"/>
      <point x="70" y="688" type="curve" smooth="yes"/>
      <point x="70" y="484" type="line" smooth="yes"/>
      <point x="70" y="472"/>
      <point x="79" y="463"/>
    </contour>
  </outline>
</glyph>
<glyph name="parenleft" format="2">
  <advance width="256"/>
  <unicode hex="0028"/>
  <outline>
    <contour>
      <point x="225" y="-161" type="curve" smooth="yes"/>
      <point x="237" y="-161"/>
      <point x="246" y="-152"/>
      <point x="246" y="-140" type="curve" smooth="yes"/>
      <point x="246" y="-128"/>
      <point x="237" y="-119"/>
      <point x="225" y="-119" type="curve" smooth="yes"/>
      <point x="128" y="-119"/>
      <point x="92" y="-74"/>
      <point x="92" y="54" type="curve" smooth="yes"/>
      <point x="92" y="439" type="line" smooth="yes"/>
      <point x="92" y="574"/>
      <point x="128" y="622"/>
      <point x="225" y="622" type="curve" smooth="yes"/>
      <point x="237" y="622"/>
      <point x="246" y="631"/>
      <point x="246" y="643" type="curve" smooth="yes"/>
      <point x="246" y="655"/>
      <point x="237" y="664"/>
      <point x="225" y="664" type="curve" smooth="yes"/>
      <point x="102" y="664"/>
      <point x="50" y="596"/>
      <point x="50" y="439" type="curve" smooth="yes"/>
      <point x="50" y="54" type="line" smooth="yes"/>
      <point x="50" y="-96"/>
      <point x="102" y="-161"/>
    </contour>
  </outline>
</glyph>
<glyph name="asterisk" format="2">
  <advance width="384"/>
  <unicode hex="002A"/>
  <outline>
    <contour>
      <point x="192" y="352" type="curve" smooth="yes"/>
      <point x="205" y="352"/>
      <point x="213" y="359"/>
      <point x="213" y="373" type="curve" smooth="yes"/>
      <point x="213" y="476" type="line"/>
      <point x="197" y="466" type="line"/>
      <point x="286" y="415" type="line" smooth="yes"/>
      <point x="298" y="408"/>
      <point x="308" y="411"/>
      <point x="315" y="423" type="curve" smooth="yes"/>
      <point x="322" y="435"/>
      <point x="319" y="445"/>
      <point x="307" y="452" type="curve" smooth="yes"/>
      <point x="218" y="503" type="line"/>
      <point x="218" y="485" type="line"/>
      <point x="307" y="536" type="line" smooth="yes"/>
      <point x="319" y="543"/>
      <point x="322" y="553"/>
      <point x="315" y="565" type="curve" smooth="yes"/>
      <point x="308" y="577"/>
      <point x="298" y="580"/>
      <point x="286" y="573" type="curve" smooth="yes"/>
      <point x="197" y="522" type="line"/>
      <point x="213" y="512" type="line"/>
      <point x="213" y="615" type="line" smooth="yes"/>
      <point x="213" y="629"/>
      <point x="205" y="636"/>
      <point x="192" y="636" type="curve" smooth="yes"/>
      <point x="178" y="636"/>
      <point x="171" y="629"/>
      <point x="171" y="615" type="curve" smooth="yes"/>
      <point x="171" y="511" type="line"/>
      <point x="187" y="521" type="line"/>
      <point x="97" y="573" type="line" smooth="yes"/>
      <point x="87" y="579"/>
      <point x="76" y="578"/>
      <point x="69" y="565" type="curve" smooth="yes"/>
      <point x="63" y="554"/>
      <point x="64" y="543"/>
      <point x="76" y="536" type="curve" smooth="yes"/>
      <point x="165" y="485" type="line"/>
      <point x="165" y="503" type="line"/>
      <point x="76" y="452" type="line" smooth="yes"/>
      <point x="65" y="445"/>
      <point x="62" y="436"/>
      <point x="69" y="423" type="curve" smooth="yes"/>
      <point x="76" y="411"/>
      <point x="85" y="408"/>
      <point x="97" y="415" type="curve" smooth="yes"/>
      <point x="187" y="467" type="line"/>
      <point x="171" y="477" type="line"/>
      <point x="171" y="373" type="line" smooth="yes"/>
      <point x="171" y="359"/>
      <point x="178" y="352"/>
    </contour>
  </outline>
</glyph>
<glyph name="comma" format="2">
  <advance width="188"/>
  <unicode hex="002C"/>
  <outline>
    <contour>
      <point x="50" y="-92" type="curve" smooth="yes"/>
      <point x="59" y="-92"/>
      <point x="66" y="-86"/>
      <point x="70" y="-78" type="curve" smooth="yes"/>
      <point x="114" y="11" type="line"/>
      <point x="52" y="51" type="line"/>
      <point x="29" y="-71" type="line" smooth="yes"/>
      <point x="27" y="-84"/>
      <point x="38" y="-92"/>
    </contour>
    <component base="period" xOffset="-19"/>
  </outline>
</glyph>
<glyph name="period" format="2">
  <advance width="207"/>
  <unicode hex="002E"/>
  <outline>
    <contour>
      <point x="95" y="0" type="curve" smooth="yes"/>
      <point x="112" y="0" type="line" smooth="yes"/>
      <point x="128" y="0"/>
      <point x="137" y="9"/>
      <point x="137" y="26" type="curve" smooth="yes"/>
      <point x="137" y="43" type="line" smooth="yes"/>
      <point x="137" y="59"/>
      <point x="128" y="68"/>
      <point x="112" y="68" type="curve" smooth="yes"/>
      <point x="95" y="68" type="line" smooth="yes"/>
      <point x="79" y="68"/>
      <point x="70" y="59"/>
      <point x="70" y="43" type="curve" smooth="yes"/>
      <point x="70" y="26" type="line" smooth="yes"/>
      <point x="70" y="9"/>
      <point x="79" y="0"/>
    </contour>
  </outline>
</glyph>
<glyph name="slash" format="2">
  <advance width="347"/>
  <unicode hex="002F"/>
  <outline>
    <contour>
      <point x="71" y="-132" type="curve" smooth="yes"/>
      <point x="82" y="-132"/>
      <point x="89" y="-127"/>
      <point x="91" y="-116" type="curve" smooth="yes"/>
      <point x="297" y="682" type="line" smooth="yes"/>
      <point x="300" y="699"/>
      <point x="294" y="709"/>
      <point x="276" y="709" type="curve" smooth="yes"/>
      <point x="265" y="709"/>
      <point x="258" y="704"/>
      <point x="256" y="693" type="curve" smooth="yes"/>
      <point x="51" y="-105" type="line" smooth="yes"/>
      <point x="47" y="-120"/>
      <point x="54" y="-132"/>
    </contour>
  </outline>
</glyph>
<glyph name="zero" format="2">
  <advance width="586"/>
  <unicode hex="0030"/>
  <guideline x="293" y="427" angle="89.877"/>
  <outline>
    <contour>
      <point x="263" y="-3" type="curve" smooth="yes"/>
      <point x="323" y="-3" type="line" smooth="yes"/>
      <point x="465" y="-3"/>
      <point x="526" y="58"/>
      <point x="526" y="200" type="curve" smooth="yes"/>
      <point x="526" y="426" type="line" smooth="yes"/>
      <point x="526" y="568"/>
      <point x="465" y="629"/>
      <point x="323" y="629" type="curve" smooth="yes"/>
      <point x="263" y="629" type="line" smooth="yes"/>
      <point x="121.996" y="629"/>
      <point x="60" y="569"/>
      <point x="60" y="427" type="curve" smooth="yes"/>
      <point x="60" y="200" type="line" smooth="yes"/>
      <point x="60" y="58"/>
      <point x="121" y="-3"/>
    </contour>
    <contour>
      <point x="263" y="39" type="line" smooth="yes"/>
      <point x="145" y="39"/>
      <point x="102" y="82"/>
      <point x="102" y="200" type="curve" smooth="yes"/>
      <point x="102" y="427" type="line" smooth="yes"/>
      <point x="102" y="545"/>
      <point x="144.996" y="587"/>
      <point x="263" y="587" type="curve" smooth="yes"/>
      <point x="323" y="587" type="line" smooth="yes"/>
      <point x="441" y="587"/>
      <point x="484" y="544"/>
      <point x="484" y="426" type="curve" smooth="yes"/>
      <point x="484" y="200" type="line" smooth="yes"/>
      <point x="484" y="82"/>
      <point x="441" y="39"/>
      <point x="323" y="39" type="curve" smooth="yes"/>
    </contour>
    <component base="periodcentered" xOffset="190" yOffset="27"/>
  </outline>
</glyph>
<glyph name="one" format="2">
  <advance width="343"/>
  <unicode hex="0031"/>
  <outline>
    <contour>
      <point x="222" y="0" type="curve" smooth="yes"/>
      <point x="236" y="0"/>
      <point x="243" y="7"/>
      <point x="243" y="21" type="curve" smooth="yes"/>
      <point x="243" y="612" type="line" smooth="yes"/>
      <point x="243" y="626"/>
      <point x="237" y="633"/>
      <point x="226" y="633" type="curve" smooth="yes"/>
      <point x="215" y="633"/>
      <point x="207" y="630"/>
      <point x="200" y="622" type="curve" smooth="yes"/>
      <point x="87" y="512" type="line" smooth="yes"/>
      <point x="78" y="502"/>
      <point x="78" y="492"/>
      <point x="87" y="482" type="curve" smooth="yes"/>
      <point x="97" y="472"/>
      <point x="107" y="472"/>
      <point x="117" y="482" type="curve" smooth="yes"/>
      <point x="225" y="589" type="line"/>
      <point x="201" y="590" type="line"/>
      <point x="201" y="21" type="line" smooth="yes"/>
      <point x="201" y="7"/>
      <point x="208" y="0"/>
    </contour>
  </outline>
</glyph>
<glyph name="two" format="2">
  <advance width="564"/>
  <unicode hex="0032"/>
  <outline>
    <contour>
      <point x="483" y="0" type="line" smooth="yes"/>
      <point x="497" y="0"/>
      <point x="504" y="7"/>
      <point x="504" y="21" type="curve" smooth="yes"/>
      <point x="504" y="35"/>
      <point x="497" y="42"/>
      <point x="483" y="42" type="curve" smooth="yes"/>
      <point x="112" y="42" type="line"/>
      <point x="120" y="154"/>
      <point x="182" y="192"/>
      <point x="325" y="274" type="curve" smooth="yes"/>
      <point x="420" y="328"/>
      <point x="494" y="371"/>
      <point x="494" y="469" type="curve"/>
      <point x="494" y="583"/>
      <point x="444" y="633"/>
      <point x="330" y="633" type="curve" smooth="yes"/>
      <point x="223" y="633" type="line" smooth="yes"/>
      <point x="117" y="633"/>
      <point x="66" y="589"/>
      <point x="60" y="492" type="curve" smooth="yes"/>
      <point x="59" y="478"/>
      <point x="67" y="470"/>
      <point x="81" y="470" type="curve" smooth="yes"/>
      <point x="94" y="470"/>
      <point x="101" y="477"/>
      <point x="102" y="491" type="curve" smooth="yes"/>
      <point x="107" y="564"/>
      <point x="141" y="591"/>
      <point x="223" y="591" type="curve" smooth="yes"/>
      <point x="330" y="591" type="line" smooth="yes"/>
      <point x="421" y="591"/>
      <point x="452" y="559"/>
      <point x="452" y="469" type="curve" smooth="yes"/>
      <point x="452" y="395"/>
      <point x="399" y="365"/>
      <point x="304" y="310" type="curve" smooth="yes"/>
      <point x="140" y="216"/>
      <point x="69" y="165"/>
      <point x="69" y="21" type="curve" smooth="yes"/>
      <point x="69" y="7"/>
      <point x="77" y="0"/>
      <point x="91" y="0" type="curve" smooth="yes"/>
    </contour>
  </outline>
</glyph>
<glyph name="three" format="2">
  <advance width="571"/>
  <unicode hex="0033"/>
  <outline>
    <contour>
      <point x="223" y="1" type="curve" smooth="yes"/>
      <point x="337" y="1" type="line" smooth="yes"/>
      <point x="458" y="1"/>
      <point x="511" y="54"/>
      <point x="511" y="174" type="curve" smooth="yes"/>
      <point x="511" y="254"/>
      <point x="482" y="304"/>
      <point x="416" y="329" type="curve"/>
      <point x="470" y="354"/>
      <point x="495" y="400"/>
      <point x="495" y="469" type="curve" smooth="yes"/>
      <point x="495" y="583"/>
      <point x="445" y="633"/>
      <point x="331" y="633" type="curve" smooth="yes"/>
      <point x="234" y="633" type="line" smooth="yes"/>
      <point x="128" y="633"/>
      <point x="77" y="589"/>
      <point x="71" y="492" type="curve" smooth="yes"/>
      <point x="70" y="478"/>
      <point x="78" y="470"/>
      <point x="92" y="470" type="curve" smooth="yes"/>
      <point x="105" y="470"/>
      <point x="112" y="477"/>
      <point x="113" y="491" type="curve" smooth="yes"/>
      <point x="118" y="564"/>
      <point x="152" y="591"/>
      <point x="234" y="591" type="curve" smooth="yes"/>
      <point x="331" y="591" type="line" smooth="yes"/>
      <point x="422" y="591"/>
      <point x="453" y="559"/>
      <point x="453" y="469" type="curve" smooth="yes"/>
      <point x="453" y="386"/>
      <point x="427" y="348"/>
      <point x="342" y="347" type="curve" smooth="yes"/>
      <point x="239" y="347" type="line" smooth="yes"/>
      <point x="226" y="347"/>
      <point x="218" y="340"/>
      <point x="218" y="326" type="curve" smooth="yes"/>
      <point x="218" y="312"/>
      <point x="226" y="305"/>
      <point x="239" y="305" type="curve" smooth="yes"/>
      <point x="337" y="305" type="line" smooth="yes"/>
      <point x="435" y="305"/>
      <point x="469" y="271"/>
      <point x="469" y="174" type="curve" smooth="yes"/>
      <point x="469" y="77"/>
      <point x="435" y="43"/>
      <point x="337" y="43" type="curve" smooth="yes"/>
      <point x="223" y="43" type="line" smooth="yes"/>
      <point x="133" y="43"/>
      <point x="97" y="72"/>
      <point x="92" y="153" type="curve" smooth="yes"/>
      <point x="91" y="167"/>
      <point x="84" y="174"/>
      <point x="71" y="174" type="curve" smooth="yes"/>
      <point x="57" y="174"/>
      <point x="49" y="166"/>
      <point x="50" y="152" type="curve" smooth="yes"/>
      <point x="56" y="47"/>
      <point x="110" y="1"/>
    </contour>
  </outline>
</glyph>
<glyph name="four" format="2">
  <advance width="518"/>
  <unicode hex="0034"/>
  <outline>
    <contour>
      <point x="398" y="0" type="curve" smooth="yes"/>
      <point x="412" y="0"/>
      <point x="419" y="7"/>
      <point x="419" y="21" type="curve" smooth="yes"/>
      <point x="424" y="612" type="line" smooth="yes"/>
      <point x="424" y="626"/>
      <point x="418" y="633"/>
      <point x="406" y="633" type="curve" smooth="yes"/>
      <point x="394" y="633"/>
      <point x="387" y="629"/>
      <point x="380" y="620" type="curve" smooth="yes"/>
      <point x="39" y="182" type="line" smooth="yes"/>
      <point x="33" y="174"/>
      <point x="30" y="168"/>
      <point x="30" y="160" type="curve" smooth="yes"/>
      <point x="30" y="146"/>
      <point x="37" y="139"/>
      <point x="51" y="139" type="curve" smooth="yes"/>
      <point x="467" y="139" type="line" smooth="yes"/>
      <point x="481" y="139"/>
      <point x="488" y="146"/>
      <point x="488" y="160" type="curve" smooth="yes"/>
      <point x="488" y="174"/>
      <point x="481" y="181"/>
      <point x="467" y="181" type="curve" smooth="yes"/>
      <point x="74" y="181" type="line"/>
      <point x="83" y="171" type="line"/>
      <point x="390" y="565" type="line"/>
      <point x="382" y="570" type="line"/>
      <point x="377" y="21" type="line" smooth="yes"/>
      <point x="377" y="8"/>
      <point x="384" y="0"/>
    </contour>
  </outline>
</glyph>
<glyph name="five" format="2">
  <advance width="571"/>
  <unicode hex="0035"/>
  <outline>
    <contour>
      <point x="233" y="0" type="curve" smooth="yes"/>
      <point x="337" y="0" type="line" smooth="yes"/>
      <point x="458" y="0"/>
      <point x="511" y="53"/>
      <point x="511" y="174" type="curve" smooth="yes"/>
      <point x="511" y="243" type="line" smooth="yes"/>
      <point x="511" y="364"/>
      <point x="458" y="417"/>
      <point x="337" y="417" type="curve" smooth="yes"/>
      <point x="263" y="417" type="line" smooth="yes"/>
      <point x="199" y="417"/>
      <point x="152" y="407"/>
      <point x="118" y="386" type="curve"/>
      <point x="118" y="591" type="line"/>
      <point x="483" y="591" type="line" smooth="yes"/>
      <point x="497" y="591"/>
      <point x="504" y="598"/>
      <point x="504" y="612" type="curve" smooth="yes"/>
      <point x="504" y="626"/>
      <point x="497" y="633"/>
      <point x="483" y="633" type="curve" smooth="yes"/>
      <point x="97" y="633" type="line" smooth="yes"/>
      <point x="84" y="633"/>
      <point x="76" y="626"/>
      <point x="76" y="612" type="curve" smooth="yes"/>
      <point x="76" y="354" type="line" smooth="yes"/>
      <point x="76" y="342"/>
      <point x="82" y="334"/>
      <point x="94" y="331" type="curve" smooth="yes"/>
      <point x="98" y="330" type="line" smooth="yes"/>
      <point x="110" y="326"/>
      <point x="118" y="330"/>
      <point x="126" y="338" type="curve" smooth="yes"/>
      <point x="151" y="363"/>
      <point x="194" y="375"/>
      <point x="263" y="375" type="curve" smooth="yes"/>
      <point x="337" y="375" type="line" smooth="yes"/>
      <point x="435" y="375"/>
      <point x="469" y="340"/>
      <point x="469" y="243" type="curve" smooth="yes"/>
      <point x="469" y="174" type="line" smooth="yes"/>
      <point x="469" y="77"/>
      <point x="435" y="42"/>
      <point x="337" y="42" type="curve" smooth="yes"/>
      <point x="233" y="42" type="line" smooth="yes"/>
      <point x="143" y="42"/>
      <point x="107" y="71"/>
      <point x="102" y="152" type="curve" smooth="yes"/>
      <point x="101" y="166"/>
      <point x="94" y="173"/>
      <point x="81" y="173" type="curve" smooth="yes"/>
      <point x="67" y="173"/>
      <point x="59" y="165"/>
      <point x="60" y="151" type="curve" smooth="yes"/>
      <point x="66" y="46"/>
      <point x="120" y="0"/>
    </contour>
  </outline>
</glyph>
<glyph name="six" format="2">
  <advance width="572"/>
  <unicode hex="0036"/>
  <outline>
    <contour>
      <point x="234" y="1" type="curve" smooth="yes"/>
      <point x="338" y="1" type="line" smooth="yes"/>
      <point x="459" y="1"/>
      <point x="512" y="54"/>
      <point x="512" y="175" type="curve" smooth="yes"/>
      <point x="512" y="242" type="line"/>
      <point x="512" y="363"/>
      <point x="459" y="416"/>
      <point x="338" y="416" type="curve" smooth="yes"/>
      <point x="234" y="416" type="line" smooth="yes"/>
      <point x="167" y="416"/>
      <point x="124" y="395"/>
      <point x="102" y="348" type="curve"/>
      <point x="102" y="469" type="line"/>
      <point x="102" y="559"/>
      <point x="134" y="591"/>
      <point x="224" y="591" type="curve" smooth="yes"/>
      <point x="348" y="591" type="line" smooth="yes"/>
      <point x="431" y="591"/>
      <point x="464" y="564"/>
      <point x="469" y="491" type="curve" smooth="yes"/>
      <point x="470" y="477"/>
      <point x="477" y="470"/>
      <point x="491" y="470" type="curve" smooth="yes"/>
      <point x="504" y="470"/>
      <point x="512" y="478"/>
      <point x="511" y="492" type="curve" smooth="yes"/>
      <point x="505" y="589"/>
      <point x="454" y="633"/>
      <point x="348" y="633" type="curve" smooth="yes"/>
      <point x="224" y="633" type="line" smooth="yes"/>
      <point x="110" y="633"/>
      <point x="60" y="583"/>
      <point x="60" y="469" type="curve"/>
      <point x="60" y="174" type="line"/>
      <point x="60" y="54"/>
      <point x="113" y="1"/>
    </contour>
    <contour>
      <point x="234" y="43" type="line" smooth="yes"/>
      <point x="136" y="43"/>
      <point x="102" y="77"/>
      <point x="102" y="174" type="curve"/>
      <point x="102" y="243" type="line"/>
      <point x="102" y="340"/>
      <point x="136" y="374"/>
      <point x="234" y="374" type="curve" smooth="yes"/>
      <point x="338" y="374" type="line" smooth="yes"/>
      <point x="435" y="374"/>
      <point x="470" y="339"/>
      <point x="470" y="242" type="curve" smooth="yes"/>
      <point x="470" y="175" type="line" smooth="yes"/>
      <point x="470" y="78"/>
      <point x="435" y="43"/>
      <point x="338" y="43" type="curve" smooth="yes"/>
    </contour>
  </outline>
</glyph>
<glyph name="seven" format="2">
  <advance width="457"/>
  <unicode hex="0037"/>
  <outline>
    <contour>
      <point x="157" y="0" type="curve" smooth="yes"/>
      <point x="171" y="0"/>
      <point x="178" y="8"/>
      <point x="178" y="22" type="curve" smooth="yes"/>
      <point x="180" y="214"/>
      <point x="205" y="278"/>
      <point x="303" y="346" type="curve" smooth="yes"/>
      <point x="395" y="409"/>
      <point x="427" y="479"/>
      <point x="427" y="612" type="curve" smooth="yes"/>
      <point x="427" y="626"/>
      <point x="419" y="633"/>
      <point x="406" y="633" type="curve" smooth="yes"/>
      <point x="51" y="633" type="line" smooth="yes"/>
      <point x="37" y="633"/>
      <point x="30" y="626"/>
      <point x="30" y="612" type="curve" smooth="yes"/>
      <point x="30" y="598"/>
      <point x="37" y="591"/>
      <point x="51" y="591" type="curve" smooth="yes"/>
      <point x="385" y="591" type="line"/>
      <point x="382" y="485"/>
      <point x="355" y="433"/>
      <point x="279" y="380" type="curve" smooth="yes"/>
      <point x="159" y="297"/>
      <point x="137" y="204"/>
      <point x="136" y="22" type="curve" smooth="yes"/>
      <point x="136" y="8"/>
      <point x="143" y="0"/>
    </contour>
  </outline>
</glyph>
<glyph name="eight" format="2">
  <advance width="582"/>
  <unicode hex="0038"/>
  <outline>
    <contour>
      <point x="437" y="328" type="curve"/>
      <point x="484" y="353"/>
      <point x="506" y="399"/>
      <point x="506" y="469" type="curve" smooth="yes"/>
      <point x="506" y="583"/>
      <point x="456" y="633"/>
      <point x="342" y="633" type="curve" smooth="yes"/>
      <point x="245" y="633" type="line" smooth="yes"/>
      <point x="131" y="633"/>
      <point x="81" y="583"/>
      <point x="81" y="469" type="curve" smooth="yes"/>
      <point x="81" y="401"/>
      <point x="102" y="355"/>
      <point x="148" y="329" type="curve"/>
      <point x="88" y="305"/>
      <point x="60" y="255"/>
      <point x="60" y="173" type="curve" smooth="yes"/>
      <point x="60" y="53"/>
      <point x="113" y="0"/>
      <point x="234" y="0" type="curve" smooth="yes"/>
      <point x="348" y="0" type="line" smooth="yes"/>
      <point x="469" y="0"/>
      <point x="522" y="53"/>
      <point x="522" y="173" type="curve" smooth="yes"/>
      <point x="522" y="253"/>
      <point x="495" y="304"/>
    </contour>
    <contour>
      <point x="245" y="591" type="curve" smooth="yes"/>
      <point x="342" y="591" type="line" smooth="yes"/>
      <point x="432" y="591"/>
      <point x="464" y="559"/>
      <point x="464" y="469" type="curve" smooth="yes"/>
      <point x="464" y="386"/>
      <point x="437" y="347"/>
      <point x="362" y="347" type="curve" smooth="yes"/>
      <point x="246" y="346" type="line"/>
      <point x="155" y="346"/>
      <point x="123" y="378"/>
      <point x="123" y="469" type="curve" smooth="yes"/>
      <point x="123" y="559"/>
      <point x="155" y="591"/>
    </contour>
    <contour>
      <point x="348" y="42" type="curve" smooth="yes"/>
      <point x="234" y="42" type="line" smooth="yes"/>
      <point x="136" y="42"/>
      <point x="102" y="76"/>
      <point x="102" y="173" type="curve" smooth="yes"/>
      <point x="102" y="270"/>
      <point x="136" y="304"/>
      <point x="234" y="304" type="curve" smooth="yes"/>
      <point x="348" y="304" type="line"/>
      <point x="446" y="304"/>
      <point x="480" y="270"/>
      <point x="480" y="173" type="curve" smooth="yes"/>
      <point x="480" y="76"/>
      <point x="446" y="42"/>
    </contour>
  </outline>
</glyph>
<glyph name="less" format="2">
  <advance width="545"/>
  <unicode hex="003C"/>
  <outline>
    <contour>
      <point x="433" y="128"/>
      <point x="440" y="140" type="curve" smooth="yes"/>
      <point x="447" y="152"/>
      <point x="444" y="162"/>
      <point x="432" y="169" type="curve" smooth="yes"/>
      <point x="145" y="331" type="line"/>
      <point x="145" y="320" type="line"/>
      <point x="432" y="479" type="line" smooth="yes"/>
      <point x="444" y="486"/>
      <point x="447" y="496"/>
      <point x="440" y="508" type="curve" smooth="yes"/>
      <point x="433" y="520"/>
      <point x="423" y="523"/>
      <point x="411" y="516" type="curve" smooth="yes"/>
      <point x="115" y="351" type="line" smooth="yes"/>
      <point x="104" y="345"/>
      <point x="100" y="337"/>
      <point x="100" y="326" type="curve" smooth="yes"/>
      <point x="100" y="313"/>
      <point x="104" y="305"/>
      <point x="115" y="299" type="curve" smooth="yes"/>
      <point x="411" y="132" type="line" smooth="yes"/>
      <point x="423" y="125"/>
    </contour>
  </outline>
</glyph>
<glyph name="question" format="2">
  <advance width="475"/>
  <unicode hex="003F"/>
  <outline>
    <contour>
      <point x="217" y="131" type="curve" smooth="yes"/>
      <point x="231" y="131"/>
      <point x="238" y="138"/>
      <point x="238" y="152" type="curve" smooth="yes"/>
      <point x="238" y="239"/>
      <point x="273" y="263"/>
      <point x="317" y="293" type="curve" smooth="yes"/>
      <point x="362" y="323"/>
      <point x="415" y="359"/>
      <point x="415" y="469" type="curve" smooth="yes"/>
      <point x="415" y="583"/>
      <point x="365" y="633"/>
      <point x="251" y="633" type="curve" smooth="yes"/>
      <point x="184" y="633" type="line" smooth="yes"/>
      <point x="71" y="633"/>
      <point x="20" y="582"/>
      <point x="20" y="469" type="curve" smooth="yes"/>
      <point x="20" y="455"/>
      <point x="27" y="448"/>
      <point x="41" y="448" type="curve" smooth="yes"/>
      <point x="55" y="448"/>
      <point x="62" y="455"/>
      <point x="62" y="469" type="curve" smooth="yes"/>
      <point x="62" y="559"/>
      <point x="94" y="591"/>
      <point x="184" y="591" type="curve" smooth="yes"/>
      <point x="251" y="591" type="line" smooth="yes"/>
      <point x="341" y="591"/>
      <point x="373" y="559"/>
      <point x="373" y="469" type="curve" smooth="yes"/>
      <point x="373" y="382"/>
      <point x="338" y="358"/>
      <point x="294" y="328" type="curve" smooth="yes"/>
      <point x="249" y="298"/>
      <point x="196" y="262"/>
      <point x="196" y="152" type="curve" smooth="yes"/>
      <point x="196" y="138"/>
      <point x="203" y="131"/>
    </contour>
    <component base="period" xOffset="115"/>
  </outline>
</glyph>
<glyph name="at" format="2">
  <advance width="713"/>
  <unicode hex="0040"/>
  <outline>
    <contour>
      <point x="584" y="12"/>
      <point x="617" y="40" type="curve" smooth="yes"/>
      <point x="622" y="44"/>
      <point x="625" y="49"/>
      <point x="625" y="56" type="curve" smooth="yes"/>
      <point x="625" y="68"/>
      <point x="616" y="77"/>
      <point x="604" y="77" type="curve" smooth="yes"/>
      <point x="599" y="77"/>
      <point x="594" y="75"/>
      <point x="590" y="72" type="curve" smooth="yes"/>
      <point x="564" y="50"/>
      <point x="541" y="42"/>
      <point x="501" y="42" type="curve" smooth="yes"/>
      <point x="226" y="42" type="line" smooth="yes"/>
      <point x="146" y="41"/>
      <point x="122" y="66"/>
      <point x="122" y="150" type="curve" smooth="yes"/>
      <point x="122" y="403" type="line" smooth="yes"/>
      <point x="122" y="487"/>
      <point x="146" y="512"/>
      <point x="226" y="511" type="curve" smooth="yes"/>
      <point x="486" y="511" type="line" smooth="yes"/>
      <point x="567" y="511"/>
      <point x="591" y="486"/>
      <point x="591" y="402" type="curve" smooth="yes"/>
      <point x="591" y="203" type="line" smooth="yes"/>
      <point x="591" y="169"/>
      <point x="583" y="162"/>
      <point x="541" y="162" type="curve" smooth="yes"/>
      <point x="499" y="162"/>
      <point x="492" y="169"/>
      <point x="492" y="203" type="curve" smooth="yes"/>
      <point x="492" y="423" type="line" smooth="yes"/>
      <point x="492" y="437"/>
      <point x="485" y="444"/>
      <point x="471" y="444" type="curve" smooth="yes"/>
      <point x="460" y="444"/>
      <point x="451" y="436"/>
      <point x="450" y="405" type="curve"/>
      <point x="431" y="438"/>
      <point x="404" y="444"/>
      <point x="370" y="444" type="curve" smooth="yes"/>
      <point x="329" y="444" type="line" smooth="yes"/>
      <point x="244" y="444"/>
      <point x="207" y="407"/>
      <point x="207" y="319" type="curve" smooth="yes"/>
      <point x="207" y="240" type="line" smooth="yes"/>
      <point x="207" y="156"/>
      <point x="245" y="118"/>
      <point x="330" y="118" type="curve" smooth="yes"/>
      <point x="337" y="118" type="line" smooth="yes"/>
      <point x="392" y="118"/>
      <point x="433" y="131"/>
      <point x="459" y="176" type="curve"/>
      <point x="472" y="131"/>
      <point x="498" y="120"/>
      <point x="541" y="120" type="curve" smooth="yes"/>
      <point x="606" y="120"/>
      <point x="633" y="144"/>
      <point x="633" y="203" type="curve" smooth="yes"/>
      <point x="633" y="402" type="line" smooth="yes"/>
      <point x="633" y="510"/>
      <point x="591" y="553"/>
      <point x="486" y="553" type="curve" smooth="yes"/>
      <point x="226" y="553" type="line" smooth="yes"/>
      <point x="123" y="554"/>
      <point x="80" y="510"/>
      <point x="80" y="403" type="curve" smooth="yes"/>
      <point x="80" y="150" type="line" smooth="yes"/>
      <point x="80" y="43"/>
      <point x="123" y="-1"/>
      <point x="226" y="0" type="curve" smooth="yes"/>
      <point x="501" y="0" type="line" smooth="yes"/>
      <point x="549" y="0"/>
    </contour>
    <contour>
      <point x="249" y="179"/>
      <point x="249" y="240" type="curve" smooth="yes"/>
      <point x="249" y="319" type="line" smooth="yes"/>
      <point x="249" y="384"/>
      <point x="268" y="402"/>
      <point x="329" y="402" type="curve" smooth="yes"/>
      <point x="370" y="402" type="line" smooth="yes"/>
      <point x="432" y="402"/>
      <point x="450" y="384"/>
      <point x="450" y="318" type="curve" smooth="yes"/>
      <point x="450" y="240" type="line" smooth="yes"/>
      <point x="450" y="186"/>
      <point x="414" y="160"/>
      <point x="337" y="160" type="curve" smooth="yes"/>
      <point x="330" y="160" type="line" smooth="yes"/>
      <point x="269" y="160"/>
    </contour>
  </outline>
</glyph>
<glyph name="A" format="2">
  <advance width="597"/>
  <unicode hex="0041"/>
  <anchor x="298" y="0" name="bottom"/>
  <anchor x="554" y="0" name="ogonek"/>
  <anchor x="298" y="633" name="top"/>
  <outline>
    <contour>
      <point x="56" y="1"/>
      <point x="61" y="13" type="curve"/>
      <point x="300" y="567" type="line"/>
      <point x="536" y="13" type="line" smooth="yes"/>
      <point x="541" y="1"/>
      <point x="551" y="-3"/>
      <point x="563" y="2" type="curve" smooth="yes"/>
      <point x="576" y="8"/>
      <point x="580" y="17"/>
      <point x="574" y="30" type="curve" smooth="yes"/>
      <point x="324" y="617" type="line" smooth="yes"/>
      <point x="319" y="628"/>
      <point x="312" y="633"/>
      <point x="300" y="633" type="curve" smooth="yes"/>
      <point x="297" y="633" type="line" smooth="yes"/>
      <point x="285" y="633"/>
      <point x="277" y="628"/>
      <point x="273" y="617" type="curve" smooth="yes"/>
      <point x="22" y="30" type="line" smooth="yes"/>
      <point x="17" y="17"/>
      <point x="21" y="8"/>
      <point x="33" y="2" type="curve" smooth="yes"/>
      <point x="46" y="-3"/>
    </contour>
    <contour>
      <point x="140" y="179" type="curve" smooth="yes"/>
      <point x="455" y="179" type="line" smooth="yes"/>
      <point x="469" y="179"/>
      <point x="476" y="186"/>
      <point x="476" y="200" type="curve" smooth="yes"/>
      <point x="476" y="214"/>
      <point x="469" y="221"/>
      <point x="455" y="221" type="curve" smooth="yes"/>
      <point x="140" y="221" type="line" smooth="yes"/>
      <point x="127" y="221"/>
      <point x="119" y="214"/>
      <point x="119" y="200" type="curve" smooth="yes"/>
      <point x="119" y="186"/>
      <point x="127" y="179"/>
    </contour>
  </outline>
</glyph>
<glyph name="B" format="2">
  <advance width="603"/>
  <unicode hex="0042"/>
  <anchor x="300" y="0" name="bottom"/>
  <anchor x="300" y="633" name="top"/>
  <outline>
    <contour>
      <point x="111" y="0" type="curve" smooth="yes"/>
      <point x="385" y="0" type="line" smooth="yes"/>
      <point x="496" y="0"/>
      <point x="553" y="57"/>
      <point x="553" y="167" type="curve" smooth="yes"/>
      <point x="553" y="198" type="line" smooth="yes"/>
      <point x="553" y="308"/>
      <point x="496" y="364"/>
      <point x="385" y="364" type="curve" smooth="yes"/>
      <point x="132" y="364" type="line" smooth="yes"/>
      <point x="118" y="364"/>
      <point x="111" y="357"/>
      <point x="111" y="343" type="curve" smooth="yes"/>
      <point x="111" y="329"/>
      <point x="118" y="322"/>
      <point x="132" y="322" type="curve" smooth="yes"/>
      <point x="385" y="322" type="line" smooth="yes"/>
      <point x="473" y="322"/>
      <point x="511" y="285"/>
      <point x="511" y="198" type="curve" smooth="yes"/>
      <point x="511" y="167" type="line" smooth="yes"/>
      <point x="511" y="80"/>
      <point x="473" y="42"/>
      <point x="385" y="42" type="curve" smooth="yes"/>
      <point x="132" y="42" type="line"/>
      <point x="132" y="591" type="line"/>
      <point x="372" y="591" type="line" smooth="yes"/>
      <point x="443" y="591"/>
      <point x="474" y="561"/>
      <point x="474" y="492" type="curve" smooth="yes"/>
      <point x="474" y="465" type="line" smooth="yes"/>
      <point x="474" y="402"/>
      <point x="449" y="369"/>
      <point x="393" y="365" type="curve" smooth="yes"/>
      <point x="379" y="364"/>
      <point x="372" y="357"/>
      <point x="372" y="344" type="curve" smooth="yes"/>
      <point x="372" y="330"/>
      <point x="380" y="332"/>
      <point x="394" y="333" type="curve" smooth="yes"/>
      <point x="474" y="339"/>
      <point x="516" y="379"/>
      <point x="516" y="465" type="curve" smooth="yes"/>
      <point x="516" y="492" type="line" smooth="yes"/>
      <point x="516" y="585"/>
      <point x="467" y="633"/>
      <point x="372" y="633" type="curve" smooth="yes"/>
      <point x="111" y="633" type="line" smooth="yes"/>
      <point x="97" y="633"/>
      <point x="90" y="626"/>
      <point x="90" y="612" type="curve" smooth="yes"/>
      <point x="90" y="21" type="line" smooth="yes"/>
      <point x="90" y="7"/>
      <point x="97" y="0"/>
    </contour>
  </outline>
</glyph>
<glyph name="D" format="2">
  <advance width="665"/>
  <unicode hex="0044"/>
  <anchor x="328" y="0" name="bottom"/>
  <anchor x="151" y="321" name="center"/>
  <anchor x="296" y="633" name="top"/>
  <outline>
    <contour>
      <point x="111" y="0" type="curve" smooth="yes"/>
      <point x="352" y="0" type="line" smooth="yes"/>
      <point x="515" y="0"/>
      <point x="585" y="70"/>
      <point x="585" y="233" type="curve" smooth="yes"/>
      <point x="585" y="400" type="line" smooth="yes"/>
      <point x="585" y="563"/>
      <point x="515" y="633"/>
      <point x="352" y="633" type="curve" smooth="yes"/>
      <point x="111" y="633" type="line" smooth="yes"/>
      <point x="97" y="633"/>
      <point x="90" y="626"/>
      <point x="90" y="612" type="curve" smooth="yes"/>
      <point x="90" y="21" type="line" smooth="yes"/>
      <point x="90" y="7"/>
      <point x="97" y="0"/>
    </contour>
    <contour>
      <point x="132" y="42" type="line"/>
      <point x="132" y="591" type="line"/>
      <point x="352" y="591" type="line" smooth="yes"/>
      <point x="491" y="591"/>
      <point x="543" y="539"/>
      <point x="543" y="400" type="curve" smooth="yes"/>
      <point x="543" y="233" type="line" smooth="yes"/>
      <point x="543" y="94"/>
      <point x="491" y="42"/>
      <point x="352" y="42" type="curve" smooth="yes"/>
    </contour>
  </outline>
</glyph>
<glyph name="E" format="2">
  <advance width="547"/>
  <unicode hex="0045"/>
  <anchor x="299" y="0" name="bottom"/>
  <anchor x="488" y="0" name="ogonek"/>
  <anchor x="319" y="633" name="top"/>
  <anchor x="89" y="633" name="topleft"/>
  <outline>
    <contour>
      <point x="111" y="0" type="curve" smooth="yes"/>
      <point x="491" y="0" type="line" smooth="yes"/>
      <point x="505" y="0"/>
      <point x="512" y="7"/>
      <point x="512" y="21" type="curve" smooth="yes"/>
      <point x="512" y="35"/>
      <point x="505" y="42"/>
      <point x="491" y="42" type="curve" smooth="yes"/>
      <point x="132" y="42" type="line"/>
      <point x="132" y="591" type="line"/>
      <point x="491" y="591" type="line" smooth="yes"/>
      <point x="505" y="591"/>
      <point x="512" y="598"/>
      <point x="512" y="612" type="curve" smooth="yes"/>
      <point x="512" y="626"/>
      <point x="505" y="633"/>
      <point x="491" y="633" type="curve" smooth="yes"/>
      <point x="111" y="633" type="line" smooth="yes"/>
      <point x="97" y="633"/>
      <point x="90" y="626"/>
      <point x="90" y="612" type="curve" smooth="yes"/>
      <point x="90" y="21" type="line" smooth="yes"/>
      <point x="90" y="7"/>
      <point x="97" y="0"/>
    </contour>
    <contour>
      <point x="132" y="300" type="curve" smooth="yes"/>
      <point x="373" y="300" type="line" smooth="yes"/>
      <point x="387" y="300"/>
      <point x="394" y="307"/>
      <point x="394" y="321" type="curve" smooth="yes"/>
      <point x="394" y="335"/>
      <point x="387" y="342"/>
      <point x="373" y="342" type="curve" smooth="yes"/>
      <point x="132" y="342" type="line" smooth="yes"/>
      <point x="118" y="342"/>
      <point x="111" y="335"/>
      <point x="111" y="321" type="curve" smooth="yes"/>
      <point x="111" y="307"/>
      <point x="118" y="300"/>
    </contour>
  </outline>
</glyph>
<glyph name="F" format="2">
  <advance width="490"/>
  <unicode hex="0046"/>
  <anchor x="111" y="0" name="bottom"/>
  <anchor x="305" y="633" name="top"/>
  <outline>
    <contour>
      <point x="132" y="7"/>
      <point x="132" y="21" type="curve" smooth="yes"/>
      <point x="132" y="300" type="line"/>
      <point x="369" y="300" type="line" smooth="yes"/>
      <point x="383" y="300"/>
      <point x="390" y="307"/>
      <point x="390" y="321" type="curve" smooth="yes"/>
      <point x="390" y="335"/>
      <point x="383" y="342"/>
      <point x="369" y="342" type="curve" smooth="yes"/>
      <point x="132" y="342" type="line"/>
      <point x="132" y="591" type="line"/>
      <point x="469" y="591" type="line" smooth="yes"/>
      <point x="483" y="591"/>
      <point x="490" y="598"/>
      <point x="490" y="612" type="curve" smooth="yes"/>
      <point x="490" y="626"/>
      <point x="483" y="633"/>
      <point x="469" y="633" type="curve" smooth="yes"/>
      <point x="111" y="633" type="line" smooth="yes"/>
      <point x="97" y="633"/>
      <point x="90" y="626"/>
      <point x="90" y="612" type="curve" smooth="yes"/>
      <point x="90" y="21" type="line" smooth="yes"/>
      <point x="90" y="7"/>
      <point x="97" y="0"/>
      <point x="111" y="0" type="curve" smooth="yes"/>
      <point x="125" y="0"/>
    </contour>
  </outline>
</glyph>
<glyph name="G" format="2">
  <advance width="656"/>
  <unicode hex="0047"/>
  <anchor x="333" y="0" name="bottom"/>
  <anchor x="333" y="633" name="top"/>
  <outline>
    <contour>
      <point x="283" y="0" type="curve" smooth="yes"/>
      <point x="403" y="0" type="line" smooth="yes"/>
      <point x="532" y="0"/>
      <point x="586" y="54"/>
      <point x="586" y="183" type="curve" smooth="yes"/>
      <point x="586" y="272" type="line" smooth="yes"/>
      <point x="586" y="286"/>
      <point x="579" y="293"/>
      <point x="565" y="293" type="curve" smooth="yes"/>
      <point x="424" y="294" type="line" smooth="yes"/>
      <point x="410" y="294"/>
      <point x="403" y="287"/>
      <point x="403" y="273" type="curve" smooth="yes"/>
      <point x="403" y="259"/>
      <point x="410" y="252"/>
      <point x="424" y="252" type="curve" smooth="yes"/>
      <point x="544" y="251" type="line"/>
      <point x="544" y="183" type="line" smooth="yes"/>
      <point x="544" y="77"/>
      <point x="509" y="42"/>
      <point x="403" y="42" type="curve" smooth="yes"/>
      <point x="283" y="42" type="line" smooth="yes"/>
      <point x="165" y="42"/>
      <point x="122" y="85"/>
      <point x="122" y="203" type="curve" smooth="yes"/>
      <point x="122" y="430" type="line" smooth="yes"/>
      <point x="122" y="549"/>
      <point x="164" y="591"/>
      <point x="282" y="591" type="curve" smooth="yes"/>
      <point x="403" y="591" type="line" smooth="yes"/>
      <point x="501" y="591"/>
      <point x="539" y="561"/>
      <point x="543" y="471" type="curve" smooth="yes"/>
      <point x="544" y="457"/>
      <point x="551" y="450"/>
      <point x="565" y="450" type="curve" smooth="yes"/>
      <point x="579" y="450"/>
      <point x="586" y="458"/>
      <point x="585" y="472" type="curve" smooth="yes"/>
      <point x="580" y="585"/>
      <point x="525" y="633"/>
      <point x="403" y="633" type="curve" smooth="yes"/>
      <point x="282" y="633" type="line" smooth="yes"/>
      <point x="141" y="633"/>
      <point x="80" y="573"/>
      <point x="80" y="430" type="curve" smooth="yes"/>
      <point x="80" y="203" type="line" smooth="yes"/>
      <point x="80" y="61"/>
      <point x="141" y="0"/>
    </contour>
  </outline>
</glyph>
<glyph name="H" format="2">
  <advance width="687"/>
  <unicode hex="0048"/>
  <anchor x="344" y="0" name="bottom"/>
  <anchor x="344" y="461" name="center"/>
  <anchor x="344" y="633" name="top"/>
  <anchor x="90" y="633" name="topleft"/>
  <outline>
    <contour>
      <point x="132" y="7"/>
      <point x="132" y="21" type="curve" smooth="yes"/>
      <point x="132" y="300" type="line"/>
      <point x="555" y="300" type="line"/>
      <point x="555" y="21" type="line" smooth="yes"/>
      <point x="555" y="7"/>
      <point x="562" y="0"/>
      <point x="576" y="0" type="curve" smooth="yes"/>
      <point x="590" y="0"/>
      <point x="597" y="7"/>
      <point x="597" y="21" type="curve" smooth="yes"/>
      <point x="597" y="612" type="line" smooth="yes"/>
      <point x="597" y="626"/>
      <point x="590" y="633"/>
      <point x="576" y="633" type="curve" smooth="yes"/>
      <point x="562" y="633"/>
      <point x="555" y="626"/>
      <point x="555" y="612" type="curve" smooth="yes"/>
      <point x="555" y="342" type="line"/>
      <point x="132" y="342" type="line"/>
      <point x="132" y="612" type="line" smooth="yes"/>
      <point x="132" y="626"/>
      <point x="125" y="633"/>
      <point x="111" y="633" type="curve" smooth="yes"/>
      <point x="97" y="633"/>
      <point x="90" y="626"/>
      <point x="90" y="612" type="curve" smooth="yes"/>
      <point x="90" y="21" type="line" smooth="yes"/>
      <point x="90" y="7"/>
      <point x="97" y="0"/>
      <point x="111" y="0" type="curve" smooth="yes"/>
      <point x="125" y="0"/>
    </contour>
  </outline>
</glyph>
<glyph name="I" format="2">
  <advance width="222"/>
  <unicode hex="0049"/>
  <anchor x="111" y="0" name="bottom"/>
  <anchor x="111" y="0" name="ogonek"/>
  <anchor x="111" y="633" name="top"/>
  <anchor x="90" y="633" name="topleft"/>
  <outline>
    <contour>
      <point x="132" y="9"/>
      <point x="132" y="21" type="curve" smooth="yes"/>
      <point x="132" y="613" type="line" smooth="yes"/>
      <point x="132" y="625"/>
      <point x="123" y="634"/>
      <point x="111" y="634" type="curve" smooth="yes"/>
      <point x="99" y="634"/>
      <point x="90" y="625"/>
      <point x="90" y="613" type="curve" smooth="yes"/>
      <point x="90" y="21" type="line" smooth="yes"/>
      <point x="90" y="9"/>
      <point x="99" y="0"/>
      <point x="111" y="0" type="curve" smooth="yes"/>
      <point x="123" y="0"/>
    </contour>
  </outline>
</glyph>
<glyph name="J" format="2">
  <advance width="494"/>
  <unicode hex="004A"/>
  <anchor x="219" y="0" name="bottom"/>
  <anchor x="391" y="633" name="top"/>
  <outline>
    <contour>
      <point x="204" y="0" type="curve" smooth="yes"/>
      <point x="231" y="0" type="line" smooth="yes"/>
      <point x="360" y="0"/>
      <point x="414" y="54"/>
      <point x="414" y="183" type="curve" smooth="yes"/>
      <point x="414" y="612" type="line" smooth="yes"/>
      <point x="414" y="626"/>
      <point x="407" y="633"/>
      <point x="393" y="633" type="curve" smooth="yes"/>
      <point x="379" y="633"/>
      <point x="372" y="626"/>
      <point x="372" y="612" type="curve" smooth="yes"/>
      <point x="372" y="183" type="line" smooth="yes"/>
      <point x="372" y="77"/>
      <point x="337" y="42"/>
      <point x="231" y="42" type="curve" smooth="yes"/>
      <point x="204" y="42" type="line" smooth="yes"/>
      <point x="106" y="42"/>
      <point x="68" y="72"/>
      <point x="64" y="162" type="curve" smooth="yes"/>
      <point x="63" y="176"/>
      <point x="56" y="183"/>
      <point x="42" y="183" type="curve" smooth="yes"/>
      <point x="28" y="183"/>
      <point x="21" y="175"/>
      <point x="22" y="161" type="curve" smooth="yes"/>
      <point x="27" y="48"/>
      <point x="82" y="0"/>
    </contour>
  </outline>
</glyph>
<glyph name="K" format="2">
  <advance width="539"/>
  <unicode hex="004B"/>
  <anchor x="273" y="0" name="bottom"/>
  <anchor x="263" y="633" name="top"/>
  <outline>
    <contour>
      <point x="120" y="236"/>
      <point x="130" y="245" type="curve" smooth="yes"/>
      <point x="473" y="596" type="line" smooth="yes"/>
      <point x="482" y="606"/>
      <point x="482" y="617"/>
      <point x="472" y="626" type="curve" smooth="yes"/>
      <point x="462" y="636"/>
      <point x="452" y="635"/>
      <point x="443" y="626" type="curve" smooth="yes"/>
      <point x="100" y="275" type="line" smooth="yes"/>
      <point x="90" y="265"/>
      <point x="90" y="254"/>
      <point x="100" y="245" type="curve" smooth="yes"/>
      <point x="110" y="235"/>
    </contour>
    <contour>
      <point x="132" y="7"/>
      <point x="132" y="21" type="curve" smooth="yes"/>
      <point x="132" y="612" type="line" smooth="yes"/>
      <point x="132" y="626"/>
      <point x="125" y="633"/>
      <point x="111" y="633" type="curve" smooth="yes"/>
      <point x="97" y="633"/>
      <point x="90" y="626"/>
      <point x="90" y="612" type="curve" smooth="yes"/>
      <point x="90" y="21" type="line" smooth="yes"/>
      <point x="90" y="7"/>
      <point x="97" y="0"/>
      <point x="111" y="0" type="curve" smooth="yes"/>
      <point x="125" y="0"/>
    </contour>
    <contour>
      <point x="522" y="20"/>
      <point x="513" y="31" type="curve" smooth="yes"/>
      <point x="241" y="368" type="line" smooth="yes"/>
      <point x="233" y="379"/>
      <point x="222" y="380"/>
      <point x="212" y="371" type="curve" smooth="yes"/>
      <point x="201" y="363"/>
      <point x="200" y="352"/>
      <point x="209" y="342" type="curve" smooth="yes"/>
      <point x="481" y="4" type="line" smooth="yes"/>
      <point x="489" y="-6"/>
      <point x="499" y="-8"/>
      <point x="510" y="1" type="curve" smooth="yes"/>
      <point x="521" y="10"/>
    </contour>
  </outline>
</glyph>
<glyph name="L" format="2">
  <advance width="486"/>
  <unicode hex="004C"/>
  <anchor x="274" y="0" name="bottom"/>
  <anchor x="136" y="317" name="center"/>
  <anchor x="111" y="633" name="top"/>
  <anchor x="212" y="416" name="topright"/>
  <outline>
    <contour>
      <point x="111" y="0" type="curve" smooth="yes"/>
      <point x="445" y="0" type="line" smooth="yes"/>
      <point x="459" y="0"/>
      <point x="466" y="7"/>
      <point x="466" y="21" type="curve" smooth="yes"/>
      <point x="466" y="35"/>
      <point x="459" y="42"/>
      <point x="445" y="42" type="curve" smooth="yes"/>
      <point x="132" y="42" type="line"/>
      <point x="132" y="612" type="line" smooth="yes"/>
      <point x="132" y="626"/>
      <point x="125" y="633"/>
      <point x="111" y="633" type="curve" smooth="yes"/>
      <point x="97" y="633"/>
      <point x="90" y="626"/>
      <point x="90" y="612" type="curve" smooth="yes"/>
      <point x="90" y="21" type="line" smooth="yes"/>
      <point x="90" y="7"/>
      <point x="97" y="0"/>
    </contour>
  </outline>
</glyph>
<glyph name="M" format="2">
  <advance width="767"/>
  <unicode hex="004D"/>
  <anchor x="384" y="0" name="bottom"/>
  <anchor x="384" y="633" name="top"/>
  <outline>
    <contour>
      <point x="132" y="7"/>
      <point x="132" y="21" type="curve" smooth="yes"/>
      <point x="132" y="561" type="line" smooth="yes"/>
      <point x="132" y="578"/>
      <point x="111" y="588"/>
      <point x="118" y="571" type="curve" smooth="yes"/>
      <point x="119" y="569"/>
      <point x="120" y="568"/>
      <point x="121" y="566" type="curve" smooth="yes"/>
      <point x="359" y="200" type="line" smooth="yes"/>
      <point x="365" y="190"/>
      <point x="373" y="186"/>
      <point x="384" y="186" type="curve" smooth="yes"/>
      <point x="395" y="186"/>
      <point x="403" y="190"/>
      <point x="409" y="200" type="curve" smooth="yes"/>
      <point x="647" y="566" type="line" smooth="yes"/>
      <point x="656" y="580"/>
      <point x="660" y="591"/>
      <point x="656" y="591" type="curve" smooth="yes"/>
      <point x="642" y="591"/>
      <point x="635" y="584"/>
      <point x="635" y="570" type="curve" smooth="yes"/>
      <point x="635" y="21" type="line" smooth="yes"/>
      <point x="635" y="7"/>
      <point x="642" y="0"/>
      <point x="656" y="0" type="curve" smooth="yes"/>
      <point x="670" y="0"/>
      <point x="677" y="7"/>
      <point x="677" y="21" type="curve" smooth="yes"/>
      <point x="677" y="612" type="line" smooth="yes"/>
      <point x="677" y="626"/>
      <point x="670" y="633"/>
      <point x="657" y="633" type="curve" smooth="yes"/>
      <point x="646" y="633"/>
      <point x="638" y="629"/>
      <point x="632" y="619" type="curve" smooth="yes"/>
      <point x="379" y="229" type="line"/>
      <point x="389" y="230" type="line"/>
      <point x="136" y="619" type="line" smooth="yes"/>
      <point x="130" y="629"/>
      <point x="122" y="633"/>
      <point x="111" y="633" type="curve" smooth="yes"/>
      <point x="97" y="633"/>
      <point x="90" y="626"/>
      <point x="90" y="612" type="curve" smooth="yes"/>
      <point x="90" y="21" type="line" smooth="yes"/>
      <point x="90" y="7"/>
      <point x="97" y="0"/>
      <point x="111" y="0" type="curve" smooth="yes"/>
      <point x="125" y="0"/>
    </contour>
  </outline>
</glyph>
<glyph name="N" format="2">
  <advance width="687"/>
  <unicode hex="004E"/>
  <anchor x="353" y="0" name="bottom"/>
  <anchor x="353" y="633" name="top"/>
  <outline>
    <contour>
      <point x="132" y="7"/>
      <point x="132" y="21" type="curve" smooth="yes"/>
      <point x="132" y="560" type="line"/>
      <point x="123" y="565" type="line"/>
      <point x="554" y="12" type="line" smooth="yes"/>
      <point x="561" y="4"/>
      <point x="567" y="0"/>
      <point x="576" y="0" type="curve" smooth="yes"/>
      <point x="590" y="0"/>
      <point x="597" y="7"/>
      <point x="597" y="21" type="curve" smooth="yes"/>
      <point x="597" y="612" type="line" smooth="yes"/>
      <point x="597" y="626"/>
      <point x="590" y="633"/>
      <point x="576" y="633" type="curve" smooth="yes"/>
      <point x="562" y="633"/>
      <point x="555" y="626"/>
      <point x="555" y="612" type="curve" smooth="yes"/>
      <point x="555" y="73" type="line"/>
      <point x="564" y="68" type="line"/>
      <point x="133" y="621" type="line" smooth="yes"/>
      <point x="126" y="629"/>
      <point x="120" y="633"/>
      <point x="111" y="633" type="curve" smooth="yes"/>
      <point x="97" y="633"/>
      <point x="90" y="626"/>
      <point x="90" y="612" type="curve" smooth="yes"/>
      <point x="90" y="21" type="line" smooth="yes"/>
      <point x="90" y="7"/>
      <point x="97" y="0"/>
      <point x="111" y="0" type="curve" smooth="yes"/>
      <point x="125" y="0"/>
    </contour>
  </outline>
</glyph>
<glyph name="O" format="2">
  <advance width="686"/>
  <unicode hex="004F"/>
  <anchor x="343" y="0" name="bottom"/>
  <anchor x="343" y="317" name="center"/>
  <anchor x="508" y="20" name="ogonek"/>
  <anchor x="343" y="633" name="top"/>
  <anchor x="80" y="633" name="topleft"/>
  <anchor x="533" y="604" name="topright"/>
  <outline>
    <contour>
      <point x="283" y="0" type="curve" smooth="yes"/>
      <point x="403" y="0" type="line" smooth="yes"/>
      <point x="545" y="0"/>
      <point x="606" y="61"/>
      <point x="606" y="203" type="curve" smooth="yes"/>
      <point x="606" y="430" type="line" smooth="yes"/>
      <point x="606" y="572"/>
      <point x="545" y="633"/>
      <point x="403" y="633" type="curve" smooth="yes"/>
      <point x="282" y="633" type="line" smooth="yes"/>
      <point x="141" y="634"/>
      <point x="80" y="573"/>
      <point x="80" y="430" type="curve" smooth="yes"/>
      <point x="80" y="203" type="line" smooth="yes"/>
      <point x="80" y="61"/>
      <point x="141" y="0"/>
    </contour>
    <contour>
      <point x="122" y="85"/>
      <point x="122" y="203" type="curve" smooth="yes"/>
      <point x="122" y="430" type="line" smooth="yes"/>
      <point x="122" y="549"/>
      <point x="164" y="592"/>
      <point x="282" y="591" type="curve" smooth="yes"/>
      <point x="403" y="591" type="line" smooth="yes"/>
      <point x="521" y="591"/>
      <point x="564" y="548"/>
      <point x="564" y="430" type="curve" smooth="yes"/>
      <point x="564" y="203" type="line" smooth="yes"/>
      <point x="564" y="85"/>
      <point x="521" y="42"/>
      <point x="403" y="42" type="curve" smooth="yes"/>
      <point x="283" y="42" type="line" smooth="yes"/>
      <point x="165" y="42"/>
    </contour>
  </outline>
</glyph>
<glyph name="P" format="2">
  <advance width="543"/>
  <unicode hex="0050"/>
  <anchor x="110" y="0" name="bottom"/>
  <anchor x="270" y="633" name="top"/>
  <outline>
    <contour>
      <point x="132" y="7"/>
      <point x="132" y="21" type="curve" smooth="yes"/>
      <point x="132" y="591" type="line"/>
      <point x="345" y="591" type="line" smooth="yes"/>
      <point x="432" y="591"/>
      <point x="471" y="552"/>
      <point x="471" y="465" type="curve" smooth="yes"/>
      <point x="471" y="435" type="line" smooth="yes"/>
      <point x="471" y="348"/>
      <point x="432" y="309"/>
      <point x="345" y="309" type="curve" smooth="yes"/>
      <point x="132" y="309" type="line" smooth="yes"/>
      <point x="118" y="309"/>
      <point x="111" y="302"/>
      <point x="111" y="288" type="curve" smooth="yes"/>
      <point x="111" y="274"/>
      <point x="118" y="267"/>
      <point x="132" y="267" type="curve" smooth="yes"/>
      <point x="345" y="267" type="line" smooth="yes"/>
      <point x="456" y="267"/>
      <point x="513" y="324"/>
      <point x="513" y="435" type="curve" smooth="yes"/>
      <point x="513" y="465" type="line" smooth="yes"/>
      <point x="513" y="576"/>
      <point x="456" y="633"/>
      <point x="345" y="633" type="curve" smooth="yes"/>
      <point x="111" y="633" type="line" smooth="yes"/>
      <point x="97" y="633"/>
      <point x="90" y="626"/>
      <point x="90" y="612" type="curve" smooth="yes"/>
      <point x="90" y="21" type="line" smooth="yes"/>
      <point x="90" y="7"/>
      <point x="97" y="0"/>
      <point x="111" y="0" type="curve" smooth="yes"/>
      <point x="125" y="0"/>
    </contour>
  </outline>
</glyph>
<glyph name="Q" format="2">
  <advance width="686"/>
  <unicode hex="0051"/>
  <anchor x="343" y="0" name="bottom"/>
  <anchor x="343" y="633" name="top"/>
  <anchor x="343" y="317" name="center"/>
  <anchor x="508" y="20" name="ogonek"/>
  <anchor x="80" y="633" name="topleft"/>
  <anchor x="533" y="604" name="topright"/>
  <outline>
    <contour>
      <point x="608" y="-8"/>
      <point x="598" y="2" type="curve" smooth="yes"/>
      <point x="477" y="125" type="line" smooth="yes"/>
      <point x="467" y="135"/>
      <point x="457" y="135"/>
      <point x="447" y="125" type="curve" smooth="yes"/>
      <point x="437" y="115"/>
      <point x="437" y="105"/>
      <point x="447" y="95" type="curve" smooth="yes"/>
      <point x="568" y="-28" type="line" smooth="yes"/>
      <point x="578" y="-38"/>
      <point x="588" y="-38"/>
      <point x="598" y="-28" type="curve" smooth="yes"/>
      <point x="608" y="-18"/>
    </contour>
    <component base="O"/>
  </outline>
</glyph>
<glyph name="R" format="2">
  <advance width="582"/>
  <unicode hex="0052"/>
  <anchor x="291" y="0" name="bottom"/>
  <anchor x="291" y="633" name="top"/>
  <outline>
    <contour>
      <point x="540" y="16"/>
      <point x="532" y="28" type="curve" smooth="yes"/>
      <point x="363" y="294" type="line"/>
      <point x="356" y="306"/>
      <point x="346" y="308"/>
      <point x="334" y="301" type="curve" smooth="yes"/>
      <point x="322" y="294"/>
      <point x="320" y="284"/>
      <point x="327" y="272" type="curve"/>
      <point x="497" y="5" type="line" smooth="yes"/>
      <point x="504" y="-6"/>
      <point x="514" y="-8"/>
      <point x="526" y="-1" type="curve" smooth="yes"/>
      <point x="538" y="6"/>
    </contour>
    <component base="P"/>
  </outline>
</glyph>
<glyph name="S" format="2">
  <advance width="652"/>
  <unicode hex="0053"/>
  <anchor x="326" y="0" name="bottom"/>
  <anchor x="326" y="633" name="top"/>
  <outline>
    <contour>
      <point x="254" y="1" type="curve" smooth="yes"/>
      <point x="398" y="1" type="line" smooth="yes"/>
      <point x="519" y="1"/>
      <point x="572" y="54"/>
      <point x="572" y="174" type="curve" smooth="yes"/>
      <point x="572" y="294"/>
      <point x="519" y="347"/>
      <point x="398" y="347" type="curve" smooth="yes"/>
      <point x="257" y="347" type="line" smooth="yes"/>
      <point x="166" y="347"/>
      <point x="134" y="379"/>
      <point x="134" y="469" type="curve" smooth="yes"/>
      <point x="134" y="559"/>
      <point x="166" y="591"/>
      <point x="256" y="591" type="curve" smooth="yes"/>
      <point x="403" y="591" type="line" smooth="yes"/>
      <point x="493" y="591"/>
      <point x="525" y="559"/>
      <point x="525" y="470" type="curve" smooth="yes"/>
      <point x="525" y="458"/>
      <point x="534" y="449"/>
      <point x="546" y="449" type="curve" smooth="yes"/>
      <point x="558" y="449"/>
      <point x="567" y="458"/>
      <point x="567" y="470" type="curve" smooth="yes"/>
      <point x="567" y="583"/>
      <point x="517" y="633"/>
      <point x="403" y="633" type="curve" smooth="yes"/>
      <point x="256" y="633" type="line" smooth="yes"/>
      <point x="142" y="633"/>
      <point x="92" y="583"/>
      <point x="92" y="469" type="curve" smooth="yes"/>
      <point x="92" y="355"/>
      <point x="142" y="305"/>
      <point x="257" y="305" type="curve" smooth="yes"/>
      <point x="398" y="305" type="line" smooth="yes"/>
      <point x="496" y="305"/>
      <point x="530" y="271"/>
      <point x="530" y="174" type="curve" smooth="yes"/>
      <point x="530" y="77"/>
      <point x="496" y="43"/>
      <point x="398" y="43" type="curve" smooth="yes"/>
      <point x="254" y="43" type="line" smooth="yes"/>
      <point x="156" y="43"/>
      <point x="122" y="77"/>
      <point x="122" y="174" type="curve" smooth="yes"/>
      <point x="122" y="186"/>
      <point x="113" y="195"/>
      <point x="101" y="195" type="curve" smooth="yes"/>
      <point x="89" y="195"/>
      <point x="80" y="186"/>
      <point x="80" y="174" type="curve" smooth="yes"/>
      <point x="80" y="54"/>
      <point x="133" y="1"/>
    </contour>
  </outline>
</glyph>
<glyph name="T" format="2">
  <advance width="552"/>
  <unicode hex="0054"/>
  <anchor x="256" y="0" name="bottom"/>
  <anchor x="276" y="317" name="center"/>
  <anchor x="276" y="633" name="top"/>
  <outline>
    <contour>
      <point x="297" y="8"/>
      <point x="297" y="20" type="curve" smooth="yes"/>
      <point x="297" y="592" type="line"/>
      <point x="516" y="592" type="line" smooth="yes"/>
      <point x="528" y="592"/>
      <point x="537" y="601"/>
      <point x="537" y="613" type="curve" smooth="yes"/>
      <point x="537" y="625"/>
      <point x="528" y="634"/>
      <point x="516" y="634" type="curve" smooth="yes"/>
      <point x="36" y="634" type="line" smooth="yes"/>
      <point x="24" y="634"/>
      <point x="15" y="625"/>
      <point x="15" y="613" type="curve" smooth="yes"/>
      <point x="15" y="601"/>
      <point x="24" y="592"/>
      <point x="36" y="592" type="curve" smooth="yes"/>
      <point x="255" y="592" type="line"/>
      <point x="255" y="20" type="line" smooth="yes"/>
      <point x="255" y="8"/>
      <point x="264" y="-1"/>
      <point x="276" y="-1" type="curve" smooth="yes"/>
      <point x="288" y="-1"/>
    </contour>
  </outline>
</glyph>
<glyph name="U" format="2">
  <advance width="686"/>
  <unicode hex="0055"/>
  <anchor x="343" y="0" name="bottom"/>
  <anchor x="556" y="59" name="ogonek"/>
  <anchor x="343" y="633" name="top"/>
  <anchor x="585" y="633" name="topright"/>
  <outline>
    <contour>
      <point x="283" y="0" type="curve" smooth="yes"/>
      <point x="403" y="0" type="line" smooth="yes"/>
      <point x="545" y="0"/>
      <point x="606" y="61"/>
      <point x="606" y="203" type="curve" smooth="yes"/>
      <point x="606" y="612" type="line" smooth="yes"/>
      <point x="606" y="624"/>
      <point x="597" y="633"/>
      <point x="585" y="633" type="curve" smooth="yes"/>
      <point x="573" y="633"/>
      <point x="564" y="624"/>
      <point x="564" y="612" type="curve" smooth="yes"/>
      <point x="564" y="203" type="line" smooth="yes"/>
      <point x="564" y="85"/>
      <point x="521" y="42"/>
      <point x="403" y="42" type="curve" smooth="yes"/>
      <point x="283" y="42" type="line" smooth="yes"/>
      <point x="165" y="42"/>
      <point x="122" y="85"/>
      <point x="122" y="203" type="curve" smooth="yes"/>
      <point x="122" y="612" type="line" smooth="yes"/>
      <point x="122" y="624"/>
      <point x="113" y="633"/>
      <point x="101" y="633" type="curve" smooth="yes"/>
      <point x="89" y="633"/>
      <point x="80" y="624"/>
      <point x="80" y="612" type="curve" smooth="yes"/>
      <point x="80" y="203" type="line" smooth="yes"/>
      <point x="80" y="61"/>
      <point x="141" y="0"/>
    </contour>
  </outline>
</glyph>
<glyph name="V" format="2">
  <advance width="597"/>
  <unicode hex="0056"/>
  <anchor x="298" y="0" name="bottom"/>
  <anchor x="298" y="633" name="top"/>
  <outline>
    <contour>
      <point x="295" y="0" type="curve"/>
      <point x="301" y="0" type="line"/>
      <point x="310" y="0"/>
      <point x="317" y="5"/>
      <point x="320" y="13" type="curve" smooth="yes"/>
      <point x="584" y="603" type="line" smooth="yes"/>
      <point x="592" y="621"/>
      <point x="580" y="633"/>
      <point x="565" y="633" type="curve" smooth="yes"/>
      <point x="556" y="633"/>
      <point x="549" y="628"/>
      <point x="546" y="620" type="curve" smooth="yes"/>
      <point x="298" y="66" type="line"/>
      <point x="50" y="620" type="line" smooth="yes"/>
      <point x="47" y="628"/>
      <point x="40" y="633"/>
      <point x="31" y="633" type="curve" smooth="yes"/>
      <point x="18" y="633"/>
      <point x="4" y="621"/>
      <point x="12" y="603" type="curve" smooth="yes"/>
      <point x="276" y="13" type="line" smooth="yes"/>
      <point x="279" y="5"/>
      <point x="286" y="0"/>
    </contour>
  </outline>
</glyph>
<glyph name="W" format="2">
  <advance width="840"/>
  <unicode hex="0057"/>
  <anchor x="420" y="0" name="bottom"/>
  <anchor x="420" y="633" name="top"/>
  <outline>
    <contour>
      <point x="226" y="0" type="curve" smooth="yes"/>
      <point x="238" y="0"/>
      <point x="247" y="1"/>
      <point x="251" y="15" type="curve" smooth="yes"/>
      <point x="426" y="576" type="line"/>
      <point x="414" y="576" type="line"/>
      <point x="589" y="15" type="line" smooth="yes"/>
      <point x="592" y="5"/>
      <point x="598" y="0"/>
      <point x="611" y="0" type="curve" smooth="yes"/>
      <point x="613" y="0" type="line" smooth="yes"/>
      <point x="625" y="0"/>
      <point x="632" y="5"/>
      <point x="635" y="15" type="curve" smooth="yes"/>
      <point x="829" y="605" type="line" smooth="yes"/>
      <point x="833" y="617"/>
      <point x="829" y="633"/>
      <point x="809" y="633" type="curve" smooth="yes"/>
      <point x="799" y="633"/>
      <point x="792" y="628"/>
      <point x="789" y="618" type="curve" smooth="yes"/>
      <point x="606" y="62" type="line"/>
      <point x="618" y="62" type="line"/>
      <point x="445" y="618" type="line" smooth="yes"/>
      <point x="442" y="629"/>
      <point x="431" y="634"/>
      <point x="420" y="634" type="curve" smooth="yes"/>
      <point x="409" y="634"/>
      <point x="398" y="629"/>
      <point x="395" y="618" type="curve" smooth="yes"/>
      <point x="222" y="62" type="line"/>
      <point x="234" y="62" type="line"/>
      <point x="51" y="618" type="line" smooth="yes"/>
      <point x="48" y="628"/>
      <point x="41" y="633"/>
      <point x="31" y="633" type="curve" smooth="yes"/>
      <point x="15" y="633"/>
      <point x="7" y="617"/>
      <point x="11" y="605" type="curve" smooth="yes"/>
      <point x="205" y="15" type="line" smooth="yes"/>
      <point x="208" y="5"/>
      <point x="215" y="0"/>
    </contour>
  </outline>
</glyph>
<glyph name="X" format="2">
  <advance width="559"/>
  <unicode hex="0058"/>
  <anchor x="272" y="0" name="bottom"/>
  <anchor x="270" y="633" name="top"/>
  <outline>
    <contour>
      <point x="64" y="-1"/>
      <point x="72" y="11" type="curve" smooth="yes"/>
      <point x="270" y="299" type="line"/>
      <point x="478" y="10" type="line" smooth="yes"/>
      <point x="486" y="-1"/>
      <point x="496" y="-3"/>
      <point x="507" y="5" type="curve" smooth="yes"/>
      <point x="518" y="13"/>
      <point x="520" y="23"/>
      <point x="512" y="34" type="curve" smooth="yes"/>
      <point x="299" y="331" type="line"/>
      <point x="496" y="599" type="line" smooth="yes"/>
      <point x="504" y="610"/>
      <point x="503" y="620"/>
      <point x="492" y="628" type="curve" smooth="yes"/>
      <point x="481" y="636"/>
      <point x="470" y="635"/>
      <point x="462" y="624" type="curve" smooth="yes"/>
      <point x="272" y="368" type="line"/>
      <point x="90" y="623" type="line" smooth="yes"/>
      <point x="82" y="634"/>
      <point x="71" y="636"/>
      <point x="60" y="628" type="curve" smooth="yes"/>
      <point x="49" y="620"/>
      <point x="47" y="610"/>
      <point x="55" y="599" type="curve" smooth="yes"/>
      <point x="244" y="335" type="line"/>
      <point x="37" y="34" type="line" smooth="yes"/>
      <point x="30" y="23"/>
      <point x="32" y="13"/>
      <point x="43" y="5" type="curve" smooth="yes"/>
      <point x="54" y="-3"/>
    </contour>
  </outline>
</glyph>
<glyph name="Y" format="2">
  <advance width="515"/>
  <unicode hex="0059"/>
  <anchor x="259" y="0" name="bottom"/>
  <anchor x="259" y="633" name="top"/>
  <anchor x="24" y="633" name="topleft"/>
  <outline>
    <contour>
      <point x="472" y="634"/>
      <point x="465" y="623" type="curve" smooth="yes"/>
      <point x="257" y="295" type="line"/>
      <point x="50" y="622" type="line"/>
      <point x="43" y="634"/>
      <point x="32" y="636"/>
      <point x="21" y="629" type="curve" smooth="yes"/>
      <point x="9" y="621"/>
      <point x="7" y="611"/>
      <point x="14" y="600" type="curve"/>
      <point x="236" y="250" type="line"/>
      <point x="236" y="21" type="line" smooth="yes"/>
      <point x="236" y="7"/>
      <point x="243" y="0"/>
      <point x="257" y="0" type="curve" smooth="yes"/>
      <point x="271" y="0"/>
      <point x="278" y="7"/>
      <point x="278" y="21" type="curve" smooth="yes"/>
      <point x="278" y="250" type="line"/>
      <point x="500" y="600" type="line"/>
      <point x="508" y="612"/>
      <point x="506" y="622"/>
      <point x="494" y="629" type="curve" smooth="yes"/>
      <point x="482" y="636"/>
    </contour>
  </outline>
</glyph>
<glyph name="Z" format="2">
  <advance width="595"/>
  <unicode hex="005A"/>
  <anchor x="309" y="0" name="bottom"/>
  <anchor x="318" y="633" name="top"/>
  <outline>
    <contour>
      <point x="80" y="0" type="curve" smooth="yes"/>
      <point x="413" y="0" type="line" smooth="yes"/>
      <point x="500" y="0"/>
      <point x="549" y="41"/>
      <point x="555" y="121" type="curve" smooth="yes"/>
      <point x="556" y="135"/>
      <point x="548" y="143"/>
      <point x="534" y="143" type="curve" smooth="yes"/>
      <point x="521" y="143"/>
      <point x="514" y="136"/>
      <point x="513" y="122" type="curve"/>
      <point x="507" y="66"/>
      <point x="476" y="42"/>
      <point x="413" y="42" type="curve" smooth="yes"/>
      <point x="97" y="42" type="line"/>
      <point x="107" y="23" type="line"/>
      <point x="524" y="584" type="line" smooth="yes"/>
      <point x="531" y="593"/>
      <point x="533" y="600"/>
      <point x="533" y="612" type="curve" smooth="yes"/>
      <point x="533" y="626"/>
      <point x="526" y="633"/>
      <point x="512" y="633" type="curve" smooth="yes"/>
      <point x="182" y="633" type="line" smooth="yes"/>
      <point x="95" y="633"/>
      <point x="46" y="592"/>
      <point x="40" y="512" type="curve" smooth="yes"/>
      <point x="39" y="498"/>
      <point x="47" y="490"/>
      <point x="60" y="490" type="curve" smooth="yes"/>
      <point x="74" y="490"/>
      <point x="81" y="497"/>
      <point x="82" y="511" type="curve"/>
      <point x="88" y="567"/>
      <point x="119" y="591"/>
      <point x="182" y="591" type="curve" smooth="yes"/>
      <point x="497" y="591" type="line"/>
      <point x="484" y="601" type="line"/>
      <point x="68" y="47" type="line" smooth="yes"/>
      <point x="61" y="37"/>
      <point x="57" y="31"/>
      <point x="57" y="21" type="curve" smooth="yes"/>
      <point x="57" y="7"/>
      <point x="65" y="0"/>
    </contour>
  </outline>
</glyph>
<glyph name="bracketleft" format="2">
  <advance width="186"/>
  <unicode hex="005B"/>
  <outline>
    <contour>
      <point x="71" y="-161" type="curve" smooth="yes"/>
      <point x="155" y="-161" type="line" smooth="yes"/>
      <point x="167" y="-161"/>
      <point x="176" y="-152"/>
      <point x="176" y="-140" type="curve" smooth="yes"/>
      <point x="176" y="-128"/>
      <point x="167" y="-119"/>
      <point x="155" y="-119" type="curve" smooth="yes"/>
      <point x="92" y="-119" type="line"/>
      <point x="92" y="622" type="line"/>
      <point x="155" y="622" type="line" smooth="yes"/>
      <point x="167" y="622"/>
      <point x="176" y="631"/>
      <point x="176" y="643" type="curve" smooth="yes"/>
      <point x="176" y="655"/>
      <point x="167" y="664"/>
      <point x="155" y="664" type="curve" smooth="yes"/>
      <point x="71" y="664" type="line" smooth="yes"/>
      <point x="57" y="664"/>
      <point x="50" y="657"/>
      <point x="50" y="643" type="curve" smooth="yes"/>
      <point x="50" y="-140" type="line" smooth="yes"/>
      <point x="50" y="-154"/>
      <point x="57" y="-161"/>
    </contour>
  </outline>
</glyph>
<glyph name="asciicircum" format="2">
  <advance width="372"/>
  <unicode hex="005E"/>
  <outline>
    <contour>
      <point x="108" y="424"/>
      <point x="111" y="432" type="curve" smooth="yes"/>
      <point x="186" y="626" type="line"/>
      <point x="261" y="432" type="line" smooth="yes"/>
      <point x="264" y="424"/>
      <point x="272" y="418"/>
      <point x="281" y="418" type="curve" smooth="yes"/>
      <point x="293" y="418"/>
      <point x="302" y="427"/>
      <point x="302" y="439" type="curve" smooth="yes"/>
      <point x="302" y="442"/>
      <point x="301" y="445"/>
      <point x="300" y="447" type="curve" smooth="yes"/>
      <point x="221" y="652" type="line" smooth="yes"/>
      <point x="216" y="664"/>
      <point x="209" y="669"/>
      <point x="197" y="669" type="curve" smooth="yes"/>
      <point x="175" y="669" type="line" smooth="yes"/>
      <point x="163" y="669"/>
      <point x="156" y="664"/>
      <point x="151" y="652" type="curve" smooth="yes"/>
      <point x="72" y="447" type="line" smooth="yes"/>
      <point x="71" y="445"/>
      <point x="70" y="442"/>
      <point x="70" y="439" type="curve" smooth="yes"/>
      <point x="70" y="427"/>
      <point x="79" y="418"/>
      <point x="91" y="418" type="curve" smooth="yes"/>
      <point x="100" y="418"/>
    </contour>
  </outline>
</glyph>
<glyph name="grave" format="2">
  <advance width="233"/>
  <unicode hex="0060"/>
  <outline>
    <contour>
      <point x="175" y="523" type="curve" smooth="yes"/>
      <point x="185" y="532"/>
      <point x="186" y="542"/>
      <point x="178" y="553" type="curve"/>
      <point x="88" y="659" type="line" smooth="yes"/>
      <point x="79" y="670"/>
      <point x="68" y="671"/>
      <point x="58" y="662" type="curve" smooth="yes"/>
      <point x="48" y="653"/>
      <point x="47" y="643"/>
      <point x="55" y="632" type="curve"/>
      <point x="145" y="526" type="line" smooth="yes"/>
      <point x="154" y="515"/>
      <point x="165" y="514"/>
    </contour>
  </outline>
</glyph>
<glyph name="a" format="2">
  <advance width="571"/>
  <unicode hex="0061"/>
  <anchor x="284" y="0" name="bottom"/>
  <anchor x="468" y="0" name="ogonek"/>
  <anchor x="284" y="461" name="top"/>
  <outline>
    <contour>
      <point x="490" y="7"/>
      <point x="490" y="21" type="curve" smooth="yes"/>
      <point x="490" y="286" type="line" smooth="yes"/>
      <point x="490" y="408"/>
      <point x="437" y="461"/>
      <point x="315" y="461" type="curve" smooth="yes"/>
      <point x="257" y="461" type="line" smooth="yes"/>
      <point x="143" y="461"/>
      <point x="84" y="428"/>
      <point x="79" y="352" type="curve" smooth="yes"/>
      <point x="78" y="338"/>
      <point x="86" y="330"/>
      <point x="100" y="330" type="curve" smooth="yes"/>
      <point x="113" y="330"/>
      <point x="119" y="337"/>
      <point x="121" y="350" type="curve" smooth="yes"/>
      <point x="129" y="400"/>
      <point x="166" y="419"/>
      <point x="257" y="419" type="curve" smooth="yes"/>
      <point x="315" y="419" type="line" smooth="yes"/>
      <point x="413" y="419"/>
      <point x="448" y="384"/>
      <point x="448" y="286" type="curve" smooth="yes"/>
      <point x="448" y="21" type="line" smooth="yes"/>
      <point x="448" y="7"/>
      <point x="455" y="0"/>
      <point x="469" y="0" type="curve" smooth="yes"/>
      <point x="483" y="0"/>
    </contour>
    <contour>
      <point x="215" y="0" type="curve" smooth="yes"/>
      <point x="271" y="0" type="line" smooth="yes"/>
      <point x="391" y="0"/>
      <point x="460" y="53"/>
      <point x="469" y="150" type="curve" smooth="yes"/>
      <point x="469" y="164"/>
      <point x="469" y="172"/>
      <point x="468" y="172" type="curve" smooth="yes"/>
      <point x="455" y="172"/>
      <point x="448" y="165"/>
      <point x="447" y="152" type="curve" smooth="yes"/>
      <point x="438" y="79"/>
      <point x="380" y="42"/>
      <point x="271" y="42" type="curve" smooth="yes"/>
      <point x="215" y="42" type="line" smooth="yes"/>
      <point x="138" y="42"/>
      <point x="112" y="68"/>
      <point x="112" y="145" type="curve" smooth="yes"/>
      <point x="112" y="223"/>
      <point x="138" y="249"/>
      <point x="215" y="249" type="curve" smooth="yes"/>
      <point x="448" y="249" type="line" smooth="yes"/>
      <point x="462" y="249"/>
      <point x="469" y="256"/>
      <point x="469" y="270" type="curve" smooth="yes"/>
      <point x="469" y="284"/>
      <point x="462" y="291"/>
      <point x="448" y="291" type="curve" smooth="yes"/>
      <point x="215" y="291" type="line" smooth="yes"/>
      <point x="115" y="291"/>
      <point x="70" y="246"/>
      <point x="70" y="145" type="curve" smooth="yes"/>
      <point x="70" y="44"/>
      <point x="114" y="0"/>
    </contour>
  </outline>
</glyph>
<glyph name="b" format="2">
  <advance width="602"/>
  <unicode hex="0062"/>
  <anchor x="324" y="0" name="bottom"/>
  <anchor x="324" y="461" name="top"/>
  <outline>
    <contour>
      <point x="309" y="0" type="curve" smooth="yes"/>
      <point x="347" y="0" type="line" smooth="yes"/>
      <point x="469" y="0"/>
      <point x="522" y="53"/>
      <point x="522" y="175" type="curve" smooth="yes"/>
      <point x="522" y="287" type="line" smooth="yes"/>
      <point x="522" y="409"/>
      <point x="469" y="462"/>
      <point x="347" y="462" type="curve" smooth="yes"/>
      <point x="309" y="462" type="line" smooth="yes"/>
      <point x="177" y="462"/>
      <point x="121" y="410"/>
      <point x="111" y="313" type="curve" smooth="yes"/>
      <point x="110" y="299"/>
      <point x="98" y="291"/>
      <point x="112" y="291" type="curve" smooth="yes"/>
      <point x="125" y="291"/>
      <point x="132" y="298"/>
      <point x="132" y="311" type="curve" smooth="yes"/>
      <point x="132" y="384"/>
      <point x="200" y="420"/>
      <point x="309" y="420" type="curve" smooth="yes"/>
      <point x="347" y="420" type="line" smooth="yes"/>
      <point x="445" y="420"/>
      <point x="480" y="385"/>
      <point x="480" y="287" type="curve" smooth="yes"/>
      <point x="480" y="175" type="line" smooth="yes"/>
      <point x="480" y="77"/>
      <point x="445" y="42"/>
      <point x="347" y="42" type="curve" smooth="yes"/>
      <point x="309" y="42" type="line" smooth="yes"/>
      <point x="200" y="42"/>
      <point x="131" y="78"/>
      <point x="132" y="151" type="curve" smooth="yes"/>
      <point x="132" y="164"/>
      <point x="125" y="171"/>
      <point x="112" y="171" type="curve" smooth="yes"/>
      <point x="98" y="171"/>
      <point x="110" y="163"/>
      <point x="111" y="149" type="curve" smooth="yes"/>
      <point x="121" y="52"/>
      <point x="177" y="0"/>
    </contour>
    <contour>
      <point x="132" y="7"/>
      <point x="132" y="21" type="curve" smooth="yes"/>
      <point x="132" y="669" type="line" smooth="yes"/>
      <point x="132" y="683"/>
      <point x="125" y="690"/>
      <point x="111" y="690" type="curve" smooth="yes"/>
      <point x="97" y="690"/>
      <point x="90" y="683"/>
      <point x="90" y="669" type="curve" smooth="yes"/>
      <point x="90" y="21" type="line" smooth="yes"/>
      <point x="90" y="7"/>
      <point x="97" y="0"/>
      <point x="111" y="0" type="curve" smooth="yes"/>
      <point x="125" y="0"/>
    </contour>
  </outline>
</glyph>
<glyph name="c" format="2">
  <advance width="551"/>
  <unicode hex="0063"/>
  <anchor x="298" y="0" name="bottom"/>
  <anchor x="298" y="461" name="top"/>
  <outline>
    <contour>
      <point x="255" y="0" type="curve" smooth="yes"/>
      <point x="337" y="0" type="line" smooth="yes"/>
      <point x="435" y="0"/>
      <point x="483" y="32"/>
      <point x="491" y="103" type="curve" smooth="yes"/>
      <point x="492" y="117"/>
      <point x="484" y="125"/>
      <point x="470" y="125" type="curve" smooth="yes"/>
      <point x="457" y="125"/>
      <point x="451" y="118"/>
      <point x="449" y="105" type="curve" smooth="yes"/>
      <point x="443" y="59"/>
      <point x="412" y="42"/>
      <point x="337" y="42" type="curve" smooth="yes"/>
      <point x="255" y="42" type="line" smooth="yes"/>
      <point x="157" y="42"/>
      <point x="122" y="77"/>
      <point x="122" y="175" type="curve" smooth="yes"/>
      <point x="122" y="287" type="line"/>
      <point x="122" y="386"/>
      <point x="157" y="420"/>
      <point x="255" y="419" type="curve" smooth="yes"/>
      <point x="337" y="419" type="line" smooth="yes"/>
      <point x="412" y="419"/>
      <point x="443" y="402"/>
      <point x="449" y="356" type="curve" smooth="yes"/>
      <point x="451" y="343"/>
      <point x="457" y="336"/>
      <point x="470" y="336" type="curve" smooth="yes"/>
      <point x="484" y="336"/>
      <point x="492" y="344"/>
      <point x="491" y="358" type="curve" smooth="yes"/>
      <point x="483" y="429"/>
      <point x="435" y="461"/>
      <point x="337" y="461" type="curve" smooth="yes"/>
      <point x="255" y="461" type="line" smooth="yes"/>
      <point x="133" y="462"/>
      <point x="80" y="409"/>
      <point x="80" y="287" type="curve" smooth="yes"/>
      <point x="80" y="175" type="line" smooth="yes"/>
      <point x="80" y="53"/>
      <point x="133" y="0"/>
    </contour>
  </outline>
</glyph>
<glyph name="d" format="2">
  <advance width="593"/>
  <unicode hex="0064"/>
  <anchor x="270" y="0" name="bottom"/>
  <anchor x="454" y="571" name="center"/>
  <anchor x="323" y="461" name="top"/>
  <anchor x="553" y="461" name="topright"/>
  <outline>
    <contour>
      <point x="255" y="0" type="curve" smooth="yes"/>
      <point x="293" y="0" type="line" smooth="yes"/>
      <point x="425" y="0"/>
      <point x="481" y="52"/>
      <point x="491" y="149" type="curve" smooth="yes"/>
      <point x="492" y="163"/>
      <point x="504" y="171"/>
      <point x="490" y="171" type="curve" smooth="yes"/>
      <point x="477" y="171"/>
      <point x="470" y="164"/>
      <point x="470" y="151" type="curve" smooth="yes"/>
      <point x="470" y="78"/>
      <point x="402" y="42"/>
      <point x="293" y="42" type="curve" smooth="yes"/>
      <point x="255" y="42" type="line" smooth="yes"/>
      <point x="157" y="42"/>
      <point x="122" y="77"/>
      <point x="122" y="175" type="curve" smooth="yes"/>
      <point x="122" y="286" type="line" smooth="yes"/>
      <point x="122" y="384"/>
      <point x="157" y="419"/>
      <point x="255" y="419" type="curve" smooth="yes"/>
      <point x="470" y="419" type="line" smooth="yes"/>
      <point x="484" y="419"/>
      <point x="491" y="426"/>
      <point x="491" y="440" type="curve" smooth="yes"/>
      <point x="491" y="454"/>
      <point x="484" y="461"/>
      <point x="470" y="461" type="curve" smooth="yes"/>
      <point x="255" y="461" type="line" smooth="yes"/>
      <point x="133" y="461"/>
      <point x="80" y="408"/>
      <point x="80" y="286" type="curve" smooth="yes"/>
      <point x="80" y="175" type="line" smooth="yes"/>
      <point x="80" y="53"/>
      <point x="133" y="0"/>
    </contour>
    <contour>
      <point x="512" y="7"/>
      <point x="512" y="21" type="curve" smooth="yes"/>
      <point x="512" y="669" type="line" smooth="yes"/>
      <point x="512" y="683"/>
      <point x="505" y="690"/>
      <point x="491" y="690" type="curve" smooth="yes"/>
      <point x="477" y="690"/>
      <point x="470" y="683"/>
      <point x="470" y="669" type="curve" smooth="yes"/>
      <point x="470" y="21" type="line" smooth="yes"/>
      <point x="470" y="7"/>
      <point x="477" y="0"/>
      <point x="491" y="0" type="curve" smooth="yes"/>
      <point x="505" y="0"/>
    </contour>
  </outline>
</glyph>
<glyph name="e" format="2">
  <advance width="592"/>
  <unicode hex="0065"/>
  <anchor x="304" y="0" name="bottom"/>
  <anchor x="471" y="44" name="ogonek"/>
  <anchor x="304" y="461" name="top"/>
  <outline>
    <contour>
      <point x="255" y="0" type="curve" smooth="yes"/>
      <point x="337" y="0" type="line" smooth="yes"/>
      <point x="449" y="0"/>
      <point x="504" y="38"/>
      <point x="511" y="123" type="curve" smooth="yes"/>
      <point x="512" y="137"/>
      <point x="504" y="145"/>
      <point x="491" y="145" type="curve" smooth="yes"/>
      <point x="477" y="145"/>
      <point x="470" y="138"/>
      <point x="469" y="124" type="curve" smooth="yes"/>
      <point x="463" y="64"/>
      <point x="427" y="42"/>
      <point x="337" y="42" type="curve" smooth="yes"/>
      <point x="255" y="42" type="line" smooth="yes"/>
      <point x="157" y="42"/>
      <point x="122" y="77"/>
      <point x="122" y="174" type="curve" smooth="yes"/>
      <point x="122" y="286" type="line" smooth="yes"/>
      <point x="122" y="385"/>
      <point x="157" y="420"/>
      <point x="255" y="419" type="curve" smooth="yes"/>
      <point x="337" y="419" type="line" smooth="yes"/>
      <point x="435" y="419"/>
      <point x="470" y="384"/>
      <point x="470" y="286" type="curve" smooth="yes"/>
      <point x="470" y="257" type="line"/>
      <point x="122" y="257" type="line" smooth="yes"/>
      <point x="108" y="257"/>
      <point x="100.997" y="250.002"/>
      <point x="101" y="236" type="curve" smooth="yes"/>
      <point x="101" y="223"/>
      <point x="108" y="215"/>
      <point x="122" y="215" type="curve" smooth="yes"/>
      <point x="491" y="215" type="line" smooth="yes"/>
      <point x="505" y="215"/>
      <point x="512" y="223"/>
      <point x="512" y="236" type="curve" smooth="yes"/>
      <point x="512" y="286" type="line"/>
      <point x="512" y="408"/>
      <point x="459" y="461"/>
      <point x="337" y="461" type="curve" smooth="yes"/>
      <point x="255" y="461" type="line" smooth="yes"/>
      <point x="133" y="462"/>
      <point x="80" y="409"/>
      <point x="80" y="286" type="curve" smooth="yes"/>
      <point x="80" y="174" type="line" smooth="yes"/>
      <point x="80" y="53"/>
      <point x="133" y="0"/>
    </contour>
  </outline>
</glyph>
<glyph name="f" format="2">
  <advance width="309"/>
  <unicode hex="0066"/>
  <anchor x="155" y="0" name="bottom"/>
  <anchor x="225" y="659" name="top"/>
  <outline>
    <contour>
      <point x="137" y="7"/>
      <point x="137" y="21" type="curve" smooth="yes"/>
      <point x="137" y="518" type="line"/>
      <point x="137" y="614"/>
      <point x="171" y="648"/>
      <point x="267" y="648" type="curve" smooth="yes"/>
      <point x="281" y="648"/>
      <point x="289" y="655"/>
      <point x="289" y="669" type="curve" smooth="yes"/>
      <point x="289" y="683"/>
      <point x="281" y="690"/>
      <point x="267" y="690" type="curve" smooth="yes"/>
      <point x="147" y="690"/>
      <point x="95" y="638"/>
      <point x="95" y="518" type="curve" smooth="yes"/>
      <point x="95" y="21" type="line" smooth="yes"/>
      <point x="95" y="7"/>
      <point x="102" y="0"/>
      <point x="116" y="0" type="curve" smooth="yes"/>
      <point x="130" y="0"/>
    </contour>
    <contour>
      <point x="51" y="419" type="curve" smooth="yes"/>
      <point x="268" y="419" type="line" smooth="yes"/>
      <point x="282" y="419"/>
      <point x="289" y="426"/>
      <point x="289" y="440" type="curve" smooth="yes"/>
      <point x="289" y="454"/>
      <point x="282" y="461"/>
      <point x="268" y="461" type="curve" smooth="yes"/>
      <point x="51" y="461" type="line" smooth="yes"/>
      <point x="37" y="461"/>
      <point x="30" y="454"/>
      <point x="30" y="440" type="curve" smooth="yes"/>
      <point x="30" y="426"/>
      <point x="37" y="419"/>
    </contour>
  </outline>
</glyph>
<glyph name="g" format="2">
  <advance width="593"/>
  <unicode hex="0067"/>
  <anchor x="289" y="-200" name="bottom"/>
  <anchor x="301" y="461" name="top"/>
  <outline>
    <contour>
      <point x="203" y="-200" type="curve" smooth="yes"/>
      <point x="389" y="-200" type="line" smooth="yes"/>
      <point x="474" y="-200"/>
      <point x="512" y="-162"/>
      <point x="512" y="-77" type="curve" smooth="yes"/>
      <point x="512" y="440" type="line" smooth="yes"/>
      <point x="512" y="454"/>
      <point x="505" y="461"/>
      <point x="491" y="461" type="curve" smooth="yes"/>
      <point x="477" y="461"/>
      <point x="470" y="454"/>
      <point x="470" y="440" type="curve" smooth="yes"/>
      <point x="470" y="-77" type="line" smooth="yes"/>
      <point x="470" y="-139"/>
      <point x="451" y="-158"/>
      <point x="389" y="-158" type="curve" smooth="yes"/>
      <point x="203" y="-158" type="line" smooth="yes"/>
      <point x="149" y="-158"/>
      <point x="127" y="-144"/>
      <point x="123" y="-98" type="curve" smooth="yes"/>
      <point x="122" y="-84"/>
      <point x="115" y="-77"/>
      <point x="101" y="-77" type="curve" smooth="yes"/>
      <point x="88" y="-77"/>
      <point x="80" y="-85"/>
      <point x="81" y="-99" type="curve" smooth="yes"/>
      <point x="87" y="-169"/>
      <point x="125" y="-200"/>
    </contour>
    <contour>
      <point x="255" y="0" type="curve" smooth="yes"/>
      <point x="293" y="0" type="line" smooth="yes"/>
      <point x="425" y="0"/>
      <point x="482" y="52"/>
      <point x="492" y="149" type="curve" smooth="yes"/>
      <point x="493" y="163"/>
      <point x="504" y="171"/>
      <point x="490" y="171" type="curve" smooth="yes"/>
      <point x="477" y="171"/>
      <point x="470" y="164"/>
      <point x="470" y="151" type="curve" smooth="yes"/>
      <point x="470" y="78"/>
      <point x="402" y="42"/>
      <point x="293" y="42" type="curve" smooth="yes"/>
      <point x="255" y="42" type="line" smooth="yes"/>
      <point x="157" y="42"/>
      <point x="122" y="77"/>
      <point x="122" y="174" type="curve" smooth="yes"/>
      <point x="122" y="286" type="line" smooth="yes"/>
      <point x="122" y="385"/>
      <point x="157" y="420"/>
      <point x="255" y="419" type="curve" smooth="yes"/>
      <point x="337" y="419" type="line" smooth="yes"/>
      <point x="428" y="419"/>
      <point x="470" y="389"/>
      <point x="470" y="307" type="curve" smooth="yes"/>
      <point x="470" y="293"/>
      <point x="477" y="286"/>
      <point x="491" y="286" type="curve" smooth="yes"/>
      <point x="504" y="286"/>
      <point x="493" y="294"/>
      <point x="492" y="308" type="curve" smooth="yes"/>
      <point x="486" y="414"/>
      <point x="451" y="461"/>
      <point x="337" y="461" type="curve" smooth="yes"/>
      <point x="255" y="461" type="line" smooth="yes"/>
      <point x="133" y="462"/>
      <point x="80" y="409"/>
      <point x="80" y="286" type="curve" smooth="yes"/>
      <point x="80" y="174" type="line" smooth="yes"/>
      <point x="80" y="53"/>
      <point x="133" y="0"/>
    </contour>
  </outline>
</glyph>
<glyph name="h" format="2">
  <advance width="593"/>
  <unicode hex="0068"/>
  <anchor x="316" y="0" name="bottom"/>
  <anchor x="151" y="571" name="center"/>
  <anchor x="114" y="673" name="top"/>
  <outline>
    <contour>
      <point x="512" y="7"/>
      <point x="512" y="21" type="curve" smooth="yes"/>
      <point x="512" y="287" type="line" smooth="yes"/>
      <point x="512" y="409"/>
      <point x="459" y="462"/>
      <point x="337" y="462" type="curve" smooth="yes"/>
      <point x="309" y="462" type="line" smooth="yes"/>
      <point x="189" y="462"/>
      <point x="120" y="410"/>
      <point x="111" y="313" type="curve" smooth="yes"/>
      <point x="111" y="299"/>
      <point x="111" y="291"/>
      <point x="112" y="291" type="curve" smooth="yes"/>
      <point x="125" y="291"/>
      <point x="132" y="298"/>
      <point x="133" y="311" type="curve" smooth="yes"/>
      <point x="142" y="384"/>
      <point x="200" y="420"/>
      <point x="309" y="420" type="curve" smooth="yes"/>
      <point x="337" y="420" type="line" smooth="yes"/>
      <point x="435" y="420"/>
      <point x="470" y="385"/>
      <point x="470" y="287" type="curve" smooth="yes"/>
      <point x="470" y="21" type="line" smooth="yes"/>
      <point x="470" y="7"/>
      <point x="477" y="0"/>
      <point x="491" y="0" type="curve" smooth="yes"/>
      <point x="505" y="0"/>
    </contour>
    <contour>
      <point x="132" y="7"/>
      <point x="132" y="21" type="curve" smooth="yes"/>
      <point x="132" y="669" type="line" smooth="yes"/>
      <point x="132" y="683"/>
      <point x="125" y="690"/>
      <point x="111" y="690" type="curve" smooth="yes"/>
      <point x="97" y="690"/>
      <point x="90" y="683"/>
      <point x="90" y="669" type="curve" smooth="yes"/>
      <point x="90" y="21" type="line" smooth="yes"/>
      <point x="90" y="7"/>
      <point x="97" y="0"/>
      <point x="111" y="0" type="curve" smooth="yes"/>
      <point x="125" y="0"/>
    </contour>
  </outline>
</glyph>
<glyph name="l" format="2">
  <advance width="274"/>
  <unicode hex="006C"/>
  <anchor x="178" y="0" name="bottom"/>
  <anchor x="127.007" y="341" name="center"/>
  <anchor x="111" y="690" name="top"/>
  <anchor x="177" y="461" name="topright"/>
  <outline>
    <contour>
      <point x="244" y="7"/>
      <point x="244" y="21" type="curve" smooth="yes"/>
      <point x="244" y="35"/>
      <point x="236" y="42"/>
      <point x="222" y="42" type="curve" smooth="yes"/>
      <point x="154" y="42"/>
      <point x="132" y="63"/>
      <point x="132" y="131" type="curve" smooth="yes"/>
      <point x="132" y="669" type="line" smooth="yes"/>
      <point x="132" y="683"/>
      <point x="125" y="690"/>
      <point x="111" y="690" type="curve" smooth="yes"/>
      <point x="97" y="690"/>
      <point x="90" y="683"/>
      <point x="90" y="669" type="curve" smooth="yes"/>
      <point x="90" y="131" type="line" smooth="yes"/>
      <point x="90" y="40"/>
      <point x="131" y="0"/>
      <point x="223" y="0" type="curve" smooth="yes"/>
      <point x="236" y="0"/>
    </contour>
  </outline>
</glyph>
<glyph name="m" format="2">
  <advance width="833"/>
  <unicode hex="006D"/>
  <anchor x="416" y="0" name="bottom"/>
  <anchor x="424" y="461" name="top"/>
  <outline>
    <contour>
      <point x="132" y="6"/>
      <point x="132" y="20" type="curve" smooth="yes"/>
      <point x="132" y="291" type="line" smooth="yes"/>
      <point x="132" y="383"/>
      <point x="168" y="420"/>
      <point x="259" y="420" type="curve" smooth="yes"/>
      <point x="301" y="420" type="line" smooth="yes"/>
      <point x="372" y="420"/>
      <point x="400" y="383"/>
      <point x="400" y="291" type="curve" smooth="yes"/>
      <point x="400" y="20" type="line" smooth="yes"/>
      <point x="400" y="6"/>
      <point x="407" y="-1"/>
      <point x="421" y="-1" type="curve" smooth="yes"/>
      <point x="435" y="-1"/>
      <point x="442" y="6"/>
      <point x="442" y="20" type="curve" smooth="yes"/>
      <point x="442" y="291" type="line" smooth="yes"/>
      <point x="442" y="383"/>
      <point x="478" y="420"/>
      <point x="569" y="420" type="curve" smooth="yes"/>
      <point x="611" y="420" type="line" smooth="yes"/>
      <point x="682" y="420"/>
      <point x="710" y="383"/>
      <point x="710" y="291" type="curve" smooth="yes"/>
      <point x="710" y="20" type="line" smooth="yes"/>
      <point x="710" y="6"/>
      <point x="717" y="-1"/>
      <point x="731" y="-1" type="curve" smooth="yes"/>
      <point x="745" y="-1"/>
      <point x="752" y="6"/>
      <point x="752" y="20" type="curve" smooth="yes"/>
      <point x="752" y="291" type="line" smooth="yes"/>
      <point x="752" y="413"/>
      <point x="712" y="462"/>
      <point x="611" y="462" type="curve" smooth="yes"/>
      <point x="569" y="462" type="line" smooth="yes"/>
      <point x="487" y="462"/>
      <point x="444" y="431"/>
      <point x="419" y="354" type="curve"/>
      <point x="435" y="371" type="line"/>
      <point x="410" y="436"/>
      <point x="371" y="462"/>
      <point x="301" y="462" type="curve" smooth="yes"/>
      <point x="259" y="462" type="line" smooth="yes"/>
      <point x="196" y="462"/>
      <point x="159" y="443"/>
      <point x="132" y="396" type="curve"/>
      <point x="132" y="440" type="line" smooth="yes"/>
      <point x="132" y="454"/>
      <point x="125" y="461"/>
      <point x="111" y="461" type="curve" smooth="yes"/>
      <point x="97" y="461"/>
      <point x="90" y="454"/>
      <point x="90" y="440" type="curve" smooth="yes"/>
      <point x="90" y="20" type="line" smooth="yes"/>
      <point x="90" y="6"/>
      <point x="97" y="-1"/>
      <point x="111" y="-1" type="curve" smooth="yes"/>
      <point x="125" y="-1"/>
    </contour>
  </outline>
</glyph>
<glyph name="n" format="2">
  <advance width="593"/>
  <unicode hex="006E"/>
  <anchor x="332" y="0" name="bottom"/>
  <anchor x="322" y="461" name="top"/>
  <outline>
    <contour>
      <point x="512" y="7"/>
      <point x="512" y="21" type="curve" smooth="yes"/>
      <point x="512" y="286" type="line" smooth="yes"/>
      <point x="512" y="408"/>
      <point x="459" y="461"/>
      <point x="337" y="461" type="curve" smooth="yes"/>
      <point x="309" y="461" type="line" smooth="yes"/>
      <point x="189" y="461"/>
      <point x="120" y="409"/>
      <point x="111" y="312" type="curve" smooth="yes"/>
      <point x="111" y="298"/>
      <point x="111" y="290"/>
      <point x="112" y="290" type="curve" smooth="yes"/>
      <point x="125" y="290"/>
      <point x="132" y="297"/>
      <point x="133" y="310" type="curve" smooth="yes"/>
      <point x="142" y="383"/>
      <point x="200" y="419"/>
      <point x="309" y="419" type="curve" smooth="yes"/>
      <point x="337" y="419" type="line" smooth="yes"/>
      <point x="435" y="419"/>
      <point x="470" y="384"/>
      <point x="470" y="286" type="curve" smooth="yes"/>
      <point x="470" y="21" type="line" smooth="yes"/>
      <point x="470" y="7"/>
      <point x="477" y="0"/>
      <point x="491" y="0" type="curve" smooth="yes"/>
      <point x="505" y="0"/>
    </contour>
    <contour>
      <point x="132" y="7"/>
      <point x="132" y="21" type="curve" smooth="yes"/>
      <point x="132" y="440" type="line" smooth="yes"/>
      <point x="132" y="454"/>
      <point x="125" y="461"/>
      <point x="111" y="461" type="curve" smooth="yes"/>
      <point x="97" y="461"/>
      <point x="90" y="454"/>
      <point x="90" y="440" type="curve" smooth="yes"/>
      <point x="90" y="21" type="line" smooth="yes"/>
      <point x="90" y="7"/>
      <point x="97" y="0"/>
      <point x="111" y="0" type="curve" smooth="yes"/>
      <point x="125" y="0"/>
    </contour>
  </outline>
</glyph>
<glyph name="o" format="2">
  <advance width="592"/>
  <unicode hex="006F"/>
  <anchor x="296" y="0" name="bottom"/>
  <anchor x="296" y="231" name="center"/>
  <anchor x="462" y="44" name="ogonek"/>
  <anchor x="296" y="461" name="top"/>
  <anchor x="452" y="434" name="topright"/>
  <outline>
    <contour>
      <point x="255" y="0" type="curve" smooth="yes"/>
      <point x="337" y="0" type="line" smooth="yes"/>
      <point x="459" y="0"/>
      <point x="512" y="53"/>
      <point x="512" y="175" type="curve" smooth="yes"/>
      <point x="512" y="286" type="line" smooth="yes"/>
      <point x="512" y="408"/>
      <point x="459" y="461"/>
      <point x="337" y="461" type="curve" smooth="yes"/>
      <point x="255" y="461" type="line" smooth="yes"/>
      <point x="133" y="462"/>
      <point x="80" y="409"/>
      <point x="80" y="286" type="curve" smooth="yes"/>
      <point x="80" y="174" type="line" smooth="yes"/>
      <point x="80" y="53"/>
      <point x="133" y="0"/>
    </contour>
    <contour>
      <point x="122" y="77"/>
      <point x="122" y="174" type="curve" smooth="yes"/>
      <point x="122" y="286" type="line" smooth="yes"/>
      <point x="122" y="385"/>
      <point x="157" y="420"/>
      <point x="255" y="419" type="curve" smooth="yes"/>
      <point x="337" y="419" type="line" smooth="yes"/>
      <point x="435" y="419"/>
      <point x="470" y="384"/>
      <point x="470" y="286" type="curve" smooth="yes"/>
      <point x="470" y="175" type="line" smooth="yes"/>
      <point x="470" y="77"/>
      <point x="435" y="42"/>
      <point x="337" y="42" type="curve" smooth="yes"/>
      <point x="255" y="42" type="line" smooth="yes"/>
      <point x="157" y="42"/>
    </contour>
  </outline>
</glyph>
<glyph name="p" format="2">
  <advance width="602"/>
  <unicode hex="0070"/>
  <anchor x="303" y="0" name="bottom"/>
  <anchor x="111" y="-200" name="bottomleft"/>
  <anchor x="328" y="240" name="center"/>
  <anchor x="323" y="461" name="top"/>
  <outline>
    <contour>
      <point x="132" y="0" type="curve" smooth="yes"/>
      <point x="347" y="0" type="line" smooth="yes"/>
      <point x="469" y="0"/>
      <point x="522" y="53"/>
      <point x="522" y="175" type="curve" smooth="yes"/>
      <point x="522" y="286" type="line" smooth="yes"/>
      <point x="522" y="408"/>
      <point x="469" y="461"/>
      <point x="347" y="461" type="curve" smooth="yes"/>
      <point x="309" y="461" type="line" smooth="yes"/>
      <point x="177" y="461"/>
      <point x="121" y="409"/>
      <point x="111" y="312" type="curve" smooth="yes"/>
      <point x="110" y="298"/>
      <point x="98" y="290"/>
      <point x="112" y="290" type="curve" smooth="yes"/>
      <point x="125" y="290"/>
      <point x="132" y="297"/>
      <point x="133" y="310" type="curve" smooth="yes"/>
      <point x="142" y="383"/>
      <point x="200" y="419"/>
      <point x="309" y="419" type="curve" smooth="yes"/>
      <point x="347" y="419" type="line" smooth="yes"/>
      <point x="445" y="419"/>
      <point x="480" y="384"/>
      <point x="480" y="286" type="curve" smooth="yes"/>
      <point x="480" y="175" type="line" smooth="yes"/>
      <point x="480" y="77"/>
      <point x="445" y="42"/>
      <point x="347" y="42" type="curve" smooth="yes"/>
      <point x="132" y="42" type="line" smooth="yes"/>
      <point x="118" y="42"/>
      <point x="111" y="35"/>
      <point x="111" y="21" type="curve" smooth="yes"/>
      <point x="111" y="7"/>
      <point x="118" y="0"/>
    </contour>
    <contour>
      <point x="132" y="-193"/>
      <point x="132" y="-179" type="curve" smooth="yes"/>
      <point x="132" y="440" type="line" smooth="yes"/>
      <point x="132" y="454"/>
      <point x="125" y="461"/>
      <point x="111" y="461" type="curve" smooth="yes"/>
      <point x="97" y="461"/>
      <point x="90" y="454"/>
      <point x="90" y="440" type="curve" smooth="yes"/>
      <point x="90" y="-179" type="line" smooth="yes"/>
      <point x="90" y="-193"/>
      <point x="97" y="-200"/>
      <point x="111" y="-200" type="curve" smooth="yes"/>
      <point x="125" y="-200"/>
    </contour>
  </outline>
</glyph>
<glyph name="q" format="2">
  <advance width="593"/>
  <unicode hex="0071"/>
  <anchor x="286" y="0" name="bottom"/>
  <anchor x="286" y="461" name="top"/>
  <outline>
    <contour>
      <point x="80" y="408"/>
      <point x="80" y="286" type="curve" smooth="yes"/>
      <point x="80" y="175" type="line" smooth="yes"/>
      <point x="80" y="53"/>
      <point x="133" y="0"/>
      <point x="255" y="0" type="curve" smooth="yes"/>
      <point x="470" y="0" type="line" smooth="yes"/>
      <point x="484" y="0"/>
      <point x="491" y="7"/>
      <point x="491" y="21" type="curve" smooth="yes"/>
      <point x="491" y="35"/>
      <point x="484" y="42"/>
      <point x="470" y="42" type="curve" smooth="yes"/>
      <point x="255" y="42" type="line" smooth="yes"/>
      <point x="157" y="42"/>
      <point x="122" y="77"/>
      <point x="122" y="175" type="curve" smooth="yes"/>
      <point x="122" y="286" type="line" smooth="yes"/>
      <point x="122" y="384"/>
      <point x="157" y="419"/>
      <point x="255" y="419" type="curve" smooth="yes"/>
      <point x="293" y="419" type="line" smooth="yes"/>
      <point x="402" y="419"/>
      <point x="470" y="383"/>
      <point x="470" y="310" type="curve" smooth="yes"/>
      <point x="470" y="297"/>
      <point x="477" y="290"/>
      <point x="490" y="290" type="curve" smooth="yes"/>
      <point x="504" y="290"/>
      <point x="492" y="298"/>
      <point x="491" y="312" type="curve" smooth="yes"/>
      <point x="481" y="409"/>
      <point x="425" y="461"/>
      <point x="293" y="461" type="curve" smooth="yes"/>
      <point x="255" y="461" type="line" smooth="yes"/>
      <point x="133" y="461"/>
    </contour>
    <contour>
      <point x="470" y="454"/>
      <point x="470" y="440" type="curve" smooth="yes"/>
      <point x="470" y="-179" type="line" smooth="yes"/>
      <point x="470" y="-193"/>
      <point x="477" y="-200"/>
      <point x="491" y="-200" type="curve" smooth="yes"/>
      <point x="505" y="-200"/>
      <point x="512" y="-193"/>
      <point x="512" y="-179" type="curve" smooth="yes"/>
      <point x="512" y="440" type="line" smooth="yes"/>
      <point x="512" y="454"/>
      <point x="505" y="461"/>
      <point x="491" y="461" type="curve" smooth="yes"/>
      <point x="477" y="461"/>
    </contour>
  </outline>
</glyph>
<glyph name="r" format="2">
  <advance width="360"/>
  <unicode hex="0072"/>
  <anchor x="112" y="-1" name="bottom"/>
  <anchor x="218" y="461" name="top"/>
  <outline>
    <contour>
      <point x="132" y="237"/>
      <point x="133" y="251" type="curve" smooth="yes"/>
      <point x="140" y="360"/>
      <point x="209" y="419"/>
      <point x="329" y="419" type="curve" smooth="yes"/>
      <point x="343" y="419"/>
      <point x="350" y="426"/>
      <point x="350" y="440" type="curve" smooth="yes"/>
      <point x="350" y="454"/>
      <point x="344" y="461"/>
      <point x="329" y="461" type="curve" smooth="yes"/>
      <point x="198" y="461"/>
      <point x="118" y="384"/>
      <point x="111" y="252" type="curve" smooth="yes"/>
      <point x="111" y="238"/>
      <point x="111" y="230"/>
      <point x="111" y="230" type="curve" smooth="yes"/>
      <point x="125" y="230"/>
    </contour>
    <contour>
      <point x="132" y="7"/>
      <point x="132" y="21" type="curve" smooth="yes"/>
      <point x="132" y="440" type="line" smooth="yes"/>
      <point x="132" y="454"/>
      <point x="125" y="461"/>
      <point x="111" y="461" type="curve" smooth="yes"/>
      <point x="97" y="461"/>
      <point x="90" y="454"/>
      <point x="90" y="440" type="curve" smooth="yes"/>
      <point x="90" y="21" type="line" smooth="yes"/>
      <point x="90" y="7"/>
      <point x="97" y="0"/>
      <point x="111" y="0" type="curve" smooth="yes"/>
      <point x="125" y="0"/>
    </contour>
  </outline>
</glyph>
<glyph name="s" format="2">
  <advance width="541"/>
  <unicode hex="0073"/>
  <anchor x="266" y="0" name="bottom"/>
  <anchor x="266" y="461" name="top"/>
  <outline>
    <contour>
      <point x="188" y="1" type="curve" smooth="yes"/>
      <point x="352" y="1" type="line" smooth="yes"/>
      <point x="441" y="1"/>
      <point x="481" y="41"/>
      <point x="481" y="130" type="curve" smooth="yes"/>
      <point x="481" y="219"/>
      <point x="441" y="259"/>
      <point x="352" y="259" type="curve" smooth="yes"/>
      <point x="190" y="259" type="line" smooth="yes"/>
      <point x="129" y="259"/>
      <point x="109" y="279"/>
      <point x="109" y="339" type="curve" smooth="yes"/>
      <point x="109" y="400"/>
      <point x="129" y="420"/>
      <point x="190" y="420" type="curve" smooth="yes"/>
      <point x="347" y="420" type="line" smooth="yes"/>
      <point x="400" y="420"/>
      <point x="422" y="405"/>
      <point x="426" y="361" type="curve" smooth="yes"/>
      <point x="428" y="347"/>
      <point x="434" y="340"/>
      <point x="448" y="340" type="curve" smooth="yes"/>
      <point x="462" y="340"/>
      <point x="470" y="348"/>
      <point x="468" y="362" type="curve" smooth="yes"/>
      <point x="462" y="430"/>
      <point x="423" y="462"/>
      <point x="347" y="462" type="curve" smooth="yes"/>
      <point x="190" y="462" type="line" smooth="yes"/>
      <point x="106" y="462"/>
      <point x="67" y="424"/>
      <point x="67" y="339" type="curve" smooth="yes"/>
      <point x="67" y="255"/>
      <point x="106" y="217"/>
      <point x="190" y="217" type="curve" smooth="yes"/>
      <point x="352" y="217" type="line" smooth="yes"/>
      <point x="418" y="217"/>
      <point x="439" y="195"/>
      <point x="439" y="130" type="curve" smooth="yes"/>
      <point x="439" y="65"/>
      <point x="418" y="43"/>
      <point x="352" y="43" type="curve" smooth="yes"/>
      <point x="188" y="43" type="line" smooth="yes"/>
      <point x="131" y="43"/>
      <point x="107" y="60"/>
      <point x="102" y="109" type="curve" smooth="yes"/>
      <point x="101" y="123"/>
      <point x="94" y="130"/>
      <point x="81" y="130" type="curve" smooth="yes"/>
      <point x="67" y="130"/>
      <point x="59" y="122"/>
      <point x="60" y="108" type="curve" smooth="yes"/>
      <point x="67" y="35"/>
      <point x="107" y="1"/>
    </contour>
  </outline>
</glyph>
<glyph name="t" format="2">
  <advance width="338"/>
  <unicode hex="0074"/>
  <anchor x="194" y="0" name="bottom"/>
  <anchor x="164" y="311" name="center"/>
  <anchor x="125" y="601" name="top"/>
  <anchor x="203" y="461" name="topright"/>
  <outline>
    <contour>
      <point x="298" y="7"/>
      <point x="298" y="21" type="curve" smooth="yes"/>
      <point x="298" y="34"/>
      <point x="293" y="42"/>
      <point x="276" y="42" type="curve" smooth="yes"/>
      <point x="179" y="42"/>
      <point x="146" y="75"/>
      <point x="146" y="171" type="curve" smooth="yes"/>
      <point x="146" y="580" type="line" smooth="yes"/>
      <point x="146" y="594"/>
      <point x="139" y="601"/>
      <point x="125" y="601" type="curve" smooth="yes"/>
      <point x="111" y="601"/>
      <point x="104" y="594"/>
      <point x="104" y="580" type="curve" smooth="yes"/>
      <point x="104" y="171" type="line" smooth="yes"/>
      <point x="104" y="52"/>
      <point x="156" y="0"/>
      <point x="276" y="0" type="curve" smooth="yes"/>
      <point x="291" y="0"/>
    </contour>
    <contour>
      <point x="41" y="419" type="curve" smooth="yes"/>
      <point x="275" y="419" type="line" smooth="yes"/>
      <point x="289" y="419"/>
      <point x="296" y="426"/>
      <point x="296" y="440" type="curve" smooth="yes"/>
      <point x="296" y="454"/>
      <point x="289" y="461"/>
      <point x="275" y="461" type="curve" smooth="yes"/>
      <point x="41" y="461" type="line" smooth="yes"/>
      <point x="27" y="461"/>
      <point x="20" y="454"/>
      <point x="20" y="440" type="curve" smooth="yes"/>
      <point x="20" y="426"/>
      <point x="27" y="419"/>
    </contour>
  </outline>
</glyph>
<glyph name="v" format="2">
  <advance width="492"/>
  <unicode hex="0076"/>
  <anchor x="240" y="0" name="bottom"/>
  <anchor x="246" y="461" name="top"/>
  <outline>
    <contour>
      <point x="259" y="2"/>
      <point x="266" y="16" type="curve" smooth="yes"/>
      <point x="469" y="431" type="line" smooth="yes"/>
      <point x="475" y="444"/>
      <point x="470" y="454"/>
      <point x="458" y="459" type="curve" smooth="yes"/>
      <point x="445" y="464"/>
      <point x="436" y="461"/>
      <point x="430" y="448" type="curve"/>
      <point x="225" y="25" type="line"/>
      <point x="255" y="25" type="line"/>
      <point x="61" y="448" type="line" smooth="yes"/>
      <point x="56" y="460"/>
      <point x="46" y="464"/>
      <point x="34" y="459" type="curve" smooth="yes"/>
      <point x="21" y="454"/>
      <point x="17" y="444"/>
      <point x="22" y="432" type="curve" smooth="yes"/>
      <point x="213" y="16" type="line" smooth="yes"/>
      <point x="218" y="5"/>
      <point x="225" y="0"/>
      <point x="239" y="0" type="curve" smooth="yes"/>
      <point x="250" y="0"/>
    </contour>
  </outline>
</glyph>
<glyph name="w" format="2">
  <advance width="683"/>
  <unicode hex="0077"/>
  <anchor x="344" y="0" name="bottom"/>
  <anchor x="345" y="461" name="top"/>
  <outline>
    <contour>
      <point x="190" y="0" type="curve" smooth="yes"/>
      <point x="201" y="0"/>
      <point x="211" y="2"/>
      <point x="217" y="17" type="curve"/>
      <point x="355" y="411" type="line"/>
      <point x="337" y="387" type="line"/>
      <point x="454" y="17" type="line" smooth="yes"/>
      <point x="458" y="4"/>
      <point x="466" y="0"/>
      <point x="481" y="0" type="curve" smooth="yes"/>
      <point x="495" y="0"/>
      <point x="503" y="5"/>
      <point x="507" y="17" type="curve" smooth="yes"/>
      <point x="662" y="432" type="line" smooth="yes"/>
      <point x="666" y="445"/>
      <point x="662" y="454"/>
      <point x="649" y="459" type="curve" smooth="yes"/>
      <point x="636" y="464"/>
      <point x="627" y="459"/>
      <point x="622" y="446" type="curve" smooth="yes"/>
      <point x="468" y="23" type="line"/>
      <point x="496" y="23" type="line"/>
      <point x="366" y="436" type="line" smooth="yes"/>
      <point x="362" y="447"/>
      <point x="355" y="453"/>
      <point x="343" y="453" type="curve" smooth="yes"/>
      <point x="331" y="453"/>
      <point x="323" y="447"/>
      <point x="319" y="436" type="curve"/>
      <point x="180" y="23" type="line"/>
      <point x="206" y="23" type="line"/>
      <point x="61" y="446" type="line" smooth="yes"/>
      <point x="57" y="459"/>
      <point x="48" y="463"/>
      <point x="35" y="459" type="curve" smooth="yes"/>
      <point x="22" y="455"/>
      <point x="17" y="445"/>
      <point x="22" y="432" type="curve" smooth="yes"/>
      <point x="164" y="17" type="line" smooth="yes"/>
      <point x="168" y="5"/>
      <point x="175" y="0"/>
    </contour>
  </outline>
</glyph>
<glyph name="x" format="2">
  <advance width="482"/>
  <unicode hex="0078"/>
  <anchor x="239.004" y="0" name="bottom"/>
  <anchor x="239.004" y="461" name="top"/>
  <outline>
    <contour>
      <point x="428" y="24"/>
      <point x="419" y="35" type="curve" smooth="yes"/>
      <point x="93" y="452" type="line" smooth="yes"/>
      <point x="84" y="463"/>
      <point x="74" y="464"/>
      <point x="63" y="456" type="curve" smooth="yes"/>
      <point x="53" y="447"/>
      <point x="51" y="437"/>
      <point x="60" y="426" type="curve" smooth="yes"/>
      <point x="386" y="9" type="line" smooth="yes"/>
      <point x="395" y="-2"/>
      <point x="405" y="-3"/>
      <point x="416" y="6" type="curve" smooth="yes"/>
      <point x="427" y="14"/>
    </contour>
    <contour>
      <point x="75" y="-1"/>
      <point x="83" y="9" type="curve" smooth="yes"/>
      <point x="247" y="209" type="line" smooth="yes"/>
      <point x="255" y="220"/>
      <point x="254" y="230"/>
      <point x="244" y="239" type="curve" smooth="yes"/>
      <point x="233" y="247"/>
      <point x="223" y="246"/>
      <point x="214" y="235" type="curve" smooth="yes"/>
      <point x="51" y="36" type="line" smooth="yes"/>
      <point x="42" y="25"/>
      <point x="43" y="15"/>
      <point x="54" y="6" type="curve" smooth="yes"/>
      <point x="64" y="-3"/>
    </contour>
    <contour>
      <point x="251" y="207"/>
      <point x="259" y="218" type="curve" smooth="yes"/>
      <point x="431" y="426" type="line" smooth="yes"/>
      <point x="440" y="436"/>
      <point x="439" y="446"/>
      <point x="428" y="455" type="curve" smooth="yes"/>
      <point x="418" y="464"/>
      <point x="407" y="463"/>
      <point x="398" y="452" type="curve" smooth="yes"/>
      <point x="227" y="244" type="line" smooth="yes"/>
      <point x="218" y="234"/>
      <point x="219" y="223"/>
      <point x="230" y="215" type="curve" smooth="yes"/>
      <point x="240" y="206"/>
    </contour>
  </outline>
</glyph>
<glyph name="y" format="2">
  <advance width="583"/>
  <unicode hex="0079"/>
  <anchor x="586" y="0" name="bottom"/>
  <anchor x="287" y="461" name="top"/>
  <outline>
    <contour>
      <point x="204" y="-200" type="curve" smooth="yes"/>
      <point x="370" y="-200" type="line" smooth="yes"/>
      <point x="455" y="-200"/>
      <point x="493" y="-162"/>
      <point x="493" y="-76" type="curve" smooth="yes"/>
      <point x="493" y="441" type="line" smooth="yes"/>
      <point x="493" y="455"/>
      <point x="486" y="462"/>
      <point x="472" y="462" type="curve" smooth="yes"/>
      <point x="458" y="462"/>
      <point x="451" y="455"/>
      <point x="451" y="441" type="curve" smooth="yes"/>
      <point x="451" y="170" type="line" smooth="yes"/>
      <point x="451" y="84"/>
      <point x="393" y="41"/>
      <point x="274" y="41" type="curve" smooth="yes"/>
      <point x="253" y="41" type="line" smooth="yes"/>
      <point x="156" y="41"/>
      <point x="123" y="74"/>
      <point x="123" y="170" type="curve" smooth="yes"/>
      <point x="123" y="441" type="line" smooth="yes"/>
      <point x="123" y="455"/>
      <point x="116" y="462"/>
      <point x="102" y="462" type="curve" smooth="yes"/>
      <point x="88" y="462"/>
      <point x="81" y="455"/>
      <point x="81" y="441" type="curve" smooth="yes"/>
      <point x="81" y="170" type="line" smooth="yes"/>
      <point x="81" y="51"/>
      <point x="133" y="-1"/>
      <point x="253" y="-1" type="curve" smooth="yes"/>
      <point x="274" y="-1" type="line" smooth="yes"/>
      <point x="355" y="-1"/>
      <point x="414" y="18"/>
      <point x="451" y="65" type="curve"/>
      <point x="451" y="-76" type="line" smooth="yes"/>
      <point x="451" y="-139"/>
      <point x="431" y="-158"/>
      <point x="370" y="-158" type="curve" smooth="yes"/>
      <point x="204" y="-158" type="line" smooth="yes"/>
      <point x="143" y="-158"/>
      <point x="123" y="-139"/>
      <point x="123" y="-76" type="curve" smooth="yes"/>
      <point x="123" y="-62"/>
      <point x="116" y="-55"/>
      <point x="102" y="-55" type="curve" smooth="yes"/>
      <point x="88" y="-55"/>
      <point x="81" y="-62"/>
      <point x="81" y="-76" type="curve" smooth="yes"/>
      <point x="81" y="-162"/>
      <point x="119" y="-200"/>
    </contour>
  </outline>
</glyph>
<glyph name="z" format="2">
  <advance width="506"/>
  <unicode hex="007A"/>
  <anchor x="259" y="0" name="bottom"/>
  <anchor x="259" y="461" name="top"/>
  <outline>
    <contour>
      <point x="80" y="0" type="curve" smooth="yes"/>
      <point x="349" y="0" type="line" smooth="yes"/>
      <point x="423" y="0"/>
      <point x="464" y="34"/>
      <point x="471" y="101" type="curve" smooth="yes"/>
      <point x="473" y="115"/>
      <point x="465" y="123"/>
      <point x="451" y="123" type="curve" smooth="yes"/>
      <point x="437" y="123"/>
      <point x="431" y="116"/>
      <point x="429" y="102" type="curve" smooth="yes"/>
      <point x="424" y="59"/>
      <point x="400" y="42"/>
      <point x="349" y="42" type="curve" smooth="yes"/>
      <point x="96" y="42" type="line"/>
      <point x="117" y="37" type="line"/>
      <point x="424" y="416" type="line" smooth="yes"/>
      <point x="431" y="425"/>
      <point x="433" y="431"/>
      <point x="433" y="440" type="curve" smooth="yes"/>
      <point x="433" y="454"/>
      <point x="426" y="461"/>
      <point x="412" y="461" type="curve" smooth="yes"/>
      <point x="167" y="461" type="line" smooth="yes"/>
      <point x="90" y="461"/>
      <point x="51" y="430"/>
      <point x="45" y="360" type="curve" smooth="yes"/>
      <point x="44" y="346"/>
      <point x="52" y="338"/>
      <point x="66" y="338" type="curve" smooth="yes"/>
      <point x="79" y="338"/>
      <point x="86" y="345"/>
      <point x="87" y="359" type="curve" smooth="yes"/>
      <point x="92" y="405"/>
      <point x="113" y="419"/>
      <point x="167" y="419" type="curve" smooth="yes"/>
      <point x="406" y="419" type="line"/>
      <point x="380" y="428" type="line"/>
      <point x="68" y="44" type="line" smooth="yes"/>
      <point x="62" y="36"/>
      <point x="59" y="29"/>
      <point x="59" y="21" type="curve" smooth="yes"/>
      <point x="59" y="7"/>
      <point x="67" y="0"/>
    </contour>
  </outline>
</glyph>
<glyph name="braceleft" format="2">
  <advance width="316"/>
  <unicode hex="007B"/>
  <outline>
    <contour>
      <point x="285" y="-161" type="curve" smooth="yes"/>
      <point x="297" y="-161"/>
      <point x="306" y="-152"/>
      <point x="306" y="-140" type="curve" smooth="yes"/>
      <point x="306" y="-130"/>
      <point x="300" y="-120"/>
      <point x="285" y="-119" type="curve" smooth="yes"/>
      <point x="200" y="-113"/>
      <point x="172" y="-111"/>
      <point x="172" y="4" type="curve" smooth="yes"/>
      <point x="172" y="192" type="line" smooth="yes"/>
      <point x="172" y="204"/>
      <point x="167" y="211"/>
      <point x="155" y="216" type="curve" smooth="yes"/>
      <point x="92" y="240" type="line"/>
      <point x="92" y="252" type="line"/>
      <point x="156" y="277" type="line" smooth="yes"/>
      <point x="167" y="282"/>
      <point x="172" y="289"/>
      <point x="172" y="301" type="curve" smooth="yes"/>
      <point x="172" y="489" type="line" smooth="yes"/>
      <point x="172" y="643"/>
      <point x="234" y="614"/>
      <point x="285" y="622" type="curve" smooth="yes"/>
      <point x="296" y="624"/>
      <point x="306" y="627"/>
      <point x="306" y="644" type="curve" smooth="yes"/>
      <point x="306" y="660"/>
      <point x="297" y="664"/>
      <point x="270" y="664" type="curve" smooth="yes"/>
      <point x="158" y="664"/>
      <point x="130" y="595"/>
      <point x="130" y="489" type="curve" smooth="yes"/>
      <point x="130" y="312" type="line"/>
      <point x="66" y="287" type="line" smooth="yes"/>
      <point x="55" y="282"/>
      <point x="50" y="275"/>
      <point x="50" y="263" type="curve" smooth="yes"/>
      <point x="50" y="229" type="line" smooth="yes"/>
      <point x="50" y="217"/>
      <point x="55" y="210"/>
      <point x="67" y="205" type="curve" smooth="yes"/>
      <point x="130" y="181" type="line"/>
      <point x="130" y="4" type="line" smooth="yes"/>
      <point x="130" y="-118"/>
      <point x="170" y="-161"/>
    </contour>
  </outline>
</glyph>
<glyph name="bar" format="2">
  <advance width="202"/>
  <unicode hex="007C"/>
  <outline>
    <contour>
      <point x="122" y="-134"/>
      <point x="122" y="-120" type="curve" smooth="yes"/>
      <point x="122" y="673" type="line" smooth="yes"/>
      <point x="122" y="687"/>
      <point x="115" y="694"/>
      <point x="101" y="694" type="curve" smooth="yes"/>
      <point x="87" y="694"/>
      <point x="80" y="687"/>
      <point x="80" y="673" type="curve" smooth="yes"/>
      <point x="80" y="-120" type="line" smooth="yes"/>
      <point x="80" y="-134"/>
      <point x="87" y="-141"/>
      <point x="101" y="-141" type="curve" smooth="yes"/>
      <point x="115" y="-141"/>
    </contour>
  </outline>
</glyph>
<glyph name="asciitilde" format="2">
  <advance width="545"/>
  <unicode hex="007E"/>
  <outline>
    <contour>
      <point x="104" y="265"/>
      <point x="108" y="273" type="curve" smooth="yes"/>
      <point x="126" y="309"/>
      <point x="146" y="321"/>
      <point x="187" y="321" type="curve" smooth="yes"/>
      <point x="271" y="321"/>
      <point x="271" y="262"/>
      <point x="359" y="262" type="curve" smooth="yes"/>
      <point x="412" y="262"/>
      <point x="451" y="285"/>
      <point x="473" y="330" type="curve" smooth="yes"/>
      <point x="480" y="344"/>
      <point x="476" y="361"/>
      <point x="457" y="361" type="curve" smooth="yes"/>
      <point x="448" y="361"/>
      <point x="443" y="357"/>
      <point x="438" y="347" type="curve" smooth="yes"/>
      <point x="423" y="317"/>
      <point x="397" y="302"/>
      <point x="359" y="302" type="curve" smooth="yes"/>
      <point x="290" y="302"/>
      <point x="280" y="361"/>
      <point x="187" y="361" type="curve" smooth="yes"/>
      <point x="131" y="361"/>
      <point x="95" y="341"/>
      <point x="72" y="291" type="curve" smooth="yes"/>
      <point x="64" y="274"/>
      <point x="76" y="262"/>
      <point x="90" y="262" type="curve" smooth="yes"/>
      <point x="100" y="262"/>
    </contour>
  </outline>
</glyph>
<glyph name="cent" format="2">
  <advance width="460"/>
  <unicode hex="00A2"/>
  <outline>
    <contour>
      <point x="221" y="70" type="curve" smooth="yes"/>
      <point x="277" y="70" type="line" smooth="yes"/>
      <point x="375" y="70"/>
      <point x="420" y="105"/>
      <point x="420" y="185" type="curve" smooth="yes"/>
      <point x="420" y="197"/>
      <point x="411" y="206"/>
      <point x="399" y="206" type="curve" smooth="yes"/>
      <point x="387" y="206"/>
      <point x="378" y="197"/>
      <point x="378" y="185" type="curve" smooth="yes"/>
      <point x="378" y="131"/>
      <point x="354" y="112"/>
      <point x="277" y="112" type="curve" smooth="yes"/>
      <point x="221" y="112" type="line" smooth="yes"/>
      <point x="132" y="112"/>
      <point x="102" y="142"/>
      <point x="102" y="229" type="curve" smooth="yes"/>
      <point x="102" y="312" type="line" smooth="yes"/>
      <point x="102" y="401"/>
      <point x="133" y="431"/>
      <point x="221" y="430" type="curve" smooth="yes"/>
      <point x="277" y="430" type="line" smooth="yes"/>
      <point x="354" y="430"/>
      <point x="378" y="411"/>
      <point x="378" y="357" type="curve" smooth="yes"/>
      <point x="378" y="345"/>
      <point x="387" y="336"/>
      <point x="399" y="336" type="curve" smooth="yes"/>
      <point x="411" y="336"/>
      <point x="420" y="345"/>
      <point x="420" y="357" type="curve" smooth="yes"/>
      <point x="420" y="437"/>
      <point x="375" y="472"/>
      <point x="277" y="472" type="curve" smooth="yes"/>
      <point x="221" y="472" type="line" smooth="yes"/>
      <point x="110" y="473"/>
      <point x="60" y="424"/>
      <point x="60" y="312" type="curve" smooth="yes"/>
      <point x="60" y="229" type="line" smooth="yes"/>
      <point x="60" y="118"/>
      <point x="109" y="70"/>
    </contour>
    <contour>
      <point x="270" y="-14"/>
      <point x="270" y="0" type="curve" smooth="yes"/>
      <point x="270" y="541" type="line" smooth="yes"/>
      <point x="270" y="555"/>
      <point x="263" y="562"/>
      <point x="249" y="562" type="curve" smooth="yes"/>
      <point x="235" y="562"/>
      <point x="228" y="555"/>
      <point x="228" y="541" type="curve" smooth="yes"/>
      <point x="228" y="0" type="line" smooth="yes"/>
      <point x="228" y="-14"/>
      <point x="235" y="-21"/>
      <point x="249" y="-21" type="curve" smooth="yes"/>
      <point x="263" y="-21"/>
    </contour>
  </outline>
</glyph>
<glyph name="sterling" format="2">
  <advance width="595"/>
  <unicode hex="00A3"/>
  <outline>
    <contour>
      <point x="50" y="0" type="line"/>
      <point x="529" y="0" type="line" smooth="yes"/>
      <point x="543" y="0"/>
      <point x="550" y="7"/>
      <point x="550" y="21" type="curve" smooth="yes"/>
      <point x="550" y="35"/>
      <point x="543" y="42"/>
      <point x="529" y="42" type="curve" smooth="yes"/>
      <point x="140" y="42" type="line"/>
      <point x="158" y="63"/>
      <point x="166" y="94"/>
      <point x="166" y="135" type="curve" smooth="yes"/>
      <point x="166" y="430" type="line" smooth="yes"/>
      <point x="166" y="549"/>
      <point x="208" y="591"/>
      <point x="326" y="591" type="curve" smooth="yes"/>
      <point x="347" y="591" type="line" smooth="yes"/>
      <point x="453" y="591"/>
      <point x="488" y="556"/>
      <point x="488" y="450" type="curve" smooth="yes"/>
      <point x="488" y="436"/>
      <point x="495" y="429"/>
      <point x="509" y="429" type="curve" smooth="yes"/>
      <point x="523" y="429"/>
      <point x="530" y="436"/>
      <point x="530" y="450" type="curve" smooth="yes"/>
      <point x="530" y="579"/>
      <point x="476" y="633"/>
      <point x="347" y="633" type="curve" smooth="yes"/>
      <point x="326" y="633" type="line" smooth="yes"/>
      <point x="185" y="633"/>
      <point x="124" y="573"/>
      <point x="124" y="430" type="curve" smooth="yes"/>
      <point x="124" y="135" type="line" smooth="yes"/>
      <point x="124" y="74"/>
      <point x="106" y="42"/>
      <point x="50" y="42" type="curve"/>
    </contour>
    <contour>
      <point x="61" y="223" type="curve" smooth="yes"/>
      <point x="345" y="223" type="line" smooth="yes"/>
      <point x="359" y="223"/>
      <point x="366" y="230"/>
      <point x="366" y="244" type="curve" smooth="yes"/>
      <point x="366" y="258"/>
      <point x="359" y="265"/>
      <point x="345" y="265" type="curve" smooth="yes"/>
      <point x="61" y="265" type="line" smooth="yes"/>
      <point x="47" y="265"/>
      <point x="40" y="258"/>
      <point x="40" y="244" type="curve" smooth="yes"/>
      <point x="40" y="230"/>
      <point x="47" y="223"/>
    </contour>
  </outline>
</glyph>
<glyph name="currency" format="2">
  <advance width="509"/>
  <unicode hex="00A4"/>
  <outline>
    <contour>
      <point x="82" y="144"/>
      <point x="86" y="148" type="curve" smooth="yes"/>
      <point x="141" y="204" type="line"/>
      <point x="171" y="180"/>
      <point x="210" y="166"/>
      <point x="254" y="166" type="curve" smooth="yes"/>
      <point x="298" y="166"/>
      <point x="337" y="180"/>
      <point x="367" y="204" type="curve"/>
      <point x="423" y="148" type="line" smooth="yes"/>
      <point x="427" y="144"/>
      <point x="432" y="142"/>
      <point x="438" y="142" type="curve" smooth="yes"/>
      <point x="450" y="142"/>
      <point x="459" y="151"/>
      <point x="459" y="163" type="curve" smooth="yes"/>
      <point x="459" y="169"/>
      <point x="457" y="174"/>
      <point x="453" y="178" type="curve" smooth="yes"/>
      <point x="397" y="234" type="line"/>
      <point x="420" y="265"/>
      <point x="434" y="304"/>
      <point x="434" y="347" type="curve" smooth="yes"/>
      <point x="434" y="390"/>
      <point x="420" y="429"/>
      <point x="397" y="459" type="curve"/>
      <point x="452" y="515" type="line" smooth="yes"/>
      <point x="456" y="519"/>
      <point x="458" y="524"/>
      <point x="458" y="530" type="curve" smooth="yes"/>
      <point x="458" y="542"/>
      <point x="449" y="551"/>
      <point x="437" y="551" type="curve" smooth="yes"/>
      <point x="431" y="551"/>
      <point x="426" y="549"/>
      <point x="422" y="545" type="curve" smooth="yes"/>
      <point x="367" y="489" type="line"/>
      <point x="336" y="513"/>
      <point x="297" y="527"/>
      <point x="254" y="527" type="curve" smooth="yes"/>
      <point x="211" y="527"/>
      <point x="172" y="513"/>
      <point x="141" y="490" type="curve"/>
      <point x="86" y="546" type="line" smooth="yes"/>
      <point x="82" y="550"/>
      <point x="77" y="552"/>
      <point x="71" y="552" type="curve" smooth="yes"/>
      <point x="59" y="552"/>
      <point x="50" y="543"/>
      <point x="50" y="531" type="curve" smooth="yes"/>
      <point x="50" y="525"/>
      <point x="52" y="520"/>
      <point x="56" y="516" type="curve" smooth="yes"/>
      <point x="111" y="460" type="line"/>
      <point x="87" y="430"/>
      <point x="73" y="391"/>
      <point x="73" y="347" type="curve" smooth="yes"/>
      <point x="73" y="303"/>
      <point x="87" y="264"/>
      <point x="111" y="233" type="curve"/>
      <point x="56" y="178" type="line" smooth="yes"/>
      <point x="52" y="174"/>
      <point x="50" y="169"/>
      <point x="50" y="163" type="curve" smooth="yes"/>
      <point x="50" y="151"/>
      <point x="59" y="142"/>
      <point x="71" y="142" type="curve" smooth="yes"/>
      <point x="77" y="142"/>
    </contour>
    <contour>
      <point x="115" y="267"/>
      <point x="115" y="347" type="curve" smooth="yes"/>
      <point x="115" y="426"/>
      <point x="174" y="485"/>
      <point x="254" y="485" type="curve" smooth="yes"/>
      <point x="333" y="485"/>
      <point x="392" y="426"/>
      <point x="392" y="347" type="curve" smooth="yes"/>
      <point x="392" y="267"/>
      <point x="333" y="208"/>
      <point x="254" y="208" type="curve" smooth="yes"/>
      <point x="174" y="208"/>
    </contour>
  </outline>
</glyph>
<glyph name="yen" format="2">
  <advance width="517"/>
  <unicode hex="00A5"/>
  <outline>
    <contour>
      <point x="277" y="7"/>
      <point x="277" y="21" type="curve" smooth="yes"/>
      <point x="277" y="250" type="line"/>
      <point x="502" y="600" type="line"/>
      <point x="510" y="611"/>
      <point x="507" y="622"/>
      <point x="496" y="629" type="curve" smooth="yes"/>
      <point x="485" y="636"/>
      <point x="474" y="634"/>
      <point x="467" y="623" type="curve" smooth="yes"/>
      <point x="248" y="283" type="line"/>
      <point x="263" y="283" type="line"/>
      <point x="50" y="623" type="line" smooth="yes"/>
      <point x="43" y="634"/>
      <point x="33" y="636"/>
      <point x="21" y="629" type="curve" smooth="yes"/>
      <point x="9" y="622"/>
      <point x="7" y="612"/>
      <point x="15" y="600" type="curve"/>
      <point x="235" y="250" type="line"/>
      <point x="235" y="21" type="line" smooth="yes"/>
      <point x="235" y="7"/>
      <point x="242" y="0"/>
      <point x="256" y="0" type="curve" smooth="yes"/>
      <point x="270" y="0"/>
    </contour>
    <contour>
      <point x="112" y="237" type="curve" smooth="yes"/>
      <point x="401" y="237" type="line" smooth="yes"/>
      <point x="413" y="237"/>
      <point x="422" y="246"/>
      <point x="422" y="258" type="curve" smooth="yes"/>
      <point x="422" y="270"/>
      <point x="413" y="279"/>
      <point x="401" y="279" type="curve" smooth="yes"/>
      <point x="112" y="279" type="line" smooth="yes"/>
      <point x="100" y="279"/>
      <point x="91" y="270"/>
      <point x="91" y="258" type="curve" smooth="yes"/>
      <point x="91" y="246"/>
      <point x="100" y="237"/>
    </contour>
    <contour>
      <point x="112" y="149" type="curve" smooth="yes"/>
      <point x="401" y="149" type="line" smooth="yes"/>
      <point x="413" y="149"/>
      <point x="422" y="158"/>
      <point x="422" y="170" type="curve" smooth="yes"/>
      <point x="422" y="182"/>
      <point x="413" y="191"/>
      <point x="401" y="191" type="curve" smooth="yes"/>
      <point x="112" y="191" type="line" smooth="yes"/>
      <point x="100" y="191"/>
      <point x="91" y="182"/>
      <point x="91" y="170" type="curve" smooth="yes"/>
      <point x="91" y="158"/>
      <point x="100" y="149"/>
    </contour>
  </outline>
</glyph>
<glyph name="brokenbar" format="2">
  <advance width="202"/>
  <unicode hex="00A6"/>
  <outline>
    <contour>
      <point x="122" y="-132"/>
      <point x="122" y="-120" type="curve" smooth="yes"/>
      <point x="122" y="167" type="line" smooth="yes"/>
      <point x="122" y="179"/>
      <point x="113" y="188"/>
      <point x="101" y="188" type="curve" smooth="yes"/>
      <point x="89" y="188"/>
      <point x="80" y="179"/>
      <point x="80" y="167" type="curve" smooth="yes"/>
      <point x="80" y="-120" type="line" smooth="yes"/>
      <point x="80" y="-132"/>
      <point x="89" y="-141"/>
      <point x="101" y="-141" type="curve" smooth="yes"/>
      <point x="113" y="-141"/>
    </contour>
    <contour>
      <point x="122" y="377"/>
      <point x="122" y="389" type="curve" smooth="yes"/>
      <point x="122" y="674" type="line" smooth="yes"/>
      <point x="122" y="686"/>
      <point x="113" y="695"/>
      <point x="101" y="695" type="curve" smooth="yes"/>
      <point x="89" y="695"/>
      <point x="80" y="686"/>
      <point x="80" y="674" type="curve" smooth="yes"/>
      <point x="80" y="389" type="line" smooth="yes"/>
      <point x="80" y="377"/>
      <point x="89" y="368"/>
      <point x="101" y="368" type="curve" smooth="yes"/>
      <point x="113" y="368"/>
    </contour>
  </outline>
</glyph>
<glyph name="section" format="2">
  <advance width="536"/>
  <unicode hex="00A7"/>
  <outline>
    <contour>
      <point x="446" y="202"/>
      <point x="446" y="282" type="curve" smooth="yes"/>
      <point x="446" y="354"/>
      <point x="414" y="393"/>
      <point x="334" y="422" type="curve" smooth="yes"/>
      <point x="235" y="457" type="line" smooth="yes"/>
      <point x="177" y="477"/>
      <point x="156" y="501"/>
      <point x="156" y="546" type="curve" smooth="yes"/>
      <point x="156" y="585"/>
      <point x="175" y="601"/>
      <point x="228" y="601" type="curve" smooth="yes"/>
      <point x="326" y="601" type="line" smooth="yes"/>
      <point x="379" y="601"/>
      <point x="396" y="584"/>
      <point x="396" y="530" type="curve" smooth="yes"/>
      <point x="396" y="516"/>
      <point x="403" y="509"/>
      <point x="417" y="509" type="curve" smooth="yes"/>
      <point x="431" y="509"/>
      <point x="438" y="516"/>
      <point x="438" y="530" type="curve" smooth="yes"/>
      <point x="438" y="607"/>
      <point x="402" y="643"/>
      <point x="326" y="643" type="curve" smooth="yes"/>
      <point x="228" y="643" type="line" smooth="yes"/>
      <point x="153" y="643"/>
      <point x="114" y="610"/>
      <point x="114" y="546" type="curve" smooth="yes"/>
      <point x="114" y="482"/>
      <point x="147" y="443"/>
      <point x="221" y="417" type="curve" smooth="yes"/>
      <point x="320" y="382" type="line" smooth="yes"/>
      <point x="384" y="359"/>
      <point x="404" y="335"/>
      <point x="404" y="282" type="curve" smooth="yes"/>
      <point x="404" y="216"/>
      <point x="380" y="188"/>
      <point x="322" y="188" type="curve" smooth="yes"/>
      <point x="310" y="188"/>
      <point x="301" y="179"/>
      <point x="301" y="167" type="curve" smooth="yes"/>
      <point x="301" y="165"/>
      <point x="310" y="164"/>
      <point x="322" y="161" type="curve" smooth="yes"/>
      <point x="404" y="161"/>
    </contour>
    <contour>
      <point x="213" y="-72" type="curve" smooth="yes"/>
      <point x="327" y="-72" type="line" smooth="yes"/>
      <point x="416" y="-72"/>
      <point x="456" y="-32"/>
      <point x="456" y="57" type="curve" smooth="yes"/>
      <point x="456" y="126"/>
      <point x="429" y="154"/>
      <point x="333" y="185" type="curve" smooth="yes"/>
      <point x="209" y="225" type="line" smooth="yes"/>
      <point x="140" y="247"/>
      <point x="122" y="269"/>
      <point x="122" y="328" type="curve" smooth="yes"/>
      <point x="122" y="397"/>
      <point x="145" y="420"/>
      <point x="213" y="420" type="curve" smooth="yes"/>
      <point x="225" y="420"/>
      <point x="234" y="429"/>
      <point x="234" y="441" type="curve" smooth="yes"/>
      <point x="234" y="441"/>
      <point x="225" y="441"/>
      <point x="213" y="447" type="curve" smooth="yes"/>
      <point x="122" y="447"/>
      <point x="80" y="410"/>
      <point x="80" y="328" type="curve" smooth="yes"/>
      <point x="80" y="249"/>
      <point x="110" y="212"/>
      <point x="197" y="185" type="curve" smooth="yes"/>
      <point x="321" y="145" type="line" smooth="yes"/>
      <point x="400" y="119"/>
      <point x="414" y="104"/>
      <point x="414" y="57" type="curve" smooth="yes"/>
      <point x="414" y="-8"/>
      <point x="392" y="-30"/>
      <point x="327" y="-30" type="curve" smooth="yes"/>
      <point x="213" y="-30" type="line" smooth="yes"/>
      <point x="148" y="-30"/>
      <point x="126" y="-8"/>
      <point x="126" y="57" type="curve" smooth="yes"/>
      <point x="126" y="71"/>
      <point x="119" y="78"/>
      <point x="105" y="78" type="curve" smooth="yes"/>
      <point x="91" y="78"/>
      <point x="84" y="71"/>
      <point x="84" y="57" type="curve" smooth="yes"/>
      <point x="84" y="-32"/>
      <point x="124" y="-72"/>
    </contour>
  </outline>
</glyph>
<glyph name="copyright" format="2">
  <advance width="790"/>
  <unicode hex="00A9"/>
  <outline>
    <contour>
      <point x="710" y="133"/>
      <point x="710" y="317" type="curve" smooth="yes"/>
      <point x="710" y="501"/>
      <point x="579" y="633"/>
      <point x="395" y="633" type="curve" smooth="yes"/>
      <point x="211" y="633"/>
      <point x="80" y="501"/>
      <point x="80" y="317" type="curve" smooth="yes"/>
      <point x="80" y="133"/>
      <point x="211" y="0"/>
      <point x="395" y="0" type="curve" smooth="yes"/>
      <point x="579" y="0"/>
    </contour>
    <contour>
      <point x="122" y="157"/>
      <point x="122" y="317" type="curve" smooth="yes"/>
      <point x="122" y="477"/>
      <point x="235" y="591"/>
      <point x="395" y="591" type="curve" smooth="yes"/>
      <point x="555" y="591"/>
      <point x="668" y="477"/>
      <point x="668" y="317" type="curve" smooth="yes"/>
      <point x="668" y="157"/>
      <point x="555" y="42"/>
      <point x="395" y="42" type="curve" smooth="yes"/>
      <point x="235" y="42"/>
    </contour>
    <contour>
      <point x="379" y="142" type="curve" smooth="yes"/>
      <point x="423" y="142" type="line" smooth="yes"/>
      <point x="504" y="142"/>
      <point x="542" y="172"/>
      <point x="542" y="239" type="curve" smooth="yes"/>
      <point x="542" y="251"/>
      <point x="533" y="260"/>
      <point x="521" y="260" type="curve" smooth="yes"/>
      <point x="509" y="260"/>
      <point x="500" y="251"/>
      <point x="500" y="239" type="curve" smooth="yes"/>
      <point x="500" y="198"/>
      <point x="482" y="184"/>
      <point x="423" y="184" type="curve" smooth="yes"/>
      <point x="379" y="184" type="line" smooth="yes"/>
      <point x="311" y="184"/>
      <point x="288" y="207"/>
      <point x="288" y="274" type="curve" smooth="yes"/>
      <point x="288" y="357" type="line" smooth="yes"/>
      <point x="288" y="427"/>
      <point x="311" y="448"/>
      <point x="379" y="448" type="curve" smooth="yes"/>
      <point x="423" y="448" type="line" smooth="yes"/>
      <point x="482" y="448"/>
      <point x="500" y="434"/>
      <point x="500" y="393" type="curve" smooth="yes"/>
      <point x="500" y="381"/>
      <point x="509" y="372"/>
      <point x="521" y="372" type="curve" smooth="yes"/>
      <point x="533" y="372"/>
      <point x="542" y="381"/>
      <point x="542" y="393" type="curve" smooth="yes"/>
      <point x="542" y="460"/>
      <point x="504" y="490"/>
      <point x="423" y="490" type="curve" smooth="yes"/>
      <point x="379" y="490" type="line" smooth="yes"/>
      <point x="287" y="490"/>
      <point x="246" y="450"/>
      <point x="246" y="357" type="curve" smooth="yes"/>
      <point x="246" y="274" type="line" smooth="yes"/>
      <point x="246" y="183"/>
      <point x="287" y="142"/>
    </contour>
  </outline>
</glyph>
<glyph name="ordfeminine" format="2">
  <advance width="415"/>
  <unicode hex="00AA"/>
  <outline>
    <contour>
      <point x="344" y="319" type="curve" smooth="yes"/>
      <point x="358" y="319"/>
      <point x="365" y="326"/>
      <point x="365" y="340" type="curve" smooth="yes"/>
      <point x="365" y="519" type="line" smooth="yes"/>
      <point x="365" y="605"/>
      <point x="326" y="644"/>
      <point x="240" y="644" type="curve" smooth="yes"/>
      <point x="184" y="644" type="line" smooth="yes"/>
      <point x="106" y="644"/>
      <point x="66" y="621"/>
      <point x="58" y="570" type="curve" smooth="yes"/>
      <point x="55" y="556"/>
      <point x="64" y="548"/>
      <point x="78" y="548" type="curve" smooth="yes"/>
      <point x="91" y="548"/>
      <point x="97" y="555"/>
      <point x="100" y="568" type="curve" smooth="yes"/>
      <point x="107" y="593"/>
      <point x="129" y="602"/>
      <point x="184" y="602" type="curve" smooth="yes"/>
      <point x="240" y="602" type="line" smooth="yes"/>
      <point x="302" y="602"/>
      <point x="323" y="581"/>
      <point x="323" y="519" type="curve" smooth="yes"/>
      <point x="323" y="340" type="line" smooth="yes"/>
      <point x="323" y="326"/>
      <point x="330" y="319"/>
    </contour>
    <contour>
      <point x="155" y="319" type="curve" smooth="yes"/>
      <point x="210" y="319" type="line" smooth="yes"/>
      <point x="289" y="319"/>
      <point x="335" y="354"/>
      <point x="344" y="420" type="curve"/>
      <point x="323" y="422" type="line"/>
      <point x="323" y="380"/>
      <point x="277" y="361"/>
      <point x="210" y="361" type="curve" smooth="yes"/>
      <point x="155" y="361" type="line" smooth="yes"/>
      <point x="106" y="361"/>
      <point x="92" y="376"/>
      <point x="92" y="424" type="curve" smooth="yes"/>
      <point x="92" y="473"/>
      <point x="107" y="487"/>
      <point x="155" y="487" type="curve" smooth="yes"/>
      <point x="323" y="487" type="line" smooth="yes"/>
      <point x="337" y="487"/>
      <point x="344" y="494"/>
      <point x="344" y="508" type="curve" smooth="yes"/>
      <point x="344" y="522"/>
      <point x="337" y="529"/>
      <point x="323" y="529" type="curve" smooth="yes"/>
      <point x="155" y="529" type="line" smooth="yes"/>
      <point x="83" y="529"/>
      <point x="50" y="496"/>
      <point x="50" y="424" type="curve" smooth="yes"/>
      <point x="50" y="352"/>
      <point x="83" y="319"/>
    </contour>
  </outline>
</glyph>
<glyph name="logicalnot" format="2">
  <advance width="545"/>
  <unicode hex="00AC"/>
  <outline>
    <contour>
      <point x="480" y="225"/>
      <point x="480" y="239" type="curve" smooth="yes"/>
      <point x="480" y="355" type="line" smooth="yes"/>
      <point x="480" y="369"/>
      <point x="473" y="376"/>
      <point x="459" y="376" type="curve" smooth="yes"/>
      <point x="89" y="376" type="line" smooth="yes"/>
      <point x="75" y="376"/>
      <point x="68" y="369"/>
      <point x="68" y="355" type="curve" smooth="yes"/>
      <point x="68" y="341"/>
      <point x="75" y="334"/>
      <point x="89" y="334" type="curve" smooth="yes"/>
      <point x="438" y="334" type="line"/>
      <point x="438" y="239" type="line" smooth="yes"/>
      <point x="438" y="225"/>
      <point x="445" y="218"/>
      <point x="459" y="218" type="curve" smooth="yes"/>
      <point x="473" y="218"/>
    </contour>
  </outline>
</glyph>
<glyph name="registered" format="2">
  <advance width="790"/>
  <unicode hex="00AE"/>
  <outline>
    <contour>
      <point x="710" y="131"/>
      <point x="710" y="315" type="curve" smooth="yes"/>
      <point x="710" y="499"/>
      <point x="579" y="630"/>
      <point x="395" y="630" type="curve" smooth="yes"/>
      <point x="211" y="630"/>
      <point x="80" y="499"/>
      <point x="80" y="315" type="curve" smooth="yes"/>
      <point x="80" y="131"/>
      <point x="211" y="0"/>
      <point x="395" y="0" type="curve" smooth="yes"/>
      <point x="579" y="0"/>
    </contour>
    <contour>
      <point x="122" y="155"/>
      <point x="122" y="315" type="curve" smooth="yes"/>
      <point x="122" y="475"/>
      <point x="235" y="588"/>
      <point x="395" y="588" type="curve" smooth="yes"/>
      <point x="555" y="588"/>
      <point x="668" y="475"/>
      <point x="668" y="315" type="curve" smooth="yes"/>
      <point x="668" y="155"/>
      <point x="555" y="42"/>
      <point x="395" y="42" type="curve" smooth="yes"/>
      <point x="235" y="42"/>
    </contour>
    <contour>
      <point x="326" y="160"/>
      <point x="326" y="174" type="curve" smooth="yes"/>
      <point x="326" y="282" type="line"/>
      <point x="414" y="282" type="line"/>
      <point x="477" y="163" type="line" smooth="yes"/>
      <point x="483" y="151"/>
      <point x="493" y="148"/>
      <point x="505" y="154" type="curve" smooth="yes"/>
      <point x="517" y="160"/>
      <point x="520" y="170"/>
      <point x="514" y="182" type="curve" smooth="yes"/>
      <point x="458" y="287" type="line"/>
      <point x="496" y="298"/>
      <point x="517" y="330"/>
      <point x="517" y="378" type="curve" smooth="yes"/>
      <point x="517" y="393" type="line" smooth="yes"/>
      <point x="517" y="454"/>
      <point x="483" y="488"/>
      <point x="422" y="488" type="curve" smooth="yes"/>
      <point x="305" y="488" type="line" smooth="yes"/>
      <point x="291" y="488"/>
      <point x="284" y="481"/>
      <point x="284" y="467" type="curve" smooth="yes"/>
      <point x="284" y="174" type="line" smooth="yes"/>
      <point x="284" y="160"/>
      <point x="291" y="153"/>
      <point x="305" y="153" type="curve" smooth="yes"/>
      <point x="319" y="153"/>
    </contour>
    <contour>
      <point x="326" y="324" type="line"/>
      <point x="326" y="446" type="line"/>
      <point x="422" y="446" type="line" smooth="yes"/>
      <point x="460" y="446"/>
      <point x="475" y="431"/>
      <point x="475" y="393" type="curve" smooth="yes"/>
      <point x="475" y="378" type="line" smooth="yes"/>
      <point x="475" y="339"/>
      <point x="460" y="324"/>
      <point x="422" y="324" type="curve" smooth="yes"/>
    </contour>
  </outline>
</glyph>
<glyph name="macron" format="2">
  <advance width="395"/>
  <unicode hex="00AF"/>
  <outline>
    <contour>
      <point x="71" y="584" type="curve" smooth="yes"/>
      <point x="324" y="584" type="line" smooth="yes"/>
      <point x="338" y="584"/>
      <point x="345" y="591"/>
      <point x="345" y="605" type="curve" smooth="yes"/>
      <point x="345" y="619"/>
      <point x="338" y="626"/>
      <point x="324" y="626" type="curve" smooth="yes"/>
      <point x="71" y="626" type="line" smooth="yes"/>
      <point x="57" y="626"/>
      <point x="50" y="619"/>
      <point x="50" y="605" type="curve" smooth="yes"/>
      <point x="50" y="591"/>
      <point x="57" y="584"/>
    </contour>
  </outline>
</glyph>
<glyph name="degree" format="2">
  <advance width="275"/>
  <unicode hex="00B0"/>
  <outline>
    <contour>
      <point x="126" y="446" type="curve" smooth="yes"/>
      <point x="149" y="446" type="line" smooth="yes"/>
      <point x="198" y="446"/>
      <point x="225" y="473"/>
      <point x="225" y="522" type="curve" smooth="yes"/>
      <point x="225" y="594" type="line" smooth="yes"/>
      <point x="225" y="643"/>
      <point x="198" y="670"/>
      <point x="149" y="670" type="curve" smooth="yes"/>
      <point x="126" y="670" type="line" smooth="yes"/>
      <point x="77" y="670"/>
      <point x="50" y="643"/>
      <point x="50" y="594" type="curve" smooth="yes"/>
      <point x="50" y="522" type="line" smooth="yes"/>
      <point x="50" y="473"/>
      <point x="77" y="446"/>
    </contour>
    <contour>
      <point x="92" y="497"/>
      <point x="92" y="522" type="curve" smooth="yes"/>
      <point x="92" y="594" type="line" smooth="yes"/>
      <point x="92" y="619"/>
      <point x="101" y="628"/>
      <point x="126" y="628" type="curve" smooth="yes"/>
      <point x="149" y="628" type="line" smooth="yes"/>
      <point x="174" y="628"/>
      <point x="183" y="619"/>
      <point x="183" y="594" type="curve" smooth="yes"/>
      <point x="183" y="522" type="line" smooth="yes"/>
      <point x="183" y="497"/>
      <point x="174" y="488"/>
      <point x="149" y="488" type="curve" smooth="yes"/>
      <point x="126" y="488" type="line" smooth="yes"/>
      <point x="101" y="488"/>
    </contour>
  </outline>
</glyph>
<glyph name="plusminus" format="2">
  <advance width="545"/>
  <unicode hex="00B1"/>
  <outline>
    <contour>
      <point x="233" y="499" type="curve" smooth="yes"/>
      <point x="233" y="233" type="line" smooth="yes"/>
      <point x="233" y="221"/>
      <point x="242" y="212"/>
      <point x="254" y="212" type="curve" smooth="yes"/>
      <point x="266" y="212"/>
      <point x="275" y="221"/>
      <point x="275" y="233" type="curve" smooth="yes"/>
      <point x="275" y="499" type="line" smooth="yes"/>
      <point x="275" y="511"/>
      <point x="266" y="520"/>
      <point x="254" y="520" type="curve" smooth="yes"/>
      <point x="242" y="520"/>
      <point x="233" y="511"/>
    </contour>
    <component base="endash" yOffset="96"/>
    <component base="endash" yOffset="-104"/>
  </outline>
</glyph>
<glyph name="twosuperior" format="2">
  <advance width="349"/>
  <unicode hex="00B2"/>
  <outline>
    <contour>
      <point x="268" y="319" type="line" smooth="yes"/>
      <point x="281" y="319"/>
      <point x="289" y="326"/>
      <point x="289" y="340" type="curve" smooth="yes"/>
      <point x="289" y="354"/>
      <point x="281" y="361"/>
      <point x="268" y="361" type="curve" smooth="yes"/>
      <point x="108" y="361" type="line"/>
      <point x="115" y="400"/>
      <point x="145" y="416"/>
      <point x="189" y="441" type="curve" smooth="yes"/>
      <point x="237" y="468"/>
      <point x="283" y="490"/>
      <point x="283" y="546" type="curve" smooth="yes"/>
      <point x="283" y="605"/>
      <point x="255" y="633"/>
      <point x="196" y="633" type="curve" smooth="yes"/>
      <point x="146" y="633" type="line" smooth="yes"/>
      <point x="95" y="633"/>
      <point x="67" y="612"/>
      <point x="60" y="568" type="curve" smooth="yes"/>
      <point x="58" y="554"/>
      <point x="67" y="546"/>
      <point x="81" y="546" type="curve" smooth="yes"/>
      <point x="94" y="546"/>
      <point x="100" y="553"/>
      <point x="103" y="566" type="curve" smooth="yes"/>
      <point x="107" y="585"/>
      <point x="119" y="591"/>
      <point x="146" y="591" type="curve" smooth="yes"/>
      <point x="196" y="591" type="line" smooth="yes"/>
      <point x="231" y="591"/>
      <point x="241" y="581"/>
      <point x="241" y="546" type="curve" smooth="yes"/>
      <point x="241" y="516"/>
      <point x="218" y="506"/>
      <point x="168" y="477" type="curve" smooth="yes"/>
      <point x="118" y="448"/>
      <point x="64" y="421"/>
      <point x="64" y="340" type="curve" smooth="yes"/>
      <point x="64" y="326"/>
      <point x="72" y="319"/>
      <point x="85" y="319" type="curve" smooth="yes"/>
    </contour>
  </outline>
</glyph>
<glyph name="threesuperior" format="2">
  <advance width="305"/>
  <unicode hex="00B3"/>
  <outline>
    <contour>
      <point x="141" y="319" type="curve" smooth="yes"/>
      <point x="193" y="319" type="line" smooth="yes"/>
      <point x="255" y="319"/>
      <point x="285" y="348"/>
      <point x="285" y="410" type="curve" smooth="yes"/>
      <point x="285" y="472"/>
      <point x="256" y="501"/>
      <point x="193" y="501" type="curve" smooth="yes"/>
      <point x="159" y="501" type="line" smooth="yes"/>
      <point x="145" y="501"/>
      <point x="138" y="494"/>
      <point x="138" y="480" type="curve" smooth="yes"/>
      <point x="138" y="466"/>
      <point x="145" y="459"/>
      <point x="159" y="459" type="curve" smooth="yes"/>
      <point x="193" y="459" type="line" smooth="yes"/>
      <point x="232" y="459"/>
      <point x="243" y="449"/>
      <point x="243" y="410" type="curve" smooth="yes"/>
      <point x="243" y="372"/>
      <point x="232" y="361"/>
      <point x="193" y="361" type="curve" smooth="yes"/>
      <point x="141" y="361" type="line" smooth="yes"/>
      <point x="110" y="361"/>
      <point x="96" y="368"/>
      <point x="92" y="390" type="curve" smooth="yes"/>
      <point x="90" y="403"/>
      <point x="84" y="410"/>
      <point x="70" y="410" type="curve" smooth="yes"/>
      <point x="56" y="410"/>
      <point x="48" y="402"/>
      <point x="50" y="388" type="curve" smooth="yes"/>
      <point x="57" y="341"/>
      <point x="86" y="319"/>
    </contour>
    <contour>
      <point x="190" y="473" type="line"/>
      <point x="249" y="479"/>
      <point x="278" y="502"/>
      <point x="278" y="546" type="curve" smooth="yes"/>
      <point x="278" y="605"/>
      <point x="249" y="633"/>
      <point x="191" y="633" type="curve" smooth="yes"/>
      <point x="142" y="633" type="line" smooth="yes"/>
      <point x="90" y="633"/>
      <point x="62" y="612"/>
      <point x="56" y="568" type="curve" smooth="yes"/>
      <point x="54" y="554"/>
      <point x="62" y="546"/>
      <point x="76" y="546" type="curve" smooth="yes"/>
      <point x="90" y="546"/>
      <point x="95" y="553"/>
      <point x="98" y="566" type="curve" smooth="yes"/>
      <point x="102" y="585"/>
      <point x="114" y="591"/>
      <point x="142" y="591" type="curve" smooth="yes"/>
      <point x="191" y="591" type="line" smooth="yes"/>
      <point x="226" y="591"/>
      <point x="236" y="581"/>
      <point x="236" y="546" type="curve" smooth="yes"/>
      <point x="236" y="518"/>
      <point x="225" y="501"/>
      <point x="190" y="501" type="curve"/>
    </contour>
  </outline>
</glyph>
<glyph name="micro" format="2">
  <advance width="603"/>
  <unicode hex="00B5"/>
  <outline>
    <contour>
      <point x="503" y="67"/>
      <point x="503" y="113" type="curve" smooth="yes"/>
      <point x="503" y="440" type="line" smooth="yes"/>
      <point x="503" y="454"/>
      <point x="496" y="461"/>
      <point x="482" y="461" type="curve" smooth="yes"/>
      <point x="468" y="461"/>
      <point x="461" y="454"/>
      <point x="461" y="440" type="curve" smooth="yes"/>
      <point x="461" y="152" type="line" smooth="yes"/>
      <point x="461" y="79"/>
      <point x="393" y="43"/>
      <point x="284" y="43" type="curve" smooth="yes"/>
      <point x="256" y="43" type="line" smooth="yes"/>
      <point x="158" y="43"/>
      <point x="123" y="78"/>
      <point x="123" y="176" type="curve" smooth="yes"/>
      <point x="123" y="440" type="line" smooth="yes"/>
      <point x="123" y="454"/>
      <point x="116" y="461"/>
      <point x="102" y="461" type="curve" smooth="yes"/>
      <point x="88" y="461"/>
      <point x="81" y="454"/>
      <point x="81" y="440" type="curve" smooth="yes"/>
      <point x="81" y="-71" type="line" smooth="yes"/>
      <point x="81" y="-85"/>
      <point x="88" y="-92"/>
      <point x="102" y="-92" type="curve" smooth="yes"/>
      <point x="116" y="-92"/>
      <point x="123" y="-85"/>
      <point x="123" y="-71" type="curve" smooth="yes"/>
      <point x="123" y="67" type="line"/>
      <point x="146" y="21"/>
      <point x="189" y="1"/>
      <point x="256" y="1" type="curve" smooth="yes"/>
      <point x="284" y="1" type="line" smooth="yes"/>
      <point x="371" y="1"/>
      <point x="432" y="26"/>
      <point x="465" y="73" type="curve"/>
      <point x="475" y="30"/>
      <point x="503" y="3"/>
      <point x="551" y="0" type="curve" smooth="yes"/>
      <point x="565" y="-1"/>
      <point x="573" y="7"/>
      <point x="573" y="21" type="curve" smooth="yes"/>
      <point x="573" y="34"/>
      <point x="566" y="40"/>
      <point x="552" y="42" type="curve" smooth="yes"/>
      <point x="515" y="47"/>
    </contour>
  </outline>
</glyph>
<glyph name="paragraph" format="2">
  <advance width="520"/>
  <unicode hex="00B6"/>
  <outline>
    <contour>
      <point x="300" y="-175"/>
      <point x="300" y="-163" type="curve" smooth="yes"/>
      <point x="300" y="602" type="line"/>
      <point x="388" y="602" type="line"/>
      <point x="388" y="-163" type="line" smooth="yes"/>
      <point x="388" y="-175"/>
      <point x="397" y="-184"/>
      <point x="409" y="-184" type="curve" smooth="yes"/>
      <point x="421" y="-184"/>
      <point x="430" y="-175"/>
      <point x="430" y="-163" type="curve" smooth="yes"/>
      <point x="430" y="623" type="line" smooth="yes"/>
      <point x="430" y="637"/>
      <point x="423" y="644"/>
      <point x="409" y="644" type="curve" smooth="yes"/>
      <point x="193" y="644" type="line" smooth="yes"/>
      <point x="85" y="644"/>
      <point x="30" y="589"/>
      <point x="30" y="481" type="curve" smooth="yes"/>
      <point x="30" y="452" type="line" smooth="yes"/>
      <point x="30" y="345"/>
      <point x="85" y="290"/>
      <point x="193" y="290" type="curve" smooth="yes"/>
      <point x="258" y="290" type="line"/>
      <point x="258" y="-163" type="line" smooth="yes"/>
      <point x="258" y="-175"/>
      <point x="267" y="-184"/>
      <point x="279" y="-184" type="curve" smooth="yes"/>
      <point x="291" y="-184"/>
    </contour>
  </outline>
</glyph>
<glyph name="cedilla" format="2">
  <advance width="286"/>
  <unicode hex="00B8"/>
  <outline>
    <contour>
      <point x="133" y="-200" type="curve" smooth="yes"/>
      <point x="204" y="-200"/>
      <point x="236" y="-168"/>
      <point x="236" y="-97" type="curve" smooth="yes"/>
      <point x="236" y="-56"/>
      <point x="209" y="-38"/>
      <point x="191" y="-26" type="curve" smooth="yes"/>
      <point x="168" y="-11"/>
      <point x="163" y="-3"/>
      <point x="163" y="15" type="curve" smooth="yes"/>
      <point x="163" y="29"/>
      <point x="156" y="36"/>
      <point x="142" y="36" type="curve" smooth="yes"/>
      <point x="128" y="36"/>
      <point x="121" y="29"/>
      <point x="121" y="15" type="curve" smooth="yes"/>
      <point x="121" y="-29"/>
      <point x="149" y="-48"/>
      <point x="168" y="-61" type="curve" smooth="yes"/>
      <point x="189" y="-76"/>
      <point x="194" y="-82"/>
      <point x="194" y="-97" type="curve" smooth="yes"/>
      <point x="194" y="-144"/>
      <point x="180" y="-158"/>
      <point x="133" y="-158" type="curve" smooth="yes"/>
      <point x="101" y="-158"/>
      <point x="92" y="-149"/>
      <point x="92" y="-117" type="curve" smooth="yes"/>
      <point x="92" y="-103"/>
      <point x="85" y="-96"/>
      <point x="71" y="-96" type="curve" smooth="yes"/>
      <point x="57" y="-96"/>
      <point x="50" y="-103"/>
      <point x="50" y="-117" type="curve" smooth="yes"/>
      <point x="50" y="-173"/>
      <point x="77" y="-200"/>
    </contour>
  </outline>
</glyph>
<glyph name="onesuperior" format="2">
  <advance width="271"/>
  <unicode hex="00B9"/>
  <outline>
    <contour>
      <point x="190" y="319" type="curve" smooth="yes"/>
      <point x="204" y="319"/>
      <point x="211" y="327"/>
      <point x="211" y="340" type="curve" smooth="yes"/>
      <point x="211" y="612" type="line" smooth="yes"/>
      <point x="211" y="626"/>
      <point x="204" y="633"/>
      <point x="190" y="633" type="curve" smooth="yes"/>
      <point x="179" y="633"/>
      <point x="172" y="630"/>
      <point x="164" y="622" type="curve" smooth="yes"/>
      <point x="87" y="548" type="line" smooth="yes"/>
      <point x="78" y="538"/>
      <point x="78" y="528"/>
      <point x="87" y="518" type="curve" smooth="yes"/>
      <point x="97" y="508"/>
      <point x="107" y="508"/>
      <point x="117" y="518" type="curve"/>
      <point x="190" y="591" type="line"/>
      <point x="169" y="590" type="line"/>
      <point x="169" y="340" type="line" smooth="yes"/>
      <point x="169" y="327"/>
      <point x="177" y="319"/>
    </contour>
  </outline>
</glyph>
<glyph name="ordmasculine" format="2">
  <advance width="416"/>
  <unicode hex="00BA"/>
  <outline>
    <contour>
      <point x="175" y="319" type="curve" smooth="yes"/>
      <point x="241" y="319" type="line" smooth="yes"/>
      <point x="327" y="319"/>
      <point x="366" y="358"/>
      <point x="366" y="445" type="curve" smooth="yes"/>
      <point x="366" y="519" type="line" smooth="yes"/>
      <point x="366" y="605"/>
      <point x="327" y="644"/>
      <point x="241" y="644" type="curve" smooth="yes"/>
      <point x="175" y="644" type="line" smooth="yes"/>
      <point x="89" y="645"/>
      <point x="50" y="606"/>
      <point x="50" y="519" type="curve" smooth="yes"/>
      <point x="50" y="444" type="line" smooth="yes"/>
      <point x="50" y="358"/>
      <point x="89" y="319"/>
    </contour>
    <contour>
      <point x="175" y="361" type="line" smooth="yes"/>
      <point x="113" y="361"/>
      <point x="92" y="382"/>
      <point x="92" y="444" type="curve" smooth="yes"/>
      <point x="92" y="519" type="line" smooth="yes"/>
      <point x="92" y="583"/>
      <point x="113" y="603"/>
      <point x="175" y="602" type="curve" smooth="yes"/>
      <point x="241" y="602" type="line" smooth="yes"/>
      <point x="303" y="602"/>
      <point x="324" y="581"/>
      <point x="324" y="519" type="curve" smooth="yes"/>
      <point x="324" y="445" type="line" smooth="yes"/>
      <point x="324" y="382"/>
      <point x="303" y="361"/>
      <point x="241" y="361" type="curve" smooth="yes"/>
    </contour>
  </outline>
</glyph>
<glyph name="AE" format="2">
  <advance width="817"/>
  <unicode hex="00C6"/>
  <anchor x="499" y="0" name="bottom"/>
  <anchor x="508" y="633" name="top"/>
  <outline>
    <contour>
      <point x="422" y="0" type="curve" smooth="yes"/>
      <point x="761" y="0" type="line" smooth="yes"/>
      <point x="775" y="0"/>
      <point x="782" y="7"/>
      <point x="782" y="21" type="curve" smooth="yes"/>
      <point x="782" y="35"/>
      <point x="775" y="42"/>
      <point x="761" y="42" type="curve" smooth="yes"/>
      <point x="443" y="42" type="line"/>
      <point x="443" y="300" type="line"/>
      <point x="643" y="300" type="line" smooth="yes"/>
      <point x="657" y="300"/>
      <point x="664" y="307"/>
      <point x="664" y="321" type="curve" smooth="yes"/>
      <point x="664" y="335"/>
      <point x="657" y="342"/>
      <point x="643" y="342" type="curve" smooth="yes"/>
      <point x="443" y="342" type="line"/>
      <point x="443" y="591" type="line"/>
      <point x="761" y="591" type="line" smooth="yes"/>
      <point x="775" y="591"/>
      <point x="782" y="598"/>
      <point x="782" y="612" type="curve" smooth="yes"/>
      <point x="782" y="626"/>
      <point x="775" y="633"/>
      <point x="761" y="633" type="curve" smooth="yes"/>
      <point x="379" y="633" type="line" smooth="yes"/>
      <point x="368" y="633"/>
      <point x="360" y="629"/>
      <point x="355" y="618" type="curve"/>
      <point x="24" y="32" type="line" smooth="yes"/>
      <point x="17" y="20"/>
      <point x="20" y="10"/>
      <point x="32" y="3" type="curve" smooth="yes"/>
      <point x="44" y="-4"/>
      <point x="54" y="-1"/>
      <point x="61" y="11" type="curve" smooth="yes"/>
      <point x="156" y="180" type="line"/>
      <point x="401" y="179" type="line"/>
      <point x="401" y="21" type="line" smooth="yes"/>
      <point x="401" y="7"/>
      <point x="408" y="0"/>
    </contour>
    <contour>
      <point x="179" y="221" type="line"/>
      <point x="387" y="591" type="line"/>
      <point x="401" y="591" type="line"/>
      <point x="401" y="221" type="line"/>
    </contour>
  </outline>
</glyph>
<glyph name="Thorn" format="2">
  <advance width="495"/>
  <unicode hex="00DE"/>
  <outline>
    <contour>
      <point x="132" y="178" type="curve" smooth="yes"/>
      <point x="297" y="178" type="line" smooth="yes"/>
      <point x="408" y="178"/>
      <point x="465" y="235"/>
      <point x="465" y="346" type="curve" smooth="yes"/>
      <point x="465" y="376" type="line" smooth="yes"/>
      <point x="465" y="487"/>
      <point x="408" y="544"/>
      <point x="297" y="544" type="curve" smooth="yes"/>
      <point x="132" y="544" type="line" smooth="yes"/>
      <point x="118" y="544"/>
      <point x="111" y="537"/>
      <point x="111" y="523" type="curve" smooth="yes"/>
      <point x="111" y="509"/>
      <point x="118" y="502"/>
      <point x="132" y="502" type="curve" smooth="yes"/>
      <point x="297" y="502" type="line" smooth="yes"/>
      <point x="384" y="502"/>
      <point x="423" y="463"/>
      <point x="423" y="376" type="curve" smooth="yes"/>
      <point x="423" y="346" type="line" smooth="yes"/>
      <point x="423" y="259"/>
      <point x="384" y="220"/>
      <point x="297" y="220" type="curve" smooth="yes"/>
      <point x="132" y="220" type="line" smooth="yes"/>
      <point x="118" y="220"/>
      <point x="111" y="213"/>
      <point x="111" y="199" type="curve" smooth="yes"/>
      <point x="111" y="185"/>
      <point x="118" y="178"/>
    </contour>
    <contour>
      <point x="111" y="0" type="curve" smooth="yes"/>
      <point x="125" y="0"/>
      <point x="132" y="7"/>
      <point x="132" y="21" type="curve" smooth="yes"/>
      <point x="132" y="612" type="line" smooth="yes"/>
      <point x="132" y="626"/>
      <point x="125" y="633"/>
      <point x="111" y="633" type="curve" smooth="yes"/>
      <point x="97" y="633"/>
      <point x="90" y="626"/>
      <point x="90" y="612" type="curve" smooth="yes"/>
      <point x="90" y="21" type="line" smooth="yes"/>
      <point x="90" y="7"/>
      <point x="97" y="0"/>
    </contour>
  </outline>
</glyph>
<glyph name="germandbls" format="2">
  <advance width="517"/>
  <unicode hex="00DF"/>
  <outline>
    <contour>
      <point x="111" y="1" type="curve" smooth="yes"/>
      <point x="125" y="1"/>
      <point x="132" y="8"/>
      <point x="132" y="22" type="curve" smooth="yes"/>
      <point x="132" y="526" type="line" smooth="yes"/>
      <point x="132" y="616"/>
      <point x="164" y="648"/>
      <point x="254" y="648" type="curve" smooth="yes"/>
      <point x="343" y="648"/>
      <point x="375" y="616"/>
      <point x="375" y="527" type="curve" smooth="yes"/>
      <point x="375" y="445"/>
      <point x="349" y="412"/>
      <point x="275" y="407" type="curve" smooth="yes"/>
      <point x="261" y="406"/>
      <point x="254" y="399"/>
      <point x="254" y="385" type="curve" smooth="yes"/>
      <point x="254" y="371"/>
      <point x="261" y="364"/>
      <point x="275" y="364" type="curve" smooth="yes"/>
      <point x="304" y="364" type="line" smooth="yes"/>
      <point x="401" y="364"/>
      <point x="435" y="330"/>
      <point x="435" y="233" type="curve" smooth="yes"/>
      <point x="435" y="174" type="line" smooth="yes"/>
      <point x="435" y="77"/>
      <point x="401" y="43"/>
      <point x="304" y="43" type="curve" smooth="yes"/>
      <point x="243" y="43" type="line" smooth="yes"/>
      <point x="229" y="43"/>
      <point x="222" y="36"/>
      <point x="222" y="22" type="curve" smooth="yes"/>
      <point x="222" y="8"/>
      <point x="229" y="1"/>
      <point x="243" y="1" type="curve" smooth="yes"/>
      <point x="304" y="1" type="line" smooth="yes"/>
      <point x="425" y="1"/>
      <point x="477" y="53"/>
      <point x="477" y="174" type="curve" smooth="yes"/>
      <point x="477" y="233" type="line" smooth="yes"/>
      <point x="477" y="328"/>
      <point x="439" y="376"/>
      <point x="353" y="394" type="curve"/>
      <point x="397" y="421"/>
      <point x="417" y="467"/>
      <point x="417" y="527" type="curve" smooth="yes"/>
      <point x="417" y="640"/>
      <point x="367" y="690"/>
      <point x="254" y="690" type="curve" smooth="yes"/>
      <point x="140" y="690"/>
      <point x="90" y="640"/>
      <point x="90" y="526" type="curve" smooth="yes"/>
      <point x="90" y="22" type="line" smooth="yes"/>
      <point x="90" y="8"/>
      <point x="97" y="1"/>
    </contour>
  </outline>
</glyph>
<glyph name="ae" format="2">
  <advance width="910"/>
  <unicode hex="00E6"/>
  <anchor x="445" y="0" name="bottom"/>
  <anchor x="445" y="461" name="top"/>
  <outline>
    <contour>
      <point x="598" y="-1" type="curve" smooth="yes"/>
      <point x="659" y="-1" type="line" smooth="yes"/>
      <point x="777" y="-1"/>
      <point x="830" y="40"/>
      <point x="830" y="135" type="curve" smooth="yes"/>
      <point x="830" y="147"/>
      <point x="821" y="156"/>
      <point x="809" y="156" type="curve" smooth="yes"/>
      <point x="797" y="156"/>
      <point x="788" y="147"/>
      <point x="788" y="135" type="curve" smooth="yes"/>
      <point x="788" y="66"/>
      <point x="755" y="41"/>
      <point x="659" y="41" type="curve" smooth="yes"/>
      <point x="598" y="41" type="line" smooth="yes"/>
      <point x="504" y="41"/>
      <point x="470" y="77"/>
      <point x="470" y="176" type="curve" smooth="yes"/>
      <point x="470" y="249" type="line"/>
      <point x="809" y="249" type="line" smooth="yes"/>
      <point x="822" y="249"/>
      <point x="830" y="256"/>
      <point x="830" y="270" type="curve" smooth="yes"/>
      <point x="830" y="402"/>
      <point x="777" y="461"/>
      <point x="659" y="461" type="curve" smooth="yes"/>
      <point x="599" y="461" type="line" smooth="yes"/>
      <point x="523" y="462"/>
      <point x="474" y="437"/>
      <point x="449" y="382" type="curve"/>
      <point x="423" y="437"/>
      <point x="373" y="462"/>
      <point x="295" y="462" type="curve" smooth="yes"/>
      <point x="257" y="462" type="line" smooth="yes"/>
      <point x="133" y="462"/>
      <point x="78" y="423"/>
      <point x="78" y="331" type="curve" smooth="yes"/>
      <point x="78" y="319"/>
      <point x="87" y="310"/>
      <point x="99" y="310" type="curve" smooth="yes"/>
      <point x="111" y="310"/>
      <point x="120" y="319"/>
      <point x="120" y="331" type="curve" smooth="yes"/>
      <point x="120" y="396"/>
      <point x="154" y="420"/>
      <point x="257" y="420" type="curve" smooth="yes"/>
      <point x="295" y="420" type="line" smooth="yes"/>
      <point x="392" y="420"/>
      <point x="427" y="386"/>
      <point x="428" y="291" type="curve"/>
      <point x="215" y="291" type="line" smooth="yes"/>
      <point x="114" y="291"/>
      <point x="70" y="247"/>
      <point x="70" y="146" type="curve" smooth="yes"/>
      <point x="70" y="45"/>
      <point x="114" y="1"/>
      <point x="215" y="1" type="curve" smooth="yes"/>
      <point x="251" y="1" type="line" smooth="yes"/>
      <point x="346" y="1"/>
      <point x="411" y="31"/>
      <point x="445" y="88" type="curve"/>
      <point x="468" y="27"/>
      <point x="518" y="-1"/>
    </contour>
    <contour>
      <point x="215" y="43" type="line" smooth="yes"/>
      <point x="138" y="43"/>
      <point x="112" y="69"/>
      <point x="112" y="146" type="curve" smooth="yes"/>
      <point x="112" y="223"/>
      <point x="138" y="249"/>
      <point x="215" y="249" type="curve" smooth="yes"/>
      <point x="428" y="249" type="line"/>
      <point x="428" y="172" type="line" smooth="yes"/>
      <point x="428" y="86"/>
      <point x="370" y="43"/>
      <point x="251" y="43" type="curve" smooth="yes"/>
    </contour>
    <contour>
      <point x="470" y="291" type="line"/>
      <point x="471" y="386"/>
      <point x="505" y="420"/>
      <point x="599" y="419" type="curve" smooth="yes"/>
      <point x="659" y="419" type="line" smooth="yes"/>
      <point x="747" y="419"/>
      <point x="783" y="384"/>
      <point x="788" y="291" type="curve"/>
    </contour>
  </outline>
</glyph>
<glyph name="eth" format="2">
  <advance width="592"/>
  <unicode hex="00F0"/>
  <outline>
    <contour>
      <point x="383" y="653" type="curve" smooth="yes"/>
      <point x="153" y="712" type="line" smooth="yes"/>
      <point x="139" y="716"/>
      <point x="130" y="710"/>
      <point x="127" y="697" type="curve" smooth="yes"/>
      <point x="124" y="684"/>
      <point x="129" y="675"/>
      <point x="142" y="671" type="curve"/>
      <point x="373" y="613" type="line" smooth="yes"/>
      <point x="426" y="599"/>
      <point x="455" y="540"/>
      <point x="465" y="413" type="curve"/>
      <point x="437" y="446"/>
      <point x="392" y="462"/>
      <point x="337" y="462" type="curve" smooth="yes"/>
      <point x="255" y="462" type="line" smooth="yes"/>
      <point x="133" y="463"/>
      <point x="80" y="410"/>
      <point x="80" y="287" type="curve" smooth="yes"/>
      <point x="80" y="175" type="line" smooth="yes"/>
      <point x="80" y="54"/>
      <point x="133" y="1"/>
      <point x="255" y="1" type="curve" smooth="yes"/>
      <point x="337" y="1" type="line" smooth="yes"/>
      <point x="459" y="1"/>
      <point x="512" y="54"/>
      <point x="512" y="176" type="curve" smooth="yes"/>
      <point x="512" y="311" type="line" smooth="yes"/>
      <point x="510" y="531"/>
      <point x="472" y="631"/>
    </contour>
    <contour>
      <point x="470" y="176" type="line"/>
      <point x="470" y="78"/>
      <point x="435" y="43"/>
      <point x="337" y="43" type="curve" smooth="yes"/>
      <point x="255" y="43" type="line" smooth="yes"/>
      <point x="157" y="43"/>
      <point x="122" y="78"/>
      <point x="122" y="175" type="curve" smooth="yes"/>
      <point x="122" y="287" type="line" smooth="yes"/>
      <point x="122" y="386"/>
      <point x="157" y="421"/>
      <point x="255" y="420" type="curve" smooth="yes"/>
      <point x="337" y="420" type="line" smooth="yes"/>
      <point x="416" y="420"/>
      <point x="470" y="394"/>
      <point x="470" y="311" type="curve" smooth="yes"/>
    </contour>
    <contour>
      <point x="208" y="568" type="curve" smooth="yes"/>
      <point x="361" y="711" type="line" smooth="yes"/>
      <point x="371" y="721"/>
      <point x="371" y="731"/>
      <point x="362" y="741" type="curve" smooth="yes"/>
      <point x="353" y="751"/>
      <point x="342" y="751"/>
      <point x="332" y="742" type="curve" smooth="yes"/>
      <point x="179" y="599" type="line" smooth="yes"/>
      <point x="169" y="589"/>
      <point x="169" y="579"/>
      <point x="178" y="569" type="curve" smooth="yes"/>
      <point x="187" y="559"/>
      <point x="198" y="559"/>
    </contour>
  </outline>
</glyph>
<glyph name="oslash" format="2">
  <advance width="592"/>
  <unicode hex="00F8"/>
  <anchor x="296" y="461" name="top"/>
  <anchor x="296" y="0" name="bottom"/>
  <anchor x="296" y="231" name="center"/>
  <anchor x="462" y="44" name="ogonek"/>
  <anchor x="452" y="434" name="topright"/>
  <outline>
    <contour>
      <point x="121" y="-64" type="curve" smooth="yes"/>
      <point x="132" y="-67"/>
      <point x="139" y="-65"/>
      <point x="145" y="-55" type="curve" smooth="yes"/>
      <point x="191" y="19" type="line"/>
      <point x="197" y="28" type="line"/>
      <point x="432" y="413" type="line"/>
      <point x="437" y="421" type="line"/>
      <point x="475" y="483" type="line" smooth="yes"/>
      <point x="484" y="498"/>
      <point x="480" y="510"/>
      <point x="462" y="515" type="curve" smooth="yes"/>
      <point x="452" y="518"/>
      <point x="445" y="516"/>
      <point x="439" y="506" type="curve" smooth="yes"/>
      <point x="399" y="439" type="line"/>
      <point x="394" y="432" type="line"/>
      <point x="156" y="42" type="line"/>
      <point x="152" y="36" type="line"/>
      <point x="110" y="-32" type="line" smooth="yes"/>
      <point x="101" y="-46"/>
      <point x="105" y="-60"/>
    </contour>
    <component base="o"/>
  </outline>
</glyph>
<glyph name="thorn" format="2">
  <advance width="602"/>
  <unicode hex="00FE"/>
  <outline>
    <contour>
      <point x="111" y="-200" type="curve" smooth="yes"/>
      <point x="125" y="-200"/>
      <point x="132" y="-193"/>
      <point x="132" y="-179" type="curve" smooth="yes"/>
      <point x="132" y="1" type="line"/>
      <point x="347" y="1" type="line" smooth="yes"/>
      <point x="469" y="1"/>
      <point x="522" y="54"/>
      <point x="522" y="176" type="curve" smooth="yes"/>
      <point x="522" y="287" type="line" smooth="yes"/>
      <point x="522" y="409"/>
      <point x="469" y="462"/>
      <point x="347" y="462" type="curve" smooth="yes"/>
      <point x="309" y="462" type="line" smooth="yes"/>
      <point x="228" y="462"/>
      <point x="169" y="436"/>
      <point x="132" y="386" type="curve"/>
      <point x="132" y="623" type="line" smooth="yes"/>
      <point x="132" y="637"/>
      <point x="125" y="644"/>
      <point x="111" y="644" type="curve" smooth="yes"/>
      <point x="97" y="644"/>
      <point x="90" y="637"/>
      <point x="90" y="623" type="curve" smooth="yes"/>
      <point x="90" y="-179" type="line" smooth="yes"/>
      <point x="90" y="-193"/>
      <point x="97" y="-200"/>
    </contour>
    <contour>
      <point x="132" y="43" type="line"/>
      <point x="132" y="291" type="line" smooth="yes"/>
      <point x="132" y="377"/>
      <point x="190" y="420"/>
      <point x="309" y="420" type="curve" smooth="yes"/>
      <point x="347" y="420" type="line" smooth="yes"/>
      <point x="445" y="420"/>
      <point x="480" y="385"/>
      <point x="480" y="287" type="curve" smooth="yes"/>
      <point x="480" y="176" type="line" smooth="yes"/>
      <point x="480" y="78"/>
      <point x="445" y="43"/>
      <point x="347" y="43" type="curve" smooth="yes"/>
    </contour>
  </outline>
</glyph>
<glyph name="idotless" format="2">
  <advance width="222"/>
  <unicode hex="0131"/>
  <anchor x="111" y="0" name="bottom"/>
  <anchor x="111" y="0" name="ogonek"/>
  <anchor x="111" y="461" name="top"/>
  <outline>
    <contour>
      <point x="111" y="0" type="curve" smooth="yes"/>
      <point x="125" y="0"/>
      <point x="132" y="7"/>
      <point x="132" y="21" type="curve" smooth="yes"/>
      <point x="132" y="440" type="line" smooth="yes"/>
      <point x="132" y="454"/>
      <point x="125" y="461"/>
      <point x="111" y="461" type="curve" smooth="yes"/>
      <point x="97" y="461"/>
      <point x="90" y="454"/>
      <point x="90" y="440" type="curve" smooth="yes"/>
      <point x="90" y="21" type="line" smooth="yes"/>
      <point x="90" y="7"/>
      <point x="97" y="0"/>
    </contour>
  </outline>
</glyph>
<glyph name="kgreenlandic" format="2">
  <advance width="469"/>
  <unicode hex="0138"/>
  <anchor x="243" y="0" name="bottom"/>
  <anchor x="246" y="461" name="top"/>
  <outline>
    <contour>
      <point x="129" y="183" type="curve" smooth="yes"/>
      <point x="418" y="431" type="line" smooth="yes"/>
      <point x="428" y="440"/>
      <point x="429" y="451"/>
      <point x="420" y="461" type="curve" smooth="yes"/>
      <point x="411" y="471"/>
      <point x="401" y="472"/>
      <point x="391" y="463" type="curve" smooth="yes"/>
      <point x="101" y="214" type="line" smooth="yes"/>
      <point x="91" y="206"/>
      <point x="90" y="195"/>
      <point x="99" y="185" type="curve" smooth="yes"/>
      <point x="108" y="174"/>
      <point x="118" y="174"/>
    </contour>
    <contour>
      <point x="111" y="0" type="curve" smooth="yes"/>
      <point x="125" y="0"/>
      <point x="132" y="7"/>
      <point x="132" y="21" type="curve" smooth="yes"/>
      <point x="132" y="440" type="line" smooth="yes"/>
      <point x="132" y="454"/>
      <point x="125" y="461"/>
      <point x="111" y="461" type="curve" smooth="yes"/>
      <point x="97" y="461"/>
      <point x="90" y="454"/>
      <point x="90" y="440" type="curve" smooth="yes"/>
      <point x="90" y="21" type="line" smooth="yes"/>
      <point x="90" y="7"/>
      <point x="97" y="0"/>
    </contour>
    <contour>
      <point x="440" y="6" type="curve" smooth="yes"/>
      <point x="451" y="15"/>
      <point x="451" y="26"/>
      <point x="442" y="36" type="curve" smooth="yes"/>
      <point x="234" y="272" type="line" smooth="yes"/>
      <point x="225" y="282"/>
      <point x="214" y="283"/>
      <point x="204" y="274" type="curve" smooth="yes"/>
      <point x="194" y="265"/>
      <point x="193" y="255"/>
      <point x="202" y="244" type="curve" smooth="yes"/>
      <point x="411" y="8" type="line" smooth="yes"/>
      <point x="420" y="-2"/>
      <point x="430" y="-3"/>
    </contour>
  </outline>
</glyph>
<glyph name="lslash" format="2">
  <advance width="272"/>
  <unicode hex="0142"/>
  <anchor x="117" y="341" name="_center"/>
  <anchor x="178" y="0" name="bottom"/>
  <anchor x="127.007" y="341.0" name="center"/>
  <anchor x="111" y="690" name="top"/>
  <anchor x="177" y="461" name="topright"/>
  <outline>
    <contour>
      <point x="14" y="241" type="curve" smooth="yes"/>
      <point x="19" y="241"/>
      <point x="23" y="242"/>
      <point x="27" y="245" type="curve" smooth="yes"/>
      <point x="223" y="392" type="line" smooth="yes"/>
      <point x="229" y="397"/>
      <point x="232" y="402"/>
      <point x="232" y="409" type="curve" smooth="yes"/>
      <point x="232" y="421"/>
      <point x="223" y="430"/>
      <point x="211" y="430" type="curve" smooth="yes"/>
      <point x="206" y="430"/>
      <point x="202" y="429"/>
      <point x="198" y="426" type="curve" smooth="yes"/>
      <point x="2" y="279" type="line" smooth="yes"/>
      <point x="-4" y="275"/>
      <point x="-7" y="269"/>
      <point x="-7" y="262" type="curve" smooth="yes"/>
      <point x="-7" y="250"/>
      <point x="2" y="241"/>
    </contour>
    <component base="l"/>
  </outline>
</glyph>
<glyph name="Eng" format="2">
  <advance width="687"/>
  <unicode hex="014A"/>
  <anchor x="353" y="0" name="bottom"/>
  <anchor x="353" y="633" name="top"/>
  <outline>
    <contour>
      <point x="365" y="-200" type="curve" smooth="yes"/>
      <point x="474" y="-200" type="line" smooth="yes"/>
      <point x="559" y="-200"/>
      <point x="597" y="-162"/>
      <point x="597" y="-77" type="curve" smooth="yes"/>
      <point x="597" y="140" type="line" smooth="yes"/>
      <point x="597" y="154"/>
      <point x="590" y="161"/>
      <point x="576" y="161" type="curve" smooth="yes"/>
      <point x="562" y="161"/>
      <point x="555" y="154"/>
      <point x="555" y="140" type="curve" smooth="yes"/>
      <point x="555" y="-77" type="line" smooth="yes"/>
      <point x="555" y="-139"/>
      <point x="536" y="-158"/>
      <point x="474" y="-158" type="curve" smooth="yes"/>
      <point x="365" y="-158" type="line" smooth="yes"/>
      <point x="311" y="-158"/>
      <point x="288" y="-144"/>
      <point x="285" y="-98" type="curve" smooth="yes"/>
      <point x="284" y="-84"/>
      <point x="277" y="-77"/>
      <point x="263" y="-77" type="curve" smooth="yes"/>
      <point x="250" y="-77"/>
      <point x="242" y="-85"/>
      <point x="243" y="-99" type="curve" smooth="yes"/>
      <point x="248" y="-169"/>
      <point x="287" y="-200"/>
    </contour>
    <component base="N"/>
  </outline>
</glyph>
<glyph name="eng" format="2">
  <advance width="592"/>
  <unicode hex="014B"/>
  <anchor x="332" y="0" name="bottom"/>
  <anchor x="322" y="461" name="top"/>
  <outline>
    <contour>
      <point x="293" y="-203" type="curve" smooth="yes"/>
      <point x="389" y="-203" type="line" smooth="yes"/>
      <point x="474" y="-203"/>
      <point x="512" y="-165"/>
      <point x="512" y="-79" type="curve" smooth="yes"/>
      <point x="512" y="141" type="line" smooth="yes"/>
      <point x="512" y="155"/>
      <point x="505" y="162"/>
      <point x="491" y="162" type="curve" smooth="yes"/>
      <point x="477" y="162"/>
      <point x="470" y="155"/>
      <point x="470" y="141" type="curve"/>
      <point x="470" y="-79" type="line"/>
      <point x="470" y="-142"/>
      <point x="450" y="-161"/>
      <point x="389" y="-161" type="curve" smooth="yes"/>
      <point x="293" y="-161" type="line" smooth="yes"/>
      <point x="232" y="-161"/>
      <point x="212" y="-142"/>
      <point x="212" y="-79" type="curve" smooth="yes"/>
      <point x="212" y="-65"/>
      <point x="205" y="-58"/>
      <point x="191" y="-58" type="curve" smooth="yes"/>
      <point x="177" y="-58"/>
      <point x="170" y="-65"/>
      <point x="170" y="-79" type="curve" smooth="yes"/>
      <point x="170" y="-165"/>
      <point x="208" y="-203"/>
    </contour>
    <component base="n"/>
  </outline>
</glyph>
